<mxfile host="app.diagrams.net" modified="2021-05-12T11:59:52.217Z" agent="5.0 (Windows)" etag="JjHWv8PnKXuMtMIWaqLf" version="14.6.12" type="github">
  <diagram name="Page-1" id="7a6c530e-6e37-e111-ec74-82921da8cc10">
    <mxGraphModel dx="1371" dy="574" grid="1" gridSize="10" guides="1" tooltips="1" connect="1" arrows="1" fold="1" page="1" pageScale="1.5" pageWidth="1169" pageHeight="826" background="none" math="0" shadow="0">
      <root>
        <mxCell id="0" style=";html=1;" />
        <mxCell id="1" style=";html=1;" parent="0" />
        <mxCell id="e5oLFLb0LMOiWfZk1AVb-7" value="SNMPPROC02/be6" style="shape=image;verticalLabelPosition=bottom;labelBackgroundColor=#ffffff;verticalAlign=top;aspect=fixed;imageAspect=0;image=data:image/svg+xml,PHN2ZyB4bWxuczpjYz0iaHR0cDovL2NyZWF0aXZlY29tbW9ucy5vcmcvbnMjIiB4bWxuczpkYz0iaHR0cDovL3B1cmwub3JnL2RjL2VsZW1lbnRzLzEuMS8iIHhtbG5zOmlua3NjYXBlPSJodHRwOi8vd3d3Lmlua3NjYXBlLm9yZy9uYW1lc3BhY2VzL2lua3NjYXBlIiB4bWxuczpyZGY9Imh0dHA6Ly93d3cudzMub3JnLzE5OTkvMDIvMjItcmRmLXN5bnRheC1ucyMiIHhtbG5zOnNvZGlwb2RpPSJodHRwOi8vc29kaXBvZGkuc291cmNlZm9yZ2UubmV0L0RURC9zb2RpcG9kaS0wLmR0ZCIgeG1sbnM6c3ZnPSJodHRwOi8vd3d3LnczLm9yZy8yMDAwL3N2ZyIgeG1sbnM9Imh0dHA6Ly93d3cudzMub3JnLzIwMDAvc3ZnIiB4bWxuczp4bGluaz0iaHR0cDovL3d3dy53My5vcmcvMTk5OS94bGluayIgdmVyc2lvbj0iMS4xIiBpZD0ic3ZnMjQ1NjgiIGlua3NjYXBlOnZlcnNpb249IjAuOTIuMyAoMjQwNTU0NiwgMjAxOC0wMy0xMSkiIHNvZGlwb2RpOmRvY25hbWU9InNlcnZlcl9ncmVlbi5zdmciIHg9IjBweCIgeT0iMHB4IiB2aWV3Qm94PSIwIDAgMzQuOTMgNTguOTEiIHN0eWxlPSJlbmFibGUtYmFja2dyb3VuZDpuZXcgMCAwIDM0LjkzIDU4LjkxOyIgeG1sOnNwYWNlPSJwcmVzZXJ2ZSI+JiN4YTs8c29kaXBvZGk6bmFtZWR2aWV3IGJvcmRlcmNvbG9yPSIjNjY2NjY2IiBib3JkZXJvcGFjaXR5PSIxIiBmaXQtbWFyZ2luLWJvdHRvbT0iMCIgZml0LW1hcmdpbi1sZWZ0PSIwIiBmaXQtbWFyZ2luLXJpZ2h0PSIwIiBmaXQtbWFyZ2luLXRvcD0iMCIgZ3JpZHRvbGVyYW5jZT0iMTAiIGd1aWRldG9sZXJhbmNlPSIxMCIgaWQ9Im5hbWVkdmlldzI0NTcwIiBpbmtzY2FwZTpjdXJyZW50LWxheWVyPSJzdmcyNDU2OCIgaW5rc2NhcGU6Y3g9IjIzLjI4OTk4NSIgaW5rc2NhcGU6Y3k9IjM5LjI3NDk3MyIgaW5rc2NhcGU6cGFnZW9wYWNpdHk9IjAiIGlua3NjYXBlOnBhZ2VzaGFkb3c9IjIiIGlua3NjYXBlOndpbmRvdy1oZWlnaHQ9IjEwMTciIGlua3NjYXBlOndpbmRvdy1tYXhpbWl6ZWQ9IjEiIGlua3NjYXBlOndpbmRvdy13aWR0aD0iMTkyMCIgaW5rc2NhcGU6d2luZG93LXg9Ii04IiBpbmtzY2FwZTp3aW5kb3cteT0iLTgiIGlua3NjYXBlOnpvb209IjEwLjc2MzUwOCIgb2JqZWN0dG9sZXJhbmNlPSIxMCIgcGFnZWNvbG9yPSIjZmZmZmZmIiBzaG93Z3JpZD0iZmFsc2UiPiYjeGE7CTwvc29kaXBvZGk6bmFtZWR2aWV3PiYjeGE7PGcgaWQ9ImcyNDU2NiIgdHJhbnNmb3JtPSJ0cmFuc2xhdGUoLTAuNzUwMDIzNTIsLTAuNzUpIj4mI3hhOwk8dGl0bGUgaWQ9InRpdGxlMjQ0OTYiPlBhZ2UtMTwvdGl0bGU+JiN4YTsJPGcgaWQ9Imdyb3VwNzU4MC0xIiB0cmFuc2Zvcm09InRyYW5zbGF0ZSgxLjUsLTEuNSkiPiYjeGE7CQk8dGl0bGUgaWQ9InRpdGxlMjQ0OTgiPlNlcnZlciAoR3JlZW4pPC90aXRsZT4mI3hhOwkJPGcgaWQ9InNoYXBlNzU4MS0yIj4mI3hhOwkJCTx0aXRsZSBpZD0idGl0bGUyNDUwMCI+cmVjdDgwMjA8L3RpdGxlPiYjeGE7CQkJJiN4YTsJCQkJPHJlY3QgaWQ9InJlY3QyNDUwMiIgeD0iMCIgeT0iMyIgc3R5bGU9ImZpbGw6I0ZGRkZGRjtzdHJva2U6IzU1NTU1NTtzdHJva2Utd2lkdGg6MS41O3N0cm9rZS1taXRlcmxpbWl0OjM7IiB3aWR0aD0iMzMuNDQiIGhlaWdodD0iNTcuNDEiLz4mI3hhOwkJPC9nPiYjeGE7CQk8ZyBpZD0ic2hhcGU3NTgyLTQiIHRyYW5zZm9ybT0idHJhbnNsYXRlKDE2LjQwMjUsLTAuNzcyNTAxKSI+JiN4YTsJCQk8dGl0bGUgaWQ9InRpdGxlMjQ1MDUiPnJlY3Q4MDIyPC90aXRsZT4mI3hhOwkJCTxyZWN0IGlkPSJyZWN0MjQ1MDciIHg9IjAiIHk9IjQuNTQiIHN0eWxlPSJmaWxsOiNGMkYyRjI7IiB3aWR0aD0iMTYuNCIgaGVpZ2h0PSI1NS44OCIvPiYjeGE7CQk8L2c+JiN4YTsJCTxnIGlkPSJzaGFwZTc1ODMtNiIgdHJhbnNmb3JtPSJ0cmFuc2xhdGUoMS4yNiwtNDEuMDEpIj4mI3hhOwkJCTx0aXRsZSBpZD0idGl0bGUyNDUxMCI+cmVjdDgwMjQ8L3RpdGxlPiYjeGE7CQkJPHJlY3QgaWQ9InJlY3QyNDUxMiIgeD0iMCIgeT0iNTguNTIiIHN0eWxlPSJmaWxsOiMzMTc1MkY7IiB3aWR0aD0iMTUuMTQiIGhlaWdodD0iMS44OSIvPiYjeGE7CQk8L2c+JiN4YTsJCTxnIGlkPSJzaGFwZTc1ODQtOCIgdHJhbnNmb3JtPSJ0cmFuc2xhdGUoMS4yNiwtNDkuODM3NSkiPiYjeGE7CQkJPHRpdGxlIGlkPSJ0aXRsZTI0NTE1Ij5wb2x5Z29uODAyNjwvdGl0bGU+JiN4YTsJCQk8cmVjdCBpZD0icmVjdDI0NTE3IiB4PSIwIiB5PSI1OC41MSIgc3R5bGU9ImZpbGw6bm9uZTsiIHdpZHRoPSIyMi43MSIgaGVpZ2h0PSIxLjkiLz4mI3hhOwkJPC9nPiYjeGE7CQk8ZyBpZD0ic2hhcGU3NTg1LTEwIiB0cmFuc2Zvcm09InRyYW5zbGF0ZSgxLjI2LC00OS44Mzc1KSI+JiN4YTsJCQk8dGl0bGUgaWQ9InRpdGxlMjQ1MjAiPnBvbHlsaW5lODAyODwvdGl0bGU+JiN4YTsJCQk8cmVjdCBpZD0icmVjdDI0NTIyIiB4PSIwIiB5PSI1OC41MSIgc3R5bGU9ImZpbGw6bm9uZTsiIHdpZHRoPSIyMi43MSIgaGVpZ2h0PSIxLjkiLz4mI3hhOwkJPC9nPiYjeGE7CQk8ZyBpZD0ic2hhcGU3NTg2LTEyIiB0cmFuc2Zvcm09InRyYW5zbGF0ZSgxLjI2LC00NS40Mjc1KSI+JiN4YTsJCQk8dGl0bGUgaWQ9InRpdGxlMjQ1MjUiPnJlY3Q4MDMwPC90aXRsZT4mI3hhOwkJCTxyZWN0IGlkPSJyZWN0MjQ1MjciIHg9IjAiIHk9IjU4LjUyIiBzdHlsZT0iZmlsbDojMzE3NTJGOyIgd2lkdGg9IjE1LjE0IiBoZWlnaHQ9IjEuODkiLz4mI3hhOwkJPC9nPiYjeGE7CQk8ZyBpZD0ic2hhcGU3NTg3LTE0IiB0cmFuc2Zvcm09InRyYW5zbGF0ZSgxLjI2LC00OS44NDUpIj4mI3hhOwkJCTx0aXRsZSBpZD0idGl0bGUyNDUzMCI+cmVjdDgwMzI8L3RpdGxlPiYjeGE7CQkJPHJlY3QgaWQ9InJlY3QyNDUzMiIgeD0iMCIgeT0iNTguNTIiIHN0eWxlPSJmaWxsOiMzMTc1MkY7IiB3aWR0aD0iMTUuMTQiIGhlaWdodD0iMS44OSIvPiYjeGE7CQk8L2c+JiN4YTsJCTxnIGlkPSJzaGFwZTc1ODgtMTYiIHRyYW5zZm9ybT0idHJhbnNsYXRlKDE2LjQwMjUsLTQxLjAxKSI+JiN4YTsJCQk8dGl0bGUgaWQ9InRpdGxlMjQ1MzUiPnJlY3Q4MDM0PC90aXRsZT4mI3hhOwkJCTxyZWN0IGlkPSJyZWN0MjQ1MzciIHg9IjAiIHk9IjU4LjUyIiBzdHlsZT0iZmlsbDojNTU1NTU1OyIgd2lkdGg9IjE2LjQiIGhlaWdodD0iMS44OSIvPiYjeGE7CQk8L2c+JiN4YTsJCTxnIGlkPSJzaGFwZTc1ODktMTgiIHRyYW5zZm9ybT0idHJhbnNsYXRlKDE2LjQwMjUsLTQ1LjQyNzUpIj4mI3hhOwkJCTx0aXRsZSBpZD0idGl0bGUyNDU0MCI+cmVjdDgwMzY8L3RpdGxlPiYjeGE7CQkJPHJlY3QgaWQ9InJlY3QyNDU0MiIgeD0iMCIgeT0iNTguNTIiIHN0eWxlPSJmaWxsOiM1NTU1NTU7IiB3aWR0aD0iMTYuNCIgaGVpZ2h0PSIxLjg5Ii8+JiN4YTsJCTwvZz4mI3hhOwkJPGcgaWQ9InNoYXBlNzU5MC0yMCIgdHJhbnNmb3JtPSJ0cmFuc2xhdGUoMTYuNDAyNSwtNDkuODQ1KSI+JiN4YTsJCQk8dGl0bGUgaWQ9InRpdGxlMjQ1NDUiPnJlY3Q4MDM4PC90aXRsZT4mI3hhOwkJCTxyZWN0IGlkPSJyZWN0MjQ1NDciIHg9IjAiIHk9IjU4LjUyIiBzdHlsZT0iZmlsbDojNTU1NTU1OyIgd2lkdGg9IjE2LjQiIGhlaWdodD0iMS44OSIvPiYjeGE7CQk8L2c+JiN4YTsJCTxnIGlkPSJzaGFwZTc1OTEtMjIiIHRyYW5zZm9ybT0idHJhbnNsYXRlKDAuNjMsLTQ5Ljg0NSkiPiYjeGE7CQkJPHRpdGxlIGlkPSJ0aXRsZTI0NTUwIj5yZWN0ODA0MDwvdGl0bGU+JiN4YTsJCQk8cmVjdCBpZD0icmVjdDI0NTUyIiB4PSIwIiB5PSI1OC41MiIgc3R5bGU9ImZpbGw6IzU1NTU1NTsiIHdpZHRoPSIxLjg5IiBoZWlnaHQ9IjEuODkiLz4mI3hhOwkJPC9nPiYjeGE7CQk8ZyBpZD0ic2hhcGU3NTkyLTI0IiB0cmFuc2Zvcm09InRyYW5zbGF0ZSgwLjYzLC00NS40Mjc1KSI+JiN4YTsJCQk8dGl0bGUgaWQ9InRpdGxlMjQ1NTUiPnJlY3Q4MDQyPC90aXRsZT4mI3hhOwkJCTxyZWN0IGlkPSJyZWN0MjQ1NTciIHg9IjAiIHk9IjU4LjUyIiBzdHlsZT0iZmlsbDojNTU1NTU1OyIgd2lkdGg9IjEuODkiIGhlaWdodD0iMS44OSIvPiYjeGE7CQk8L2c+JiN4YTsJCTxnIGlkPSJzaGFwZTc1OTMtMjYiIHRyYW5zZm9ybT0idHJhbnNsYXRlKDAuNjMsLTQxLjAxKSI+JiN4YTsJCQk8dGl0bGUgaWQ9InRpdGxlMjQ1NjAiPnJlY3Q4MDQ0PC90aXRsZT4mI3hhOwkJCTxyZWN0IGlkPSJyZWN0MjQ1NjIiIHg9IjAiIHk9IjU4LjUyIiBzdHlsZT0iZmlsbDojNTU1NTU1OyIgd2lkdGg9IjEuODkiIGhlaWdodD0iMS44OSIvPiYjeGE7CQk8L2c+JiN4YTsJPC9nPiYjeGE7PC9nPiYjeGE7PC9zdmc+;" vertex="1" parent="1">
          <mxGeometry x="379.99999999999994" y="80" width="160.17" height="270" as="geometry" />
        </mxCell>
        <mxCell id="e5oLFLb0LMOiWfZk1AVb-8" value="SNMPPROC03/be7" style="shape=image;verticalLabelPosition=bottom;labelBackgroundColor=#ffffff;verticalAlign=top;aspect=fixed;imageAspect=0;image=data:image/svg+xml,PHN2ZyB4bWxuczpjYz0iaHR0cDovL2NyZWF0aXZlY29tbW9ucy5vcmcvbnMjIiB4bWxuczpkYz0iaHR0cDovL3B1cmwub3JnL2RjL2VsZW1lbnRzLzEuMS8iIHhtbG5zOmlua3NjYXBlPSJodHRwOi8vd3d3Lmlua3NjYXBlLm9yZy9uYW1lc3BhY2VzL2lua3NjYXBlIiB4bWxuczpyZGY9Imh0dHA6Ly93d3cudzMub3JnLzE5OTkvMDIvMjItcmRmLXN5bnRheC1ucyMiIHhtbG5zOnNvZGlwb2RpPSJodHRwOi8vc29kaXBvZGkuc291cmNlZm9yZ2UubmV0L0RURC9zb2RpcG9kaS0wLmR0ZCIgeG1sbnM6c3ZnPSJodHRwOi8vd3d3LnczLm9yZy8yMDAwL3N2ZyIgeG1sbnM9Imh0dHA6Ly93d3cudzMub3JnLzIwMDAvc3ZnIiB4bWxuczp4bGluaz0iaHR0cDovL3d3dy53My5vcmcvMTk5OS94bGluayIgdmVyc2lvbj0iMS4xIiBpZD0ic3ZnMjQ1NjgiIGlua3NjYXBlOnZlcnNpb249IjAuOTIuMyAoMjQwNTU0NiwgMjAxOC0wMy0xMSkiIHNvZGlwb2RpOmRvY25hbWU9InNlcnZlcl9ncmVlbi5zdmciIHg9IjBweCIgeT0iMHB4IiB2aWV3Qm94PSIwIDAgMzQuOTMgNTguOTEiIHN0eWxlPSJlbmFibGUtYmFja2dyb3VuZDpuZXcgMCAwIDM0LjkzIDU4LjkxOyIgeG1sOnNwYWNlPSJwcmVzZXJ2ZSI+JiN4YTs8c29kaXBvZGk6bmFtZWR2aWV3IGJvcmRlcmNvbG9yPSIjNjY2NjY2IiBib3JkZXJvcGFjaXR5PSIxIiBmaXQtbWFyZ2luLWJvdHRvbT0iMCIgZml0LW1hcmdpbi1sZWZ0PSIwIiBmaXQtbWFyZ2luLXJpZ2h0PSIwIiBmaXQtbWFyZ2luLXRvcD0iMCIgZ3JpZHRvbGVyYW5jZT0iMTAiIGd1aWRldG9sZXJhbmNlPSIxMCIgaWQ9Im5hbWVkdmlldzI0NTcwIiBpbmtzY2FwZTpjdXJyZW50LWxheWVyPSJzdmcyNDU2OCIgaW5rc2NhcGU6Y3g9IjIzLjI4OTk4NSIgaW5rc2NhcGU6Y3k9IjM5LjI3NDk3MyIgaW5rc2NhcGU6cGFnZW9wYWNpdHk9IjAiIGlua3NjYXBlOnBhZ2VzaGFkb3c9IjIiIGlua3NjYXBlOndpbmRvdy1oZWlnaHQ9IjEwMTciIGlua3NjYXBlOndpbmRvdy1tYXhpbWl6ZWQ9IjEiIGlua3NjYXBlOndpbmRvdy13aWR0aD0iMTkyMCIgaW5rc2NhcGU6d2luZG93LXg9Ii04IiBpbmtzY2FwZTp3aW5kb3cteT0iLTgiIGlua3NjYXBlOnpvb209IjEwLjc2MzUwOCIgb2JqZWN0dG9sZXJhbmNlPSIxMCIgcGFnZWNvbG9yPSIjZmZmZmZmIiBzaG93Z3JpZD0iZmFsc2UiPiYjeGE7CTwvc29kaXBvZGk6bmFtZWR2aWV3PiYjeGE7PGcgaWQ9ImcyNDU2NiIgdHJhbnNmb3JtPSJ0cmFuc2xhdGUoLTAuNzUwMDIzNTIsLTAuNzUpIj4mI3hhOwk8dGl0bGUgaWQ9InRpdGxlMjQ0OTYiPlBhZ2UtMTwvdGl0bGU+JiN4YTsJPGcgaWQ9Imdyb3VwNzU4MC0xIiB0cmFuc2Zvcm09InRyYW5zbGF0ZSgxLjUsLTEuNSkiPiYjeGE7CQk8dGl0bGUgaWQ9InRpdGxlMjQ0OTgiPlNlcnZlciAoR3JlZW4pPC90aXRsZT4mI3hhOwkJPGcgaWQ9InNoYXBlNzU4MS0yIj4mI3hhOwkJCTx0aXRsZSBpZD0idGl0bGUyNDUwMCI+cmVjdDgwMjA8L3RpdGxlPiYjeGE7CQkJJiN4YTsJCQkJPHJlY3QgaWQ9InJlY3QyNDUwMiIgeD0iMCIgeT0iMyIgc3R5bGU9ImZpbGw6I0ZGRkZGRjtzdHJva2U6IzU1NTU1NTtzdHJva2Utd2lkdGg6MS41O3N0cm9rZS1taXRlcmxpbWl0OjM7IiB3aWR0aD0iMzMuNDQiIGhlaWdodD0iNTcuNDEiLz4mI3hhOwkJPC9nPiYjeGE7CQk8ZyBpZD0ic2hhcGU3NTgyLTQiIHRyYW5zZm9ybT0idHJhbnNsYXRlKDE2LjQwMjUsLTAuNzcyNTAxKSI+JiN4YTsJCQk8dGl0bGUgaWQ9InRpdGxlMjQ1MDUiPnJlY3Q4MDIyPC90aXRsZT4mI3hhOwkJCTxyZWN0IGlkPSJyZWN0MjQ1MDciIHg9IjAiIHk9IjQuNTQiIHN0eWxlPSJmaWxsOiNGMkYyRjI7IiB3aWR0aD0iMTYuNCIgaGVpZ2h0PSI1NS44OCIvPiYjeGE7CQk8L2c+JiN4YTsJCTxnIGlkPSJzaGFwZTc1ODMtNiIgdHJhbnNmb3JtPSJ0cmFuc2xhdGUoMS4yNiwtNDEuMDEpIj4mI3hhOwkJCTx0aXRsZSBpZD0idGl0bGUyNDUxMCI+cmVjdDgwMjQ8L3RpdGxlPiYjeGE7CQkJPHJlY3QgaWQ9InJlY3QyNDUxMiIgeD0iMCIgeT0iNTguNTIiIHN0eWxlPSJmaWxsOiMzMTc1MkY7IiB3aWR0aD0iMTUuMTQiIGhlaWdodD0iMS44OSIvPiYjeGE7CQk8L2c+JiN4YTsJCTxnIGlkPSJzaGFwZTc1ODQtOCIgdHJhbnNmb3JtPSJ0cmFuc2xhdGUoMS4yNiwtNDkuODM3NSkiPiYjeGE7CQkJPHRpdGxlIGlkPSJ0aXRsZTI0NTE1Ij5wb2x5Z29uODAyNjwvdGl0bGU+JiN4YTsJCQk8cmVjdCBpZD0icmVjdDI0NTE3IiB4PSIwIiB5PSI1OC41MSIgc3R5bGU9ImZpbGw6bm9uZTsiIHdpZHRoPSIyMi43MSIgaGVpZ2h0PSIxLjkiLz4mI3hhOwkJPC9nPiYjeGE7CQk8ZyBpZD0ic2hhcGU3NTg1LTEwIiB0cmFuc2Zvcm09InRyYW5zbGF0ZSgxLjI2LC00OS44Mzc1KSI+JiN4YTsJCQk8dGl0bGUgaWQ9InRpdGxlMjQ1MjAiPnBvbHlsaW5lODAyODwvdGl0bGU+JiN4YTsJCQk8cmVjdCBpZD0icmVjdDI0NTIyIiB4PSIwIiB5PSI1OC41MSIgc3R5bGU9ImZpbGw6bm9uZTsiIHdpZHRoPSIyMi43MSIgaGVpZ2h0PSIxLjkiLz4mI3hhOwkJPC9nPiYjeGE7CQk8ZyBpZD0ic2hhcGU3NTg2LTEyIiB0cmFuc2Zvcm09InRyYW5zbGF0ZSgxLjI2LC00NS40Mjc1KSI+JiN4YTsJCQk8dGl0bGUgaWQ9InRpdGxlMjQ1MjUiPnJlY3Q4MDMwPC90aXRsZT4mI3hhOwkJCTxyZWN0IGlkPSJyZWN0MjQ1MjciIHg9IjAiIHk9IjU4LjUyIiBzdHlsZT0iZmlsbDojMzE3NTJGOyIgd2lkdGg9IjE1LjE0IiBoZWlnaHQ9IjEuODkiLz4mI3hhOwkJPC9nPiYjeGE7CQk8ZyBpZD0ic2hhcGU3NTg3LTE0IiB0cmFuc2Zvcm09InRyYW5zbGF0ZSgxLjI2LC00OS44NDUpIj4mI3hhOwkJCTx0aXRsZSBpZD0idGl0bGUyNDUzMCI+cmVjdDgwMzI8L3RpdGxlPiYjeGE7CQkJPHJlY3QgaWQ9InJlY3QyNDUzMiIgeD0iMCIgeT0iNTguNTIiIHN0eWxlPSJmaWxsOiMzMTc1MkY7IiB3aWR0aD0iMTUuMTQiIGhlaWdodD0iMS44OSIvPiYjeGE7CQk8L2c+JiN4YTsJCTxnIGlkPSJzaGFwZTc1ODgtMTYiIHRyYW5zZm9ybT0idHJhbnNsYXRlKDE2LjQwMjUsLTQxLjAxKSI+JiN4YTsJCQk8dGl0bGUgaWQ9InRpdGxlMjQ1MzUiPnJlY3Q4MDM0PC90aXRsZT4mI3hhOwkJCTxyZWN0IGlkPSJyZWN0MjQ1MzciIHg9IjAiIHk9IjU4LjUyIiBzdHlsZT0iZmlsbDojNTU1NTU1OyIgd2lkdGg9IjE2LjQiIGhlaWdodD0iMS44OSIvPiYjeGE7CQk8L2c+JiN4YTsJCTxnIGlkPSJzaGFwZTc1ODktMTgiIHRyYW5zZm9ybT0idHJhbnNsYXRlKDE2LjQwMjUsLTQ1LjQyNzUpIj4mI3hhOwkJCTx0aXRsZSBpZD0idGl0bGUyNDU0MCI+cmVjdDgwMzY8L3RpdGxlPiYjeGE7CQkJPHJlY3QgaWQ9InJlY3QyNDU0MiIgeD0iMCIgeT0iNTguNTIiIHN0eWxlPSJmaWxsOiM1NTU1NTU7IiB3aWR0aD0iMTYuNCIgaGVpZ2h0PSIxLjg5Ii8+JiN4YTsJCTwvZz4mI3hhOwkJPGcgaWQ9InNoYXBlNzU5MC0yMCIgdHJhbnNmb3JtPSJ0cmFuc2xhdGUoMTYuNDAyNSwtNDkuODQ1KSI+JiN4YTsJCQk8dGl0bGUgaWQ9InRpdGxlMjQ1NDUiPnJlY3Q4MDM4PC90aXRsZT4mI3hhOwkJCTxyZWN0IGlkPSJyZWN0MjQ1NDciIHg9IjAiIHk9IjU4LjUyIiBzdHlsZT0iZmlsbDojNTU1NTU1OyIgd2lkdGg9IjE2LjQiIGhlaWdodD0iMS44OSIvPiYjeGE7CQk8L2c+JiN4YTsJCTxnIGlkPSJzaGFwZTc1OTEtMjIiIHRyYW5zZm9ybT0idHJhbnNsYXRlKDAuNjMsLTQ5Ljg0NSkiPiYjeGE7CQkJPHRpdGxlIGlkPSJ0aXRsZTI0NTUwIj5yZWN0ODA0MDwvdGl0bGU+JiN4YTsJCQk8cmVjdCBpZD0icmVjdDI0NTUyIiB4PSIwIiB5PSI1OC41MiIgc3R5bGU9ImZpbGw6IzU1NTU1NTsiIHdpZHRoPSIxLjg5IiBoZWlnaHQ9IjEuODkiLz4mI3hhOwkJPC9nPiYjeGE7CQk8ZyBpZD0ic2hhcGU3NTkyLTI0IiB0cmFuc2Zvcm09InRyYW5zbGF0ZSgwLjYzLC00NS40Mjc1KSI+JiN4YTsJCQk8dGl0bGUgaWQ9InRpdGxlMjQ1NTUiPnJlY3Q4MDQyPC90aXRsZT4mI3hhOwkJCTxyZWN0IGlkPSJyZWN0MjQ1NTciIHg9IjAiIHk9IjU4LjUyIiBzdHlsZT0iZmlsbDojNTU1NTU1OyIgd2lkdGg9IjEuODkiIGhlaWdodD0iMS44OSIvPiYjeGE7CQk8L2c+JiN4YTsJCTxnIGlkPSJzaGFwZTc1OTMtMjYiIHRyYW5zZm9ybT0idHJhbnNsYXRlKDAuNjMsLTQxLjAxKSI+JiN4YTsJCQk8dGl0bGUgaWQ9InRpdGxlMjQ1NjAiPnJlY3Q4MDQ0PC90aXRsZT4mI3hhOwkJCTxyZWN0IGlkPSJyZWN0MjQ1NjIiIHg9IjAiIHk9IjU4LjUyIiBzdHlsZT0iZmlsbDojNTU1NTU1OyIgd2lkdGg9IjEuODkiIGhlaWdodD0iMS44OSIvPiYjeGE7CQk8L2c+JiN4YTsJPC9nPiYjeGE7PC9nPiYjeGE7PC9zdmc+;" vertex="1" parent="1">
          <mxGeometry x="570" y="80" width="160.17" height="270" as="geometry" />
        </mxCell>
        <mxCell id="e5oLFLb0LMOiWfZk1AVb-9" value="SNMPPROC04/be8" style="shape=image;verticalLabelPosition=bottom;labelBackgroundColor=#ffffff;verticalAlign=top;aspect=fixed;imageAspect=0;image=data:image/svg+xml,PHN2ZyB4bWxuczpjYz0iaHR0cDovL2NyZWF0aXZlY29tbW9ucy5vcmcvbnMjIiB4bWxuczpkYz0iaHR0cDovL3B1cmwub3JnL2RjL2VsZW1lbnRzLzEuMS8iIHhtbG5zOmlua3NjYXBlPSJodHRwOi8vd3d3Lmlua3NjYXBlLm9yZy9uYW1lc3BhY2VzL2lua3NjYXBlIiB4bWxuczpyZGY9Imh0dHA6Ly93d3cudzMub3JnLzE5OTkvMDIvMjItcmRmLXN5bnRheC1ucyMiIHhtbG5zOnNvZGlwb2RpPSJodHRwOi8vc29kaXBvZGkuc291cmNlZm9yZ2UubmV0L0RURC9zb2RpcG9kaS0wLmR0ZCIgeG1sbnM6c3ZnPSJodHRwOi8vd3d3LnczLm9yZy8yMDAwL3N2ZyIgeG1sbnM9Imh0dHA6Ly93d3cudzMub3JnLzIwMDAvc3ZnIiB4bWxuczp4bGluaz0iaHR0cDovL3d3dy53My5vcmcvMTk5OS94bGluayIgdmVyc2lvbj0iMS4xIiBpZD0ic3ZnMjQ1NjgiIGlua3NjYXBlOnZlcnNpb249IjAuOTIuMyAoMjQwNTU0NiwgMjAxOC0wMy0xMSkiIHNvZGlwb2RpOmRvY25hbWU9InNlcnZlcl9ncmVlbi5zdmciIHg9IjBweCIgeT0iMHB4IiB2aWV3Qm94PSIwIDAgMzQuOTMgNTguOTEiIHN0eWxlPSJlbmFibGUtYmFja2dyb3VuZDpuZXcgMCAwIDM0LjkzIDU4LjkxOyIgeG1sOnNwYWNlPSJwcmVzZXJ2ZSI+JiN4YTs8c29kaXBvZGk6bmFtZWR2aWV3IGJvcmRlcmNvbG9yPSIjNjY2NjY2IiBib3JkZXJvcGFjaXR5PSIxIiBmaXQtbWFyZ2luLWJvdHRvbT0iMCIgZml0LW1hcmdpbi1sZWZ0PSIwIiBmaXQtbWFyZ2luLXJpZ2h0PSIwIiBmaXQtbWFyZ2luLXRvcD0iMCIgZ3JpZHRvbGVyYW5jZT0iMTAiIGd1aWRldG9sZXJhbmNlPSIxMCIgaWQ9Im5hbWVkdmlldzI0NTcwIiBpbmtzY2FwZTpjdXJyZW50LWxheWVyPSJzdmcyNDU2OCIgaW5rc2NhcGU6Y3g9IjIzLjI4OTk4NSIgaW5rc2NhcGU6Y3k9IjM5LjI3NDk3MyIgaW5rc2NhcGU6cGFnZW9wYWNpdHk9IjAiIGlua3NjYXBlOnBhZ2VzaGFkb3c9IjIiIGlua3NjYXBlOndpbmRvdy1oZWlnaHQ9IjEwMTciIGlua3NjYXBlOndpbmRvdy1tYXhpbWl6ZWQ9IjEiIGlua3NjYXBlOndpbmRvdy13aWR0aD0iMTkyMCIgaW5rc2NhcGU6d2luZG93LXg9Ii04IiBpbmtzY2FwZTp3aW5kb3cteT0iLTgiIGlua3NjYXBlOnpvb209IjEwLjc2MzUwOCIgb2JqZWN0dG9sZXJhbmNlPSIxMCIgcGFnZWNvbG9yPSIjZmZmZmZmIiBzaG93Z3JpZD0iZmFsc2UiPiYjeGE7CTwvc29kaXBvZGk6bmFtZWR2aWV3PiYjeGE7PGcgaWQ9ImcyNDU2NiIgdHJhbnNmb3JtPSJ0cmFuc2xhdGUoLTAuNzUwMDIzNTIsLTAuNzUpIj4mI3hhOwk8dGl0bGUgaWQ9InRpdGxlMjQ0OTYiPlBhZ2UtMTwvdGl0bGU+JiN4YTsJPGcgaWQ9Imdyb3VwNzU4MC0xIiB0cmFuc2Zvcm09InRyYW5zbGF0ZSgxLjUsLTEuNSkiPiYjeGE7CQk8dGl0bGUgaWQ9InRpdGxlMjQ0OTgiPlNlcnZlciAoR3JlZW4pPC90aXRsZT4mI3hhOwkJPGcgaWQ9InNoYXBlNzU4MS0yIj4mI3hhOwkJCTx0aXRsZSBpZD0idGl0bGUyNDUwMCI+cmVjdDgwMjA8L3RpdGxlPiYjeGE7CQkJJiN4YTsJCQkJPHJlY3QgaWQ9InJlY3QyNDUwMiIgeD0iMCIgeT0iMyIgc3R5bGU9ImZpbGw6I0ZGRkZGRjtzdHJva2U6IzU1NTU1NTtzdHJva2Utd2lkdGg6MS41O3N0cm9rZS1taXRlcmxpbWl0OjM7IiB3aWR0aD0iMzMuNDQiIGhlaWdodD0iNTcuNDEiLz4mI3hhOwkJPC9nPiYjeGE7CQk8ZyBpZD0ic2hhcGU3NTgyLTQiIHRyYW5zZm9ybT0idHJhbnNsYXRlKDE2LjQwMjUsLTAuNzcyNTAxKSI+JiN4YTsJCQk8dGl0bGUgaWQ9InRpdGxlMjQ1MDUiPnJlY3Q4MDIyPC90aXRsZT4mI3hhOwkJCTxyZWN0IGlkPSJyZWN0MjQ1MDciIHg9IjAiIHk9IjQuNTQiIHN0eWxlPSJmaWxsOiNGMkYyRjI7IiB3aWR0aD0iMTYuNCIgaGVpZ2h0PSI1NS44OCIvPiYjeGE7CQk8L2c+JiN4YTsJCTxnIGlkPSJzaGFwZTc1ODMtNiIgdHJhbnNmb3JtPSJ0cmFuc2xhdGUoMS4yNiwtNDEuMDEpIj4mI3hhOwkJCTx0aXRsZSBpZD0idGl0bGUyNDUxMCI+cmVjdDgwMjQ8L3RpdGxlPiYjeGE7CQkJPHJlY3QgaWQ9InJlY3QyNDUxMiIgeD0iMCIgeT0iNTguNTIiIHN0eWxlPSJmaWxsOiMzMTc1MkY7IiB3aWR0aD0iMTUuMTQiIGhlaWdodD0iMS44OSIvPiYjeGE7CQk8L2c+JiN4YTsJCTxnIGlkPSJzaGFwZTc1ODQtOCIgdHJhbnNmb3JtPSJ0cmFuc2xhdGUoMS4yNiwtNDkuODM3NSkiPiYjeGE7CQkJPHRpdGxlIGlkPSJ0aXRsZTI0NTE1Ij5wb2x5Z29uODAyNjwvdGl0bGU+JiN4YTsJCQk8cmVjdCBpZD0icmVjdDI0NTE3IiB4PSIwIiB5PSI1OC41MSIgc3R5bGU9ImZpbGw6bm9uZTsiIHdpZHRoPSIyMi43MSIgaGVpZ2h0PSIxLjkiLz4mI3hhOwkJPC9nPiYjeGE7CQk8ZyBpZD0ic2hhcGU3NTg1LTEwIiB0cmFuc2Zvcm09InRyYW5zbGF0ZSgxLjI2LC00OS44Mzc1KSI+JiN4YTsJCQk8dGl0bGUgaWQ9InRpdGxlMjQ1MjAiPnBvbHlsaW5lODAyODwvdGl0bGU+JiN4YTsJCQk8cmVjdCBpZD0icmVjdDI0NTIyIiB4PSIwIiB5PSI1OC41MSIgc3R5bGU9ImZpbGw6bm9uZTsiIHdpZHRoPSIyMi43MSIgaGVpZ2h0PSIxLjkiLz4mI3hhOwkJPC9nPiYjeGE7CQk8ZyBpZD0ic2hhcGU3NTg2LTEyIiB0cmFuc2Zvcm09InRyYW5zbGF0ZSgxLjI2LC00NS40Mjc1KSI+JiN4YTsJCQk8dGl0bGUgaWQ9InRpdGxlMjQ1MjUiPnJlY3Q4MDMwPC90aXRsZT4mI3hhOwkJCTxyZWN0IGlkPSJyZWN0MjQ1MjciIHg9IjAiIHk9IjU4LjUyIiBzdHlsZT0iZmlsbDojMzE3NTJGOyIgd2lkdGg9IjE1LjE0IiBoZWlnaHQ9IjEuODkiLz4mI3hhOwkJPC9nPiYjeGE7CQk8ZyBpZD0ic2hhcGU3NTg3LTE0IiB0cmFuc2Zvcm09InRyYW5zbGF0ZSgxLjI2LC00OS44NDUpIj4mI3hhOwkJCTx0aXRsZSBpZD0idGl0bGUyNDUzMCI+cmVjdDgwMzI8L3RpdGxlPiYjeGE7CQkJPHJlY3QgaWQ9InJlY3QyNDUzMiIgeD0iMCIgeT0iNTguNTIiIHN0eWxlPSJmaWxsOiMzMTc1MkY7IiB3aWR0aD0iMTUuMTQiIGhlaWdodD0iMS44OSIvPiYjeGE7CQk8L2c+JiN4YTsJCTxnIGlkPSJzaGFwZTc1ODgtMTYiIHRyYW5zZm9ybT0idHJhbnNsYXRlKDE2LjQwMjUsLTQxLjAxKSI+JiN4YTsJCQk8dGl0bGUgaWQ9InRpdGxlMjQ1MzUiPnJlY3Q4MDM0PC90aXRsZT4mI3hhOwkJCTxyZWN0IGlkPSJyZWN0MjQ1MzciIHg9IjAiIHk9IjU4LjUyIiBzdHlsZT0iZmlsbDojNTU1NTU1OyIgd2lkdGg9IjE2LjQiIGhlaWdodD0iMS44OSIvPiYjeGE7CQk8L2c+JiN4YTsJCTxnIGlkPSJzaGFwZTc1ODktMTgiIHRyYW5zZm9ybT0idHJhbnNsYXRlKDE2LjQwMjUsLTQ1LjQyNzUpIj4mI3hhOwkJCTx0aXRsZSBpZD0idGl0bGUyNDU0MCI+cmVjdDgwMzY8L3RpdGxlPiYjeGE7CQkJPHJlY3QgaWQ9InJlY3QyNDU0MiIgeD0iMCIgeT0iNTguNTIiIHN0eWxlPSJmaWxsOiM1NTU1NTU7IiB3aWR0aD0iMTYuNCIgaGVpZ2h0PSIxLjg5Ii8+JiN4YTsJCTwvZz4mI3hhOwkJPGcgaWQ9InNoYXBlNzU5MC0yMCIgdHJhbnNmb3JtPSJ0cmFuc2xhdGUoMTYuNDAyNSwtNDkuODQ1KSI+JiN4YTsJCQk8dGl0bGUgaWQ9InRpdGxlMjQ1NDUiPnJlY3Q4MDM4PC90aXRsZT4mI3hhOwkJCTxyZWN0IGlkPSJyZWN0MjQ1NDciIHg9IjAiIHk9IjU4LjUyIiBzdHlsZT0iZmlsbDojNTU1NTU1OyIgd2lkdGg9IjE2LjQiIGhlaWdodD0iMS44OSIvPiYjeGE7CQk8L2c+JiN4YTsJCTxnIGlkPSJzaGFwZTc1OTEtMjIiIHRyYW5zZm9ybT0idHJhbnNsYXRlKDAuNjMsLTQ5Ljg0NSkiPiYjeGE7CQkJPHRpdGxlIGlkPSJ0aXRsZTI0NTUwIj5yZWN0ODA0MDwvdGl0bGU+JiN4YTsJCQk8cmVjdCBpZD0icmVjdDI0NTUyIiB4PSIwIiB5PSI1OC41MiIgc3R5bGU9ImZpbGw6IzU1NTU1NTsiIHdpZHRoPSIxLjg5IiBoZWlnaHQ9IjEuODkiLz4mI3hhOwkJPC9nPiYjeGE7CQk8ZyBpZD0ic2hhcGU3NTkyLTI0IiB0cmFuc2Zvcm09InRyYW5zbGF0ZSgwLjYzLC00NS40Mjc1KSI+JiN4YTsJCQk8dGl0bGUgaWQ9InRpdGxlMjQ1NTUiPnJlY3Q4MDQyPC90aXRsZT4mI3hhOwkJCTxyZWN0IGlkPSJyZWN0MjQ1NTciIHg9IjAiIHk9IjU4LjUyIiBzdHlsZT0iZmlsbDojNTU1NTU1OyIgd2lkdGg9IjEuODkiIGhlaWdodD0iMS44OSIvPiYjeGE7CQk8L2c+JiN4YTsJCTxnIGlkPSJzaGFwZTc1OTMtMjYiIHRyYW5zZm9ybT0idHJhbnNsYXRlKDAuNjMsLTQxLjAxKSI+JiN4YTsJCQk8dGl0bGUgaWQ9InRpdGxlMjQ1NjAiPnJlY3Q4MDQ0PC90aXRsZT4mI3hhOwkJCTxyZWN0IGlkPSJyZWN0MjQ1NjIiIHg9IjAiIHk9IjU4LjUyIiBzdHlsZT0iZmlsbDojNTU1NTU1OyIgd2lkdGg9IjEuODkiIGhlaWdodD0iMS44OSIvPiYjeGE7CQk8L2c+JiN4YTsJPC9nPiYjeGE7PC9nPiYjeGE7PC9zdmc+;" vertex="1" parent="1">
          <mxGeometry x="760" y="80" width="160.17" height="270" as="geometry" />
        </mxCell>
        <mxCell id="e5oLFLb0LMOiWfZk1AVb-10" value="WESPROC05/be9" style="shape=image;verticalLabelPosition=bottom;labelBackgroundColor=#ffffff;verticalAlign=top;aspect=fixed;imageAspect=0;image=data:image/svg+xml,PHN2ZyB4bWxuczpjYz0iaHR0cDovL2NyZWF0aXZlY29tbW9ucy5vcmcvbnMjIiB4bWxuczpkYz0iaHR0cDovL3B1cmwub3JnL2RjL2VsZW1lbnRzLzEuMS8iIHhtbG5zOmlua3NjYXBlPSJodHRwOi8vd3d3Lmlua3NjYXBlLm9yZy9uYW1lc3BhY2VzL2lua3NjYXBlIiB4bWxuczpyZGY9Imh0dHA6Ly93d3cudzMub3JnLzE5OTkvMDIvMjItcmRmLXN5bnRheC1ucyMiIHhtbG5zOnNvZGlwb2RpPSJodHRwOi8vc29kaXBvZGkuc291cmNlZm9yZ2UubmV0L0RURC9zb2RpcG9kaS0wLmR0ZCIgeG1sbnM6c3ZnPSJodHRwOi8vd3d3LnczLm9yZy8yMDAwL3N2ZyIgeG1sbnM9Imh0dHA6Ly93d3cudzMub3JnLzIwMDAvc3ZnIiB4bWxuczp4bGluaz0iaHR0cDovL3d3dy53My5vcmcvMTk5OS94bGluayIgdmVyc2lvbj0iMS4xIiBpZD0ic3ZnMjQ1NjgiIGlua3NjYXBlOnZlcnNpb249IjAuOTIuMyAoMjQwNTU0NiwgMjAxOC0wMy0xMSkiIHNvZGlwb2RpOmRvY25hbWU9InNlcnZlcl9ncmVlbi5zdmciIHg9IjBweCIgeT0iMHB4IiB2aWV3Qm94PSIwIDAgMzQuOTMgNTguOTEiIHN0eWxlPSJlbmFibGUtYmFja2dyb3VuZDpuZXcgMCAwIDM0LjkzIDU4LjkxOyIgeG1sOnNwYWNlPSJwcmVzZXJ2ZSI+JiN4YTs8c29kaXBvZGk6bmFtZWR2aWV3IGJvcmRlcmNvbG9yPSIjNjY2NjY2IiBib3JkZXJvcGFjaXR5PSIxIiBmaXQtbWFyZ2luLWJvdHRvbT0iMCIgZml0LW1hcmdpbi1sZWZ0PSIwIiBmaXQtbWFyZ2luLXJpZ2h0PSIwIiBmaXQtbWFyZ2luLXRvcD0iMCIgZ3JpZHRvbGVyYW5jZT0iMTAiIGd1aWRldG9sZXJhbmNlPSIxMCIgaWQ9Im5hbWVkdmlldzI0NTcwIiBpbmtzY2FwZTpjdXJyZW50LWxheWVyPSJzdmcyNDU2OCIgaW5rc2NhcGU6Y3g9IjIzLjI4OTk4NSIgaW5rc2NhcGU6Y3k9IjM5LjI3NDk3MyIgaW5rc2NhcGU6cGFnZW9wYWNpdHk9IjAiIGlua3NjYXBlOnBhZ2VzaGFkb3c9IjIiIGlua3NjYXBlOndpbmRvdy1oZWlnaHQ9IjEwMTciIGlua3NjYXBlOndpbmRvdy1tYXhpbWl6ZWQ9IjEiIGlua3NjYXBlOndpbmRvdy13aWR0aD0iMTkyMCIgaW5rc2NhcGU6d2luZG93LXg9Ii04IiBpbmtzY2FwZTp3aW5kb3cteT0iLTgiIGlua3NjYXBlOnpvb209IjEwLjc2MzUwOCIgb2JqZWN0dG9sZXJhbmNlPSIxMCIgcGFnZWNvbG9yPSIjZmZmZmZmIiBzaG93Z3JpZD0iZmFsc2UiPiYjeGE7CTwvc29kaXBvZGk6bmFtZWR2aWV3PiYjeGE7PGcgaWQ9ImcyNDU2NiIgdHJhbnNmb3JtPSJ0cmFuc2xhdGUoLTAuNzUwMDIzNTIsLTAuNzUpIj4mI3hhOwk8dGl0bGUgaWQ9InRpdGxlMjQ0OTYiPlBhZ2UtMTwvdGl0bGU+JiN4YTsJPGcgaWQ9Imdyb3VwNzU4MC0xIiB0cmFuc2Zvcm09InRyYW5zbGF0ZSgxLjUsLTEuNSkiPiYjeGE7CQk8dGl0bGUgaWQ9InRpdGxlMjQ0OTgiPlNlcnZlciAoR3JlZW4pPC90aXRsZT4mI3hhOwkJPGcgaWQ9InNoYXBlNzU4MS0yIj4mI3hhOwkJCTx0aXRsZSBpZD0idGl0bGUyNDUwMCI+cmVjdDgwMjA8L3RpdGxlPiYjeGE7CQkJJiN4YTsJCQkJPHJlY3QgaWQ9InJlY3QyNDUwMiIgeD0iMCIgeT0iMyIgc3R5bGU9ImZpbGw6I0ZGRkZGRjtzdHJva2U6IzU1NTU1NTtzdHJva2Utd2lkdGg6MS41O3N0cm9rZS1taXRlcmxpbWl0OjM7IiB3aWR0aD0iMzMuNDQiIGhlaWdodD0iNTcuNDEiLz4mI3hhOwkJPC9nPiYjeGE7CQk8ZyBpZD0ic2hhcGU3NTgyLTQiIHRyYW5zZm9ybT0idHJhbnNsYXRlKDE2LjQwMjUsLTAuNzcyNTAxKSI+JiN4YTsJCQk8dGl0bGUgaWQ9InRpdGxlMjQ1MDUiPnJlY3Q4MDIyPC90aXRsZT4mI3hhOwkJCTxyZWN0IGlkPSJyZWN0MjQ1MDciIHg9IjAiIHk9IjQuNTQiIHN0eWxlPSJmaWxsOiNGMkYyRjI7IiB3aWR0aD0iMTYuNCIgaGVpZ2h0PSI1NS44OCIvPiYjeGE7CQk8L2c+JiN4YTsJCTxnIGlkPSJzaGFwZTc1ODMtNiIgdHJhbnNmb3JtPSJ0cmFuc2xhdGUoMS4yNiwtNDEuMDEpIj4mI3hhOwkJCTx0aXRsZSBpZD0idGl0bGUyNDUxMCI+cmVjdDgwMjQ8L3RpdGxlPiYjeGE7CQkJPHJlY3QgaWQ9InJlY3QyNDUxMiIgeD0iMCIgeT0iNTguNTIiIHN0eWxlPSJmaWxsOiMzMTc1MkY7IiB3aWR0aD0iMTUuMTQiIGhlaWdodD0iMS44OSIvPiYjeGE7CQk8L2c+JiN4YTsJCTxnIGlkPSJzaGFwZTc1ODQtOCIgdHJhbnNmb3JtPSJ0cmFuc2xhdGUoMS4yNiwtNDkuODM3NSkiPiYjeGE7CQkJPHRpdGxlIGlkPSJ0aXRsZTI0NTE1Ij5wb2x5Z29uODAyNjwvdGl0bGU+JiN4YTsJCQk8cmVjdCBpZD0icmVjdDI0NTE3IiB4PSIwIiB5PSI1OC41MSIgc3R5bGU9ImZpbGw6bm9uZTsiIHdpZHRoPSIyMi43MSIgaGVpZ2h0PSIxLjkiLz4mI3hhOwkJPC9nPiYjeGE7CQk8ZyBpZD0ic2hhcGU3NTg1LTEwIiB0cmFuc2Zvcm09InRyYW5zbGF0ZSgxLjI2LC00OS44Mzc1KSI+JiN4YTsJCQk8dGl0bGUgaWQ9InRpdGxlMjQ1MjAiPnBvbHlsaW5lODAyODwvdGl0bGU+JiN4YTsJCQk8cmVjdCBpZD0icmVjdDI0NTIyIiB4PSIwIiB5PSI1OC41MSIgc3R5bGU9ImZpbGw6bm9uZTsiIHdpZHRoPSIyMi43MSIgaGVpZ2h0PSIxLjkiLz4mI3hhOwkJPC9nPiYjeGE7CQk8ZyBpZD0ic2hhcGU3NTg2LTEyIiB0cmFuc2Zvcm09InRyYW5zbGF0ZSgxLjI2LC00NS40Mjc1KSI+JiN4YTsJCQk8dGl0bGUgaWQ9InRpdGxlMjQ1MjUiPnJlY3Q4MDMwPC90aXRsZT4mI3hhOwkJCTxyZWN0IGlkPSJyZWN0MjQ1MjciIHg9IjAiIHk9IjU4LjUyIiBzdHlsZT0iZmlsbDojMzE3NTJGOyIgd2lkdGg9IjE1LjE0IiBoZWlnaHQ9IjEuODkiLz4mI3hhOwkJPC9nPiYjeGE7CQk8ZyBpZD0ic2hhcGU3NTg3LTE0IiB0cmFuc2Zvcm09InRyYW5zbGF0ZSgxLjI2LC00OS44NDUpIj4mI3hhOwkJCTx0aXRsZSBpZD0idGl0bGUyNDUzMCI+cmVjdDgwMzI8L3RpdGxlPiYjeGE7CQkJPHJlY3QgaWQ9InJlY3QyNDUzMiIgeD0iMCIgeT0iNTguNTIiIHN0eWxlPSJmaWxsOiMzMTc1MkY7IiB3aWR0aD0iMTUuMTQiIGhlaWdodD0iMS44OSIvPiYjeGE7CQk8L2c+JiN4YTsJCTxnIGlkPSJzaGFwZTc1ODgtMTYiIHRyYW5zZm9ybT0idHJhbnNsYXRlKDE2LjQwMjUsLTQxLjAxKSI+JiN4YTsJCQk8dGl0bGUgaWQ9InRpdGxlMjQ1MzUiPnJlY3Q4MDM0PC90aXRsZT4mI3hhOwkJCTxyZWN0IGlkPSJyZWN0MjQ1MzciIHg9IjAiIHk9IjU4LjUyIiBzdHlsZT0iZmlsbDojNTU1NTU1OyIgd2lkdGg9IjE2LjQiIGhlaWdodD0iMS44OSIvPiYjeGE7CQk8L2c+JiN4YTsJCTxnIGlkPSJzaGFwZTc1ODktMTgiIHRyYW5zZm9ybT0idHJhbnNsYXRlKDE2LjQwMjUsLTQ1LjQyNzUpIj4mI3hhOwkJCTx0aXRsZSBpZD0idGl0bGUyNDU0MCI+cmVjdDgwMzY8L3RpdGxlPiYjeGE7CQkJPHJlY3QgaWQ9InJlY3QyNDU0MiIgeD0iMCIgeT0iNTguNTIiIHN0eWxlPSJmaWxsOiM1NTU1NTU7IiB3aWR0aD0iMTYuNCIgaGVpZ2h0PSIxLjg5Ii8+JiN4YTsJCTwvZz4mI3hhOwkJPGcgaWQ9InNoYXBlNzU5MC0yMCIgdHJhbnNmb3JtPSJ0cmFuc2xhdGUoMTYuNDAyNSwtNDkuODQ1KSI+JiN4YTsJCQk8dGl0bGUgaWQ9InRpdGxlMjQ1NDUiPnJlY3Q4MDM4PC90aXRsZT4mI3hhOwkJCTxyZWN0IGlkPSJyZWN0MjQ1NDciIHg9IjAiIHk9IjU4LjUyIiBzdHlsZT0iZmlsbDojNTU1NTU1OyIgd2lkdGg9IjE2LjQiIGhlaWdodD0iMS44OSIvPiYjeGE7CQk8L2c+JiN4YTsJCTxnIGlkPSJzaGFwZTc1OTEtMjIiIHRyYW5zZm9ybT0idHJhbnNsYXRlKDAuNjMsLTQ5Ljg0NSkiPiYjeGE7CQkJPHRpdGxlIGlkPSJ0aXRsZTI0NTUwIj5yZWN0ODA0MDwvdGl0bGU+JiN4YTsJCQk8cmVjdCBpZD0icmVjdDI0NTUyIiB4PSIwIiB5PSI1OC41MiIgc3R5bGU9ImZpbGw6IzU1NTU1NTsiIHdpZHRoPSIxLjg5IiBoZWlnaHQ9IjEuODkiLz4mI3hhOwkJPC9nPiYjeGE7CQk8ZyBpZD0ic2hhcGU3NTkyLTI0IiB0cmFuc2Zvcm09InRyYW5zbGF0ZSgwLjYzLC00NS40Mjc1KSI+JiN4YTsJCQk8dGl0bGUgaWQ9InRpdGxlMjQ1NTUiPnJlY3Q4MDQyPC90aXRsZT4mI3hhOwkJCTxyZWN0IGlkPSJyZWN0MjQ1NTciIHg9IjAiIHk9IjU4LjUyIiBzdHlsZT0iZmlsbDojNTU1NTU1OyIgd2lkdGg9IjEuODkiIGhlaWdodD0iMS44OSIvPiYjeGE7CQk8L2c+JiN4YTsJCTxnIGlkPSJzaGFwZTc1OTMtMjYiIHRyYW5zZm9ybT0idHJhbnNsYXRlKDAuNjMsLTQxLjAxKSI+JiN4YTsJCQk8dGl0bGUgaWQ9InRpdGxlMjQ1NjAiPnJlY3Q4MDQ0PC90aXRsZT4mI3hhOwkJCTxyZWN0IGlkPSJyZWN0MjQ1NjIiIHg9IjAiIHk9IjU4LjUyIiBzdHlsZT0iZmlsbDojNTU1NTU1OyIgd2lkdGg9IjEuODkiIGhlaWdodD0iMS44OSIvPiYjeGE7CQk8L2c+JiN4YTsJPC9nPiYjeGE7PC9nPiYjeGE7PC9zdmc+;" vertex="1" parent="1">
          <mxGeometry x="950" y="80" width="160.17" height="270" as="geometry" />
        </mxCell>
        <mxCell id="e5oLFLb0LMOiWfZk1AVb-14" value="SNMPPROC01/be5" style="shape=image;verticalLabelPosition=bottom;labelBackgroundColor=#ffffff;verticalAlign=top;aspect=fixed;imageAspect=0;image=data:image/svg+xml,PHN2ZyB4bWxuczpjYz0iaHR0cDovL2NyZWF0aXZlY29tbW9ucy5vcmcvbnMjIiB4bWxuczpkYz0iaHR0cDovL3B1cmwub3JnL2RjL2VsZW1lbnRzLzEuMS8iIHhtbG5zOmlua3NjYXBlPSJodHRwOi8vd3d3Lmlua3NjYXBlLm9yZy9uYW1lc3BhY2VzL2lua3NjYXBlIiB4bWxuczpyZGY9Imh0dHA6Ly93d3cudzMub3JnLzE5OTkvMDIvMjItcmRmLXN5bnRheC1ucyMiIHhtbG5zOnNvZGlwb2RpPSJodHRwOi8vc29kaXBvZGkuc291cmNlZm9yZ2UubmV0L0RURC9zb2RpcG9kaS0wLmR0ZCIgeG1sbnM6c3ZnPSJodHRwOi8vd3d3LnczLm9yZy8yMDAwL3N2ZyIgeG1sbnM9Imh0dHA6Ly93d3cudzMub3JnLzIwMDAvc3ZnIiB4bWxuczp4bGluaz0iaHR0cDovL3d3dy53My5vcmcvMTk5OS94bGluayIgdmVyc2lvbj0iMS4xIiBpZD0ic3ZnMjQ1NjgiIGlua3NjYXBlOnZlcnNpb249IjAuOTIuMyAoMjQwNTU0NiwgMjAxOC0wMy0xMSkiIHNvZGlwb2RpOmRvY25hbWU9InNlcnZlcl9ncmVlbi5zdmciIHg9IjBweCIgeT0iMHB4IiB2aWV3Qm94PSIwIDAgMzQuOTMgNTguOTEiIHN0eWxlPSJlbmFibGUtYmFja2dyb3VuZDpuZXcgMCAwIDM0LjkzIDU4LjkxOyIgeG1sOnNwYWNlPSJwcmVzZXJ2ZSI+JiN4YTs8c29kaXBvZGk6bmFtZWR2aWV3IGJvcmRlcmNvbG9yPSIjNjY2NjY2IiBib3JkZXJvcGFjaXR5PSIxIiBmaXQtbWFyZ2luLWJvdHRvbT0iMCIgZml0LW1hcmdpbi1sZWZ0PSIwIiBmaXQtbWFyZ2luLXJpZ2h0PSIwIiBmaXQtbWFyZ2luLXRvcD0iMCIgZ3JpZHRvbGVyYW5jZT0iMTAiIGd1aWRldG9sZXJhbmNlPSIxMCIgaWQ9Im5hbWVkdmlldzI0NTcwIiBpbmtzY2FwZTpjdXJyZW50LWxheWVyPSJzdmcyNDU2OCIgaW5rc2NhcGU6Y3g9IjIzLjI4OTk4NSIgaW5rc2NhcGU6Y3k9IjM5LjI3NDk3MyIgaW5rc2NhcGU6cGFnZW9wYWNpdHk9IjAiIGlua3NjYXBlOnBhZ2VzaGFkb3c9IjIiIGlua3NjYXBlOndpbmRvdy1oZWlnaHQ9IjEwMTciIGlua3NjYXBlOndpbmRvdy1tYXhpbWl6ZWQ9IjEiIGlua3NjYXBlOndpbmRvdy13aWR0aD0iMTkyMCIgaW5rc2NhcGU6d2luZG93LXg9Ii04IiBpbmtzY2FwZTp3aW5kb3cteT0iLTgiIGlua3NjYXBlOnpvb209IjEwLjc2MzUwOCIgb2JqZWN0dG9sZXJhbmNlPSIxMCIgcGFnZWNvbG9yPSIjZmZmZmZmIiBzaG93Z3JpZD0iZmFsc2UiPiYjeGE7CTwvc29kaXBvZGk6bmFtZWR2aWV3PiYjeGE7PGcgaWQ9ImcyNDU2NiIgdHJhbnNmb3JtPSJ0cmFuc2xhdGUoLTAuNzUwMDIzNTIsLTAuNzUpIj4mI3hhOwk8dGl0bGUgaWQ9InRpdGxlMjQ0OTYiPlBhZ2UtMTwvdGl0bGU+JiN4YTsJPGcgaWQ9Imdyb3VwNzU4MC0xIiB0cmFuc2Zvcm09InRyYW5zbGF0ZSgxLjUsLTEuNSkiPiYjeGE7CQk8dGl0bGUgaWQ9InRpdGxlMjQ0OTgiPlNlcnZlciAoR3JlZW4pPC90aXRsZT4mI3hhOwkJPGcgaWQ9InNoYXBlNzU4MS0yIj4mI3hhOwkJCTx0aXRsZSBpZD0idGl0bGUyNDUwMCI+cmVjdDgwMjA8L3RpdGxlPiYjeGE7CQkJJiN4YTsJCQkJPHJlY3QgaWQ9InJlY3QyNDUwMiIgeD0iMCIgeT0iMyIgc3R5bGU9ImZpbGw6I0ZGRkZGRjtzdHJva2U6IzU1NTU1NTtzdHJva2Utd2lkdGg6MS41O3N0cm9rZS1taXRlcmxpbWl0OjM7IiB3aWR0aD0iMzMuNDQiIGhlaWdodD0iNTcuNDEiLz4mI3hhOwkJPC9nPiYjeGE7CQk8ZyBpZD0ic2hhcGU3NTgyLTQiIHRyYW5zZm9ybT0idHJhbnNsYXRlKDE2LjQwMjUsLTAuNzcyNTAxKSI+JiN4YTsJCQk8dGl0bGUgaWQ9InRpdGxlMjQ1MDUiPnJlY3Q4MDIyPC90aXRsZT4mI3hhOwkJCTxyZWN0IGlkPSJyZWN0MjQ1MDciIHg9IjAiIHk9IjQuNTQiIHN0eWxlPSJmaWxsOiNGMkYyRjI7IiB3aWR0aD0iMTYuNCIgaGVpZ2h0PSI1NS44OCIvPiYjeGE7CQk8L2c+JiN4YTsJCTxnIGlkPSJzaGFwZTc1ODMtNiIgdHJhbnNmb3JtPSJ0cmFuc2xhdGUoMS4yNiwtNDEuMDEpIj4mI3hhOwkJCTx0aXRsZSBpZD0idGl0bGUyNDUxMCI+cmVjdDgwMjQ8L3RpdGxlPiYjeGE7CQkJPHJlY3QgaWQ9InJlY3QyNDUxMiIgeD0iMCIgeT0iNTguNTIiIHN0eWxlPSJmaWxsOiMzMTc1MkY7IiB3aWR0aD0iMTUuMTQiIGhlaWdodD0iMS44OSIvPiYjeGE7CQk8L2c+JiN4YTsJCTxnIGlkPSJzaGFwZTc1ODQtOCIgdHJhbnNmb3JtPSJ0cmFuc2xhdGUoMS4yNiwtNDkuODM3NSkiPiYjeGE7CQkJPHRpdGxlIGlkPSJ0aXRsZTI0NTE1Ij5wb2x5Z29uODAyNjwvdGl0bGU+JiN4YTsJCQk8cmVjdCBpZD0icmVjdDI0NTE3IiB4PSIwIiB5PSI1OC41MSIgc3R5bGU9ImZpbGw6bm9uZTsiIHdpZHRoPSIyMi43MSIgaGVpZ2h0PSIxLjkiLz4mI3hhOwkJPC9nPiYjeGE7CQk8ZyBpZD0ic2hhcGU3NTg1LTEwIiB0cmFuc2Zvcm09InRyYW5zbGF0ZSgxLjI2LC00OS44Mzc1KSI+JiN4YTsJCQk8dGl0bGUgaWQ9InRpdGxlMjQ1MjAiPnBvbHlsaW5lODAyODwvdGl0bGU+JiN4YTsJCQk8cmVjdCBpZD0icmVjdDI0NTIyIiB4PSIwIiB5PSI1OC41MSIgc3R5bGU9ImZpbGw6bm9uZTsiIHdpZHRoPSIyMi43MSIgaGVpZ2h0PSIxLjkiLz4mI3hhOwkJPC9nPiYjeGE7CQk8ZyBpZD0ic2hhcGU3NTg2LTEyIiB0cmFuc2Zvcm09InRyYW5zbGF0ZSgxLjI2LC00NS40Mjc1KSI+JiN4YTsJCQk8dGl0bGUgaWQ9InRpdGxlMjQ1MjUiPnJlY3Q4MDMwPC90aXRsZT4mI3hhOwkJCTxyZWN0IGlkPSJyZWN0MjQ1MjciIHg9IjAiIHk9IjU4LjUyIiBzdHlsZT0iZmlsbDojMzE3NTJGOyIgd2lkdGg9IjE1LjE0IiBoZWlnaHQ9IjEuODkiLz4mI3hhOwkJPC9nPiYjeGE7CQk8ZyBpZD0ic2hhcGU3NTg3LTE0IiB0cmFuc2Zvcm09InRyYW5zbGF0ZSgxLjI2LC00OS44NDUpIj4mI3hhOwkJCTx0aXRsZSBpZD0idGl0bGUyNDUzMCI+cmVjdDgwMzI8L3RpdGxlPiYjeGE7CQkJPHJlY3QgaWQ9InJlY3QyNDUzMiIgeD0iMCIgeT0iNTguNTIiIHN0eWxlPSJmaWxsOiMzMTc1MkY7IiB3aWR0aD0iMTUuMTQiIGhlaWdodD0iMS44OSIvPiYjeGE7CQk8L2c+JiN4YTsJCTxnIGlkPSJzaGFwZTc1ODgtMTYiIHRyYW5zZm9ybT0idHJhbnNsYXRlKDE2LjQwMjUsLTQxLjAxKSI+JiN4YTsJCQk8dGl0bGUgaWQ9InRpdGxlMjQ1MzUiPnJlY3Q4MDM0PC90aXRsZT4mI3hhOwkJCTxyZWN0IGlkPSJyZWN0MjQ1MzciIHg9IjAiIHk9IjU4LjUyIiBzdHlsZT0iZmlsbDojNTU1NTU1OyIgd2lkdGg9IjE2LjQiIGhlaWdodD0iMS44OSIvPiYjeGE7CQk8L2c+JiN4YTsJCTxnIGlkPSJzaGFwZTc1ODktMTgiIHRyYW5zZm9ybT0idHJhbnNsYXRlKDE2LjQwMjUsLTQ1LjQyNzUpIj4mI3hhOwkJCTx0aXRsZSBpZD0idGl0bGUyNDU0MCI+cmVjdDgwMzY8L3RpdGxlPiYjeGE7CQkJPHJlY3QgaWQ9InJlY3QyNDU0MiIgeD0iMCIgeT0iNTguNTIiIHN0eWxlPSJmaWxsOiM1NTU1NTU7IiB3aWR0aD0iMTYuNCIgaGVpZ2h0PSIxLjg5Ii8+JiN4YTsJCTwvZz4mI3hhOwkJPGcgaWQ9InNoYXBlNzU5MC0yMCIgdHJhbnNmb3JtPSJ0cmFuc2xhdGUoMTYuNDAyNSwtNDkuODQ1KSI+JiN4YTsJCQk8dGl0bGUgaWQ9InRpdGxlMjQ1NDUiPnJlY3Q4MDM4PC90aXRsZT4mI3hhOwkJCTxyZWN0IGlkPSJyZWN0MjQ1NDciIHg9IjAiIHk9IjU4LjUyIiBzdHlsZT0iZmlsbDojNTU1NTU1OyIgd2lkdGg9IjE2LjQiIGhlaWdodD0iMS44OSIvPiYjeGE7CQk8L2c+JiN4YTsJCTxnIGlkPSJzaGFwZTc1OTEtMjIiIHRyYW5zZm9ybT0idHJhbnNsYXRlKDAuNjMsLTQ5Ljg0NSkiPiYjeGE7CQkJPHRpdGxlIGlkPSJ0aXRsZTI0NTUwIj5yZWN0ODA0MDwvdGl0bGU+JiN4YTsJCQk8cmVjdCBpZD0icmVjdDI0NTUyIiB4PSIwIiB5PSI1OC41MiIgc3R5bGU9ImZpbGw6IzU1NTU1NTsiIHdpZHRoPSIxLjg5IiBoZWlnaHQ9IjEuODkiLz4mI3hhOwkJPC9nPiYjeGE7CQk8ZyBpZD0ic2hhcGU3NTkyLTI0IiB0cmFuc2Zvcm09InRyYW5zbGF0ZSgwLjYzLC00NS40Mjc1KSI+JiN4YTsJCQk8dGl0bGUgaWQ9InRpdGxlMjQ1NTUiPnJlY3Q4MDQyPC90aXRsZT4mI3hhOwkJCTxyZWN0IGlkPSJyZWN0MjQ1NTciIHg9IjAiIHk9IjU4LjUyIiBzdHlsZT0iZmlsbDojNTU1NTU1OyIgd2lkdGg9IjEuODkiIGhlaWdodD0iMS44OSIvPiYjeGE7CQk8L2c+JiN4YTsJCTxnIGlkPSJzaGFwZTc1OTMtMjYiIHRyYW5zZm9ybT0idHJhbnNsYXRlKDAuNjMsLTQxLjAxKSI+JiN4YTsJCQk8dGl0bGUgaWQ9InRpdGxlMjQ1NjAiPnJlY3Q4MDQ0PC90aXRsZT4mI3hhOwkJCTxyZWN0IGlkPSJyZWN0MjQ1NjIiIHg9IjAiIHk9IjU4LjUyIiBzdHlsZT0iZmlsbDojNTU1NTU1OyIgd2lkdGg9IjEuODkiIGhlaWdodD0iMS44OSIvPiYjeGE7CQk8L2c+JiN4YTsJPC9nPiYjeGE7PC9nPiYjeGE7PC9zdmc+;" vertex="1" parent="1">
          <mxGeometry x="190" y="80" width="160.17" height="270" as="geometry" />
        </mxCell>
        <mxCell id="e5oLFLb0LMOiWfZk1AVb-13" value="" style="rounded=1;whiteSpace=wrap;html=1;fillColor=#d5e8d4;dashed=1;strokeColor=#82b366;opacity=50;" vertex="1" parent="1">
          <mxGeometry x="10" y="187" width="920" height="60" as="geometry" />
        </mxCell>
        <mxCell id="e5oLFLb0LMOiWfZk1AVb-1" value="" style="shape=image;verticalLabelPosition=bottom;labelBackgroundColor=#ffffff;verticalAlign=top;aspect=fixed;imageAspect=0;image=data:image/svg+xml,PHN2ZyB4bWxuczpjYz0iaHR0cDovL2NyZWF0aXZlY29tbW9ucy5vcmcvbnMjIiB4bWxuczpkYz0iaHR0cDovL3B1cmwub3JnL2RjL2VsZW1lbnRzLzEuMS8iIHhtbG5zOmlua3NjYXBlPSJodHRwOi8vd3d3Lmlua3NjYXBlLm9yZy9uYW1lc3BhY2VzL2lua3NjYXBlIiB4bWxuczpyZGY9Imh0dHA6Ly93d3cudzMub3JnLzE5OTkvMDIvMjItcmRmLXN5bnRheC1ucyMiIHhtbG5zOnNvZGlwb2RpPSJodHRwOi8vc29kaXBvZGkuc291cmNlZm9yZ2UubmV0L0RURC9zb2RpcG9kaS0wLmR0ZCIgeG1sbnM6c3ZnPSJodHRwOi8vd3d3LnczLm9yZy8yMDAwL3N2ZyIgeG1sbnM9Imh0dHA6Ly93d3cudzMub3JnLzIwMDAvc3ZnIiB4bWxuczp4bGluaz0iaHR0cDovL3d3dy53My5vcmcvMTk5OS94bGluayIgdmVyc2lvbj0iMS4xIiBpZD0ic3ZnMTAxMjg5IiBpbmtzY2FwZTp2ZXJzaW9uPSIwLjkyLjMgKDI0MDU1NDYsIDIwMTgtMDMtMTEpIiBzb2RpcG9kaTpkb2NuYW1lPSJtb25nb2RiLnN2ZyIgeD0iMHB4IiB5PSIwcHgiIHZpZXdCb3g9IjAgMCAxMDEuMjggNjQuNDYiIHN0eWxlPSJlbmFibGUtYmFja2dyb3VuZDpuZXcgMCAwIDEwMS4yOCA2NC40NjsiIHhtbDpzcGFjZT0icHJlc2VydmUiPiYjeGE7PHNvZGlwb2RpOm5hbWVkdmlldyBib3JkZXJjb2xvcj0iIzY2NjY2NiIgYm9yZGVyb3BhY2l0eT0iMSIgZml0LW1hcmdpbi1ib3R0b209IjAiIGZpdC1tYXJnaW4tbGVmdD0iMCIgZml0LW1hcmdpbi1yaWdodD0iMCIgZml0LW1hcmdpbi10b3A9IjAiIGdyaWR0b2xlcmFuY2U9IjEwIiBndWlkZXRvbGVyYW5jZT0iMTAiIGlkPSJuYW1lZHZpZXcxMDEyOTEiIGlua3NjYXBlOmN1cnJlbnQtbGF5ZXI9InN2ZzEwMTI4OSIgaW5rc2NhcGU6Y3g9IjY3LjUyMzY1MyIgaW5rc2NhcGU6Y3k9IjQzLjE3NTI0NCIgaW5rc2NhcGU6cGFnZW9wYWNpdHk9IjAiIGlua3NjYXBlOnBhZ2VzaGFkb3c9IjIiIGlua3NjYXBlOndpbmRvdy1oZWlnaHQ9IjEwMTciIGlua3NjYXBlOndpbmRvdy1tYXhpbWl6ZWQ9IjEiIGlua3NjYXBlOndpbmRvdy13aWR0aD0iMTkyMCIgaW5rc2NhcGU6d2luZG93LXg9Ii04IiBpbmtzY2FwZTp3aW5kb3cteT0iLTgiIGlua3NjYXBlOnpvb209IjkuODQ1NDgxNCIgb2JqZWN0dG9sZXJhbmNlPSIxMCIgcGFnZWNvbG9yPSIjZmZmZmZmIiBzaG93Z3JpZD0iZmFsc2UiPiYjeGE7CTwvc29kaXBvZGk6bmFtZWR2aWV3PiYjeGE7PGcgaWQ9ImcxMDEyODciIHRyYW5zZm9ybT0idHJhbnNsYXRlKC0wLjY0NTM3OTIxLC0wLjk0MzY1ODU5KSI+JiN4YTsJPHRpdGxlIGlkPSJ0aXRsZTEwMTIxNyI+UGFnZS0xPC90aXRsZT4mI3hhOwk8ZyBpZD0iZ3JvdXAzOTM5LTEiIHRyYW5zZm9ybT0idHJhbnNsYXRlKDAuNTc1NTk0LC0wLjU4MDQ2NikiPiYjeGE7CQk8dGl0bGUgaWQ9InRpdGxlMTAxMjE5Ij5Nb25nb0RCPC90aXRsZT4mI3hhOwkJPGcgaWQ9Imdyb3VwMzk0MC0yIj4mI3hhOwkJCTx0aXRsZSBpZD0idGl0bGUxMDEyMjEiPkxheWVyIDE8L3RpdGxlPiYjeGE7CQkJPGcgaWQ9Imdyb3VwMzk0MS0zIj4mI3hhOwkJCQk8dGl0bGUgaWQ9InRpdGxlMTAxMjIzIj5zdmdfMTwvdGl0bGU+JiN4YTsJCQkJPGcgaWQ9Imdyb3VwMzk0Mi00IiB0cmFuc2Zvcm09InRyYW5zbGF0ZSgzOS4zOTksLTIwLjUxMTUpIj4mI3hhOwkJCQkJPHRpdGxlIGlkPSJ0aXRsZTEwMTIyNSI+Zzg2MjwvdGl0bGU+JiN4YTsJCQkJCTxnIGlkPSJzaGFwZTM5NDMtNSIgdHJhbnNmb3JtPSJ0cmFuc2xhdGUoOS43MDgzNywtNS44MDEwNykiPiYjeGE7CQkJCQkJPHRpdGxlIGlkPSJ0aXRsZTEwMTIyNyI+cGF0aDI8L3RpdGxlPiYjeGE7CQkJCQkJPHBhdGggaWQ9InBhdGgxMDEyMjkiIGlua3NjYXBlOmNvbm5lY3Rvci1jdXJ2YXR1cmU9IjAiIHN0eWxlPSJmaWxsOiM1OTk2MzY7IiBkPSJNMC4xNCwyNy45NmMwLjM0LDAuNjIsMC43OSwxLjYsMS4xOCwyLjIgICAgICAgIGMwLjI2LDAuNDEsMC41NSwwLjc3LDAuODksMS4xYzAuOTgsMC45OSwxLjkxLDIuMDIsMi43NSwzLjEyYzEuOTksMi42MSwzLjMzLDUuNTEsNC4yOSw4LjY1YzAuNTgsMS45MiwwLjg5LDMuODksMC45MSw1Ljg4ICAgICAgICBjMC4xLDUuOTQtMS45NCwxMS4wNS02LjA2LDE1LjI5Yy0wLjY3LDAuNjctMS4zOSwxLjI5LTIuMTYsMS44NWMtMC40MSwwLTAuNi0wLjMyLTAuNzctMC42Yy0wLjMxLTAuNTMtMC41LTEuMTMtMC41OS0xLjczICAgICAgICBjLTAuMTUtMC43Mi0wLjI0LTEuNDQtMC4yLTIuMThjMC0wLjEyLDAtMC4yMiwwLTAuMzRDMC4zNiw2MS4xMywwLDI4LjEyLDAuMTQsMjcuOTZ6Ii8+JiN4YTsJCQkJCTwvZz4mI3hhOwkJCQkJPGcgaWQ9InNoYXBlMzk0NC03IiB0cmFuc2Zvcm09InRyYW5zbGF0ZSgwLC01LjM5MzU3KSI+JiN4YTsJCQkJCQk8dGl0bGUgaWQ9InRpdGxlMTAxMjMyIj5wYXRoODwvdGl0bGU+JiN4YTsJCQkJCQk8cGF0aCBpZD0icGF0aDEwMTIzNCIgaW5rc2NhcGU6Y29ubmVjdG9yLWN1cnZhdHVyZT0iMCIgc3R5bGU9ImZpbGw6IzZDQUM0ODsiIGQ9Ik05Ljg1LDI3LjQ4Yy0wLjA1LTAuMS0wLjA5LTAuMDMtMC4xNCwwLjAyICAgICAgICBjMC4wMiwwLjQ4LTAuMTUsMC45MS0wLjQxLDEuMzJjLTAuMjksMC40MS0wLjY3LDAuNzItMS4wNSwxLjA1Yy0yLjE0LDEuODUtMy44Miw0LjA4LTUuMTYsNi41NyAgICAgICAgYy0xLjc3LDMuMzYtMi43MSw2Ljk1LTIuOTcsMTAuNzRDMCw0OC41NSwwLjU1LDUzLjM2LDAuOTgsNTQuNzZjMS4xOCwzLjY5LDMuMjksNi43OCw2LjAyLDkuNDYgICAgICAgIGMwLjY3LDAuNjUsMS4zOSwxLjI1LDIuMTMsMS44M2MwLjIyLDAsMC4yNC0wLjIsMC4yOS0wLjM0YzAuMS0wLjMxLDAuMTctMC42MiwwLjIyLTAuOTNjMC4yMS0xLjIsMC4zMy0yLjQsMC40OC0zLjYgICAgICAgIEMxMC4xMiw2MS4wNCw5LjkyLDI3LjYsOS44NSwyNy40OHoiLz4mI3hhOwkJCQkJPC9nPiYjeGE7CQkJCQk8ZyBpZD0ic2hhcGUzOTQ1LTkiIHRyYW5zZm9ybT0idHJhbnNsYXRlKDkuMTMzMDcpIj4mI3hhOwkJCQkJCTx0aXRsZSBpZD0idGl0bGUxMDEyMzciPnBhdGgxMDwvdGl0bGU+JiN4YTsJCQkJCQk8cGF0aCBpZD0icGF0aDEwMTIzOSIgaW5rc2NhcGU6Y29ubmVjdG9yLWN1cnZhdHVyZT0iMCIgc3R5bGU9ImZpbGw6I0MyQkZCRjsiIGQ9Ik0xLjg5LDYxLjcxYzAuMDUtMC41NSwwLjMyLTEuMDEsMC42LTEuNDcgICAgICAgIGMtMC4yOC0wLjEyLTAuNS0wLjM2LTAuNjctMC42MmMtMC4xNC0wLjI0LTAuMjYtMC41My0wLjM2LTAuNzljLTAuMzMtMS4wMS0wLjQxLTIuMDYtMC41LTMuMDlsMCwwYzAtMC4xLDAtMC4yMiwwLTAuMzFsMCwwICAgICAgICBjMC0wLjEsMC0wLjIyLDAtMC4zMmMtMC4xMiwwLjEtMC4xNCwwLjkyLTAuMTQsMS4wNGMtMC4wOCwxLjEtMC4yMiwyLjE4LTAuNDQsMy4yM0MwLjMxLDU5LjgxLDAuMjYsNjAuMjQsMCw2MC42MyAgICAgICAgYzAsMC4wNSwwLDAuMDksMC4wMiwwLjE3YzAuNDQsMS4yNywwLjU2LDIuNTYsMC42MywzLjg4YzAsMC4xNywwLDAuMzEsMCwwLjQ4YzAsMC41Ny0wLjAzLDAuNDUsMC40NSwwLjY1ICAgICAgICBjMC4xOSwwLjA3LDAuNDEsMC4wOSwwLjYsMC4yNGMwLjE1LDAsMC4xNy0wLjEyLDAuMTctMC4yMkMxLjg1LDY1LjU3LDEuOCw2NS4zLDEuOCw2NS4wNGMwLTAuNzQtMC4wMy0xLjQ2LDAtMi4yMSAgICAgICAgQzEuNzcsNjIuNDUsMS44NSw2Mi4wNywxLjg5LDYxLjcxeiIvPiYjeGE7CQkJCQk8L2c+JiN4YTsJCQkJPC9nPiYjeGE7CQkJCTxnIGlkPSJncm91cDM5NDYtMTEiPiYjeGE7CQkJCQk8dGl0bGUgaWQ9InRpdGxlMTAxMjQzIj5nODgwPC90aXRsZT4mI3hhOwkJCQkJPGcgaWQ9InNoYXBlMzk0Ny0xMiIgdHJhbnNmb3JtPSJ0cmFuc2xhdGUoMCwtNi4xMTU1NikiPiYjeGE7CQkJCQkJPHRpdGxlIGlkPSJ0aXRsZTEwMTI0NSI+cGF0aDQ8L3RpdGxlPiYjeGE7CQkJCQkJPHBhdGggaWQ9InBhdGgxMDEyNDciIGlua3NjYXBlOmNvbm5lY3Rvci1jdXJ2YXR1cmU9IjAiIHN0eWxlPSJmaWxsOiM0NzQ3NEE7IiBkPSJNMy44NSw2MS40N2MwLDAuODgsMCwxLjc2LDAsMi42MiAgICAgICAgYzAsMC4xMSwwLDAuMjEsMC4wMiwwLjMxYzAuMDMsMC4zMiwwLjIyLDAuNTEsMC41MiwwLjU5YzAuMjYsMC4wNywwLjUzLDAuMTIsMC43OSwwLjE2YzAuMTYsMC4wMSwwLjIxLDAuMDgsMC4yMywwLjI0ICAgICAgICBjMC4wMSwwLjU5LTAuMDQsMC42Ni0wLjYxLDAuNjJjLTEuMzMtMC4wNy0yLjY2LTAuMDktMy45OSwwYy0wLjA1LDAtMC4xLDAtMC4xNCwwYy0wLjQxLDAuMDItMC40NS0wLjAyLTAuNDUtMC40MyAgICAgICAgYzAtMC4wNywwLjAyLTAuMTYsMC4wMi0wLjIzYzAtMC4xMywwLjA5LTAuMTksMC4yMS0wLjE5YzAuMjgtMC4wMywwLjUzLTAuMSwwLjc5LTAuMTVjMC4zNy0wLjA5LDAuNTctMC4zMSwwLjYxLTAuNjcgICAgICAgIGMwLjA1LTAuNCwwLjA1LTAuODIsMC4wNS0xLjIxYzAuMDUtMS41NCwwLjAzLTMuMSwwLjAyLTQuNjNjMC0wLjMtMC4xMi0wLjUyLTAuMzgtMC42NmMtMC4zMS0wLjE3LTAuNjQtMC4zMS0wLjk5LTAuNDIgICAgICAgIGMtMC4xLTAuMDMtMC4yLTAuMDUtMC4yOS0wLjFDMC4wMiw1Ny4yLDAsNTYuOTgsMC4yNCw1Ni44NGMwLjA5LTAuMDUsMC4xOS0wLjA5LDAuMy0wLjExYzEuMDUtMC4xNSwyLjA3LTAuNDEsMy4wNy0wLjc3ICAgICAgICBjMC4yMS0wLjA3LDAuMjYtMC4wNiwwLjI4LDAuMTVjMC4wMSwwLjE0LDAsMC4yOC0wLjAyLDAuNGMtMC4wMywwLjIyLTAuMDMsMC40NS0wLjAzLDAuNjZjMCwwLjA4LDAuMDEsMC4xNywwLjEsMC4yMiAgICAgICAgYzAuMDksMC4wNSwwLjE3LDAsMC4yNC0wLjA1YzAuMzYtMC4yOCwwLjczLTAuNTQsMS4xMi0wLjc2YzAuNTctMC4zMSwxLjE4LTAuNTksMS44My0wLjY4YzAuOC0wLjEsMS40OSwwLjExLDIuMSwwLjYzICAgICAgICBjMC4yNSwwLjIyLDAuNDYsMC40OCwwLjY1LDAuNzZjMC4xNywwLjI0LDAuMTksMC4yNiwwLjQyLDAuMDhjMC42NS0wLjQ4LDEuMzQtMC45MSwyLjA5LTEuMjJjMC43Ny0wLjMzLDEuNTctMC4zOCwyLjM2LTAuMTEgICAgICAgIGMwLjgyLDAuMywxLjM3LDAuODcsMS43LDEuNjRjMC4yNywwLjYzLDAuMzksMS4yOCwwLjM5LDEuOTRjMCwxLjAyLDAsMi4wNCwwLDMuMDdjMCwwLjUyLDAsMS4wNCwwLDEuNTYgICAgICAgIGMwLDAuMzEsMC4xNCwwLjUyLDAuNDQsMC42NmMwLjMyLDAuMTMsMC42OSwwLjE5LDEuMDMsMC4yNWMwLjIzLDAuMDYsMC4yMywwLjA2LDAuMjMsMC4yOGMtMC4wNCwwLjU3LTAuMDksMC42MS0wLjY0LDAuNTcgICAgICAgIGMtMS4zOC0wLjA5LTIuNzgtMC4wNy00LjE3LDBjLTAuMjcsMC4wMi0wLjI3LDAuMDItMC4yOS0wLjI2YzAtMC4wMywwLTAuMDUsMC0wLjA4Yy0wLjAyLTAuNDctMC4wMi0wLjQ3LDAuNDMtMC41NyAgICAgICAgYzAuMTYtMC4wNCwwLjMtMC4wNywwLjQ1LTAuMTNjMC4zNS0wLjEsMC41Mi0wLjMyLDAuNTQtMC42N2MwLjAxLTAuNDMsMC4wMy0wLjg2LDAuMDUtMS4yOWMwLTEuMTMsMC4wMy0yLjI3LTAuMDQtMy4zOSAgICAgICAgYy0wLjAxLTAuMjktMC4wNi0wLjU5LTAuMTktMC44OGMtMC40My0xLjA2LTEuMzgtMS40NC0yLjI5LTEuMzNjLTAuNjksMC4wNy0xLjMsMC4zNC0xLjg3LDAuNzQgICAgICAgIGMtMC4xMiwwLjA5LTAuMjEsMC4xOS0wLjE5LDAuMzZjMC4xNiwxLjExLDAuMDUsMi4yMSwwLjA3LDMuMzJjMC4wMiwwLjc5LDAsMS42MSwwLDIuNGMwLDAuNDMsMC4xNywwLjY0LDAuNTksMC43NCAgICAgICAgYzAuMjYsMC4wNywwLjUyLDAuMTMsMC43OSwwLjE4YzAuMTIsMC4wMSwwLjE5LDAuMDcsMC4xOSwwLjJjMCwwLjA2LDAsMC4xMSwwLDAuMTRjLTAuMDIsMC40OS0wLjA1LDAuNTItMC41MywwLjUgICAgICAgIGMtMS4zOS0wLjA3LTIuNzctMC4wNS00LjEzLDBjLTAuNDcsMC4wMi0wLjUyLTAuMDMtMC40OS0wLjUxYzAuMDItMC4yOCwwLjA2LTAuMywwLjMxLTAuMzVjMC4xOS0wLjAzLDAuMzgtMC4wNywwLjU3LTAuMSAgICAgICAgYzAuNTItMC4xMSwwLjctMC4zLDAuNzMtMC44M2MwLjAyLTAuMzgsMC4wNS0wLjc4LDAuMDUtMS4xNmMwLjAyLTEuMTYsMC4wNS0yLjMyLTAuMDMtMy40N2MtMC4wNC0wLjQzLTAuMTQtMC44NS0wLjM3LTEuMjUgICAgICAgIGMtMC4zNC0wLjY0LTAuODktMC45Ni0xLjYyLTFjLTAuNzQtMC4wNS0xLjQsMC4yMy0yLjAyLDAuNTdjLTAuNDMsMC4yNC0wLjYyLDAuNTUtMC41OSwxLjA2ICAgICAgICBDMy44Nyw1OS44MSwzLjg0LDYwLjY0LDMuODUsNjEuNDdDMy44NCw2MS40NywzLjg1LDYxLjQ3LDMuODUsNjEuNDdDMy44NSw2MS40NywzLjg1LDYxLjQ3LDMuODUsNjEuNDd6Ii8+JiN4YTsJCQkJCTwvZz4mI3hhOwkJCQkJPGcgaWQ9Imdyb3VwMzk0OC0xNCIgdHJhbnNmb3JtPSJ0cmFuc2xhdGUoMjAuMzY3OSkiPiYjeGE7CQkJCQkJPHRpdGxlIGlkPSJ0aXRsZTEwMTI1MCI+Zzg3MDwvdGl0bGU+JiN4YTsJCQkJCQk8ZyBpZD0ic2hhcGUzOTQ5LTE1IiB0cmFuc2Zvcm09InRyYW5zbGF0ZSgxMS45NzIsLTUuOTYwMDYpIj4mI3hhOwkJCQkJCQk8dGl0bGUgaWQ9InRpdGxlMTAxMjUyIj5wYXRoNjwvdGl0bGU+JiN4YTsJCQkJCQkJPHBhdGggaWQ9InBhdGgxMDEyNTQiIGlua3NjYXBlOmNvbm5lY3Rvci1jdXJ2YXR1cmU9IjAiIHN0eWxlPSJmaWxsOiM0NzQ3NEE7IiBkPSJNNC4wNiw2MS40MmMwLDAuODEsMCwxLjYyLDAsMi40MyAgICAgICAgIGMwLDAuMTcsMC4wMiwwLjM1LDAuMDMsMC41MmMwLjA0LDAuMjYsMC4xOCwwLjQxLDAuNDIsMC40OGMwLjI5LDAuMDksMC42LDAuMTQsMC45MSwwLjE2YzAuMTgsMC4wMiwwLjIxLDAuMDksMC4yMywwLjIyICAgICAgICAgYzAsMC4wNCwwLDAuMDcsMCwwLjEyYy0wLjAyLDAuNjEtMC4wOSwwLjY4LTAuNjcsMC42NGMtMS4zMi0wLjA4LTIuNjMtMC4wNy0zLjk0LDBjLTAuMTgsMC0wLjM1LDAuMDItMC41MiwwLjAyICAgICAgICAgYy0wLjExLDAtMC4xNC0wLjA1LTAuMTYtMC4xMmMtMC4wNS0wLjI0LTAuMDUtMC40OCwwLTAuNzNjMC4wMi0wLjEsMC4wOS0wLjEzLDAuMTktMC4xNWMwLjI0LTAuMDQsMC40Ny0wLjA5LDAuNzEtMC4xNCAgICAgICAgIGMwLjQzLTAuMSwwLjU5LTAuMjgsMC42MS0wLjcyYzAuMDMtMC40OSwwLjA1LTAuOTcsMC4wNS0xLjQ2YzAtMS40MSwwLTIuODMsMC00LjI1YzAtMC4zMS0wLjEyLTAuNS0wLjQtMC42NCAgICAgICAgIGMtMC4zMS0wLjE3LTAuNjQtMC4yOS0wLjk4LTAuNDFjLTAuMTEtMC4wMy0wLjIxLTAuMDctMC4zLTAuMTJDMC4wMiw1Ny4xMSwwLDU2Ljg5LDAuMjEsNTYuNzJjMC4xLTAuMDksMC4yLTAuMTIsMC4zNC0wLjE0ICAgICAgICAgYzEuMTEtMC4xNywyLjE4LTAuNDIsMy4yMi0wLjgzYzAuMTItMC4wNSwwLjE3LTAuMDIsMC4yMiwwLjA5YzAuMDUsMC4xLDAuMDcsMC4yMiwwLjA1LDAuMzRjLTAuMDEsMC4yOC0wLjAzLDAuNTQtMC4wNSwwLjgxICAgICAgICAgYzAsMC4xMS0wLjA1LDAuMjQsMC4wNCwwLjNjMC4xLDAuMDcsMC4xNy0wLjA5LDAuMjUtMC4xNGMwLjUyLTAuNDIsMS4wOC0wLjgsMS42OC0xLjA3YzAuNTQtMC4yNCwxLjA5LTAuNDIsMS43MS0wLjM4ICAgICAgICAgYzEuMTYsMC4wNywxLjk5LDAuNjUsMi41MiwxLjY3YzAuMjgsMC41NCwwLjQsMS4xMywwLjQ1LDEuNzNjMC4wNCwwLjQyLDAuMDUsMC44NSwwLjA1LDEuMjhjMCwxLjE5LDAuMDIsMi4zNywwLjAyLDMuNTYgICAgICAgICBjMCwwLjA4LDAsMC4xNywwLDAuMjZjMC4wMiwwLjI5LDAuMTIsMC40OCwwLjQyLDAuNThjMC4zMSwwLjExLDAuNiwwLjE4LDAuOTMsMC4yM2MwLjI3LDAuMDMsMC4yOSwwLjA5LDAuMzEsMC4zNCAgICAgICAgIGMwLDAuMDQsMCwwLjA2LDAsMC4wOWMtMC4wNCwwLjU5LTAuMDcsMC42MS0wLjY2LDAuNTdjLTEuMjktMC4wNy0yLjU5LTAuMDctMy44NywwYy0wLjE3LDAuMDItMC4zNCwwLTAuNTIsMC4wMiAgICAgICAgIGMtMC4xLDAtMC4xNy0wLjAyLTAuMTktMC4xMmMtMC4wMy0wLjIzLTAuMDYtMC40NS0wLjAxLTAuNjljMC4wMS0wLjExLDAuMDctMC4xNiwwLjE5LTAuMThjMC4yNi0wLjAzLDAuNTMtMC4wNywwLjc5LTAuMTMgICAgICAgICBjMC4yOC0wLjA3LDAuNDMtMC4yNSwwLjQ3LTAuNTJjMC4wMi0wLjE2LDAuMDMtMC4zMywwLjAzLTAuNDljMC0xLjIxLDAtMi40Mi0wLjAxLTMuNjFjMC0wLjQxLTAuMDItMC44My0wLjExLTEuMjQgICAgICAgICBjLTAuMi0wLjktMC44OC0xLjUtMS43OS0xLjYxYy0wLjgtMC4wOC0xLjUxLDAuMTItMi4xOCwwLjU2Yy0wLjMzLDAuMi0wLjQ3LDAuNS0wLjQ3LDAuODZjMCwwLjYsMCwxLjIxLDAsMS44MyAgICAgICAgIGMwLDAuMjYsMCwwLjUyLDAsMC43OEM0LjA0LDYxLjQyLDQuMDQsNjEuNDIsNC4wNiw2MS40MkM0LjA2LDYxLjQyLDQuMDYsNjEuNDIsNC4wNiw2MS40MnoiLz4mI3hhOwkJCQkJCTwvZz4mI3hhOwkJCQkJCTxnIGlkPSJzaGFwZTM5NTAtMTciIHRyYW5zZm9ybT0idHJhbnNsYXRlKDUwLjgwNzYsLTYuMTE1NTIpIj4mI3hhOwkJCQkJCQk8dGl0bGUgaWQ9InRpdGxlMTAxMjU3Ij5wYXRoMTI8L3RpdGxlPiYjeGE7CQkJCQkJCTxwYXRoIGlkPSJwYXRoMTAxMjU5IiBpbmtzY2FwZTpjb25uZWN0b3ItY3VydmF0dXJlPSIwIiBzdHlsZT0iZmlsbDojQzJCRkJGOyIgZD0iTTE1LjgyLDU2LjY4ICAgICAgICAgYy0wLjE5LTEuMjYtMC42NS0yLjM4LTEuNDYtMy4zN2MtMC43My0wLjg4LTEuNjEtMS41My0yLjY2LTEuOTdjLTEuMDktMC40NS0yLjI1LTAuNTgtMy40Mi0wLjYyICAgICAgICAgYy0wLjQ5LTAuMDItNy4wOSwwLjA5LTcuNTcsMGMtMC4xMi0wLjAyLTAuMjEsMC4wMi0wLjI4LDAuMTJjLTAuMDgsMC4xNC0wLjE3LDAuMjYtMC4yMiwwLjRDMCw1MS43MSwwLDUxLjY3LDAuNSw1MS43NCAgICAgICAgIGMwLjQyLDAuMDcsMC44MSwwLjEsMS4yMSwwLjIzYzAuMzYsMC4xMiwwLjYyLDAuMzIsMC43MSwwLjcyYzAuMDMsMC4xOSwwLjA3LDYuMjcsMC4wNyw5LjExYzAsMC42Ny0wLjAyLDEuMzQtMC4wNywyLjAyICAgICAgICAgYy0wLjAyLDAuMTUtMC4wNCwwLjMxLTAuMDksMC40NWMtMC4wNywwLjItMC4xOSwwLjM4LTAuNCwwLjQ2Yy0wLjIyLDAuMTEtMC40NiwwLjE4LTAuNzIsMC4xOSAgICAgICAgIGMtMC40NywwLjA1LTAuNTQsMC4wNy0wLjY5LDAuNTljLTAuMDIsMC4wNy0wLjA0LDAuMTQtMC4wNSwwLjE5Yy0wLjA0LDAuMjItMC4wMiwwLjI2LDAuMiwwLjI2ICAgICAgICAgYzEuMDQsMC4wMiw0LjMxLDAuMDUsNS4xNywwLjA1YzAuNDgtMC4wMiwxLjI2LDAuMDQsMi4wMi0wLjAzYzAuNDctMC4wNiwwLjkzLTAuMDksMS40LTAuMThjMS41OS0wLjI5LDMuMDEtMC45NSw0LjIyLTIgICAgICAgICBjMC43LTAuNjIsMS4yNC0xLjM1LDEuNjUtMi4xOGMwLjQ5LTAuOTYsMC42OS0yLjAyLDAuNzUtMy4wOUMxNS45Niw1Ny45MywxNS45Myw1Ny4zLDE1LjgyLDU2LjY4TDE1LjgyLDU2LjY4eiBNMTMuMzIsNTkuMTQgICAgICAgICBjLTAuMDcsMS4xLTAuMjksMi4xNy0wLjg2LDMuMTRjLTAuNzMsMS4yNi0xLjc3LDIuMTQtMy4yLDIuNDVjLTAuNjIsMC4xNC0xLjI0LDAuMTktMS44OCwwLjExICAgICAgICAgYy0wLjQ3LTAuMDYtMC45Mi0wLjExLTEuMzUtMC4yNmMtMC43OC0wLjI4LTEuMDUtMC43Ni0xLjA3LTEuNTFjLTAuMDQtMS4wOCwwLTguNy0wLjAyLTEwLjQxYzAtMC42MywwLjI4LTAuNzYsMC43My0wLjc4ICAgICAgICAgYzAuNjctMC4wNSwxLjM2LTAuMDQsMi4wMywwLjAzYzAuNzMsMC4wNywxLjQyLDAuMjUsMi4xLDAuNTJjMC41LDAuMjEsMC45NiwwLjUsMS4zNiwwLjg1YzAuOTMsMC43OSwxLjU1LDEuOCwxLjg4LDIuOTcgICAgICAgICBDMTMuMzIsNTcuMiwxMy4zNyw1OC4xNywxMy4zMiw1OS4xNHoiLz4mI3hhOwkJCQkJCTwvZz4mI3hhOwkJCQkJCTxnIGlkPSJzaGFwZTM5NTEtMTkiIHRyYW5zZm9ybT0idHJhbnNsYXRlKDY3Ljg5MzIsLTYuMDExOSkiPiYjeGE7CQkJCQkJCTx0aXRsZSBpZD0idGl0bGUxMDEyNjIiPnBhdGgxNDwvdGl0bGU+JiN4YTsJCQkJCQkJPHBhdGggaWQ9InBhdGgxMDEyNjQiIGlua3NjYXBlOmNvbm5lY3Rvci1jdXJ2YXR1cmU9IjAiIHN0eWxlPSJmaWxsOiNDMkJGQkY7IiBkPSJNMTMuMDksNjAuNzJjMC0wLjEsMC0wLjE5LTAuMDEtMC4yOSAgICAgICAgIGMtMC4xNi0wLjk1LTAuNjYtMS42Ny0xLjQ0LTIuMjNjLTAuNS0wLjM2LTEuMDctMC42LTEuNjUtMC43OGMtMC4xMS0wLjAzLTAuMTktMC4wNi0wLjMtMC4wOGMwLjAyLTAuMDksMC4wNy0wLjExLDAuMTItMC4xMiAgICAgICAgIGMwLjM1LTAuMTgsMC42OC0wLjM3LDAuOTctMC42MmMwLjU0LTAuNDUsMC45LTEuMDEsMS4wNy0xLjY4YzAuMS0wLjM2LDAuMS0wLjczLDAuMDctMS4xMWMtMC4wOS0wLjk1LTAuNS0xLjY5LTEuMjYtMi4yNCAgICAgICAgIGMtMC44LTAuNTktMS43My0wLjgzLTIuNy0wLjg1Yy0xLjg2LTAuMDMtMy43NCwwLTUuNjEsMGMtMC41NCwwLTEuMDcsMC4wNC0xLjYyLTAuMDVjLTAuMTEtMC4wMi0wLjI1LTAuMDUtMC4zMywwLjA3ICAgICAgICAgYy0wLjE0LDAuMjItMC4yOCwwLjQ1LTAuMzMsMC43MWMtMC4wMiwwLjEyLDAuMDIsMC4xOSwwLjE1LDAuMmMwLjQsMC4wNiwwLjgsMC4xMywxLjIsMC4xOGMwLjQ2LDAuMDcsMC43OSwwLjMzLDAuODMsMC43NCAgICAgICAgIGMwLjAzLDAuMjksMC4wNSwwLjU3LDAuMDUsMC44NmMwLDEuMDgtMC4wMiwyLjE2LTAuMDQsMy4yM2MtMC4wMywyLjEzLTAuMDEsNC4yNy0wLjAxLDYuNGMwLDAuMzgtMC4wNiwwLjc0LTAuMTMsMS4xMiAgICAgICAgIGMtMC4wNSwwLjI2LTAuMTksMC40My0wLjQ0LDAuNTJDMS4zMyw2NC44LDEsNjQuOTEsMC42NCw2NC45MWMtMC4yMywwLTAuMzYsMC4wOC0wLjQ1LDAuMjljLTAuMDcsMC4xNS0wLjE0LDAuMzMtMC4xNiwwLjQ4ICAgICAgICAgQzAsNjUuODksMC4wNSw2NS45NiwwLjI2LDY1LjkyYzAuMTUtMC4wMSw1Ljg2LDAuMTMsNi45MywwLjAyYzAuNjQtMC4wNywxLjI4LTAuMTUsMS45LTAuMzRjMS4wOS0wLjM1LDIuMDktMC44NSwyLjg4LTEuNyAgICAgICAgIGMwLjY2LTAuNjksMS4wNC0xLjUyLDEuMDctMi40OEMxMy4wOSw2MS4xOSwxMy4wOSw2MC45NywxMy4wOSw2MC43MnogTTQuNzIsNTMuNjZjMC4wMy0wLjQ3LDAuMDMtMC45MiwwLjA1LTEuMzggICAgICAgICBjMC0wLjI2LDAuMS0wLjM4LDAuMzYtMC40NGMwLjQyLTAuMDgsMC44My0wLjA1LDEuMjQtMC4wM2MwLjQyLDAuMDMsMC44MiwwLjA5LDEuMjMsMC4yMWMwLjc2LDAuMjIsMS4zNSwwLjY1LDEuNjksMS4zOCAgICAgICAgIGMwLjE2LDAuMzMsMC4yNSwwLjY5LDAuMjUsMS4wNWMwLjAxLDAuNDktMC4wMiwwLjk1LTAuMjEsMS40MmMtMC4yOSwwLjY0LTAuNzYsMS4wNS0xLjQ0LDEuMTcgICAgICAgICBjLTAuNjcsMC4xMy0yLjU5LDAuMDctMi44OCwwLjA3Yy0wLjI2LDAtMC4yOC0wLjAzLTAuMjgtMC4yOWMwLTAuNTUsMC0xLjExLDAtMS42NGwwLDBDNC43LDU0LjcsNC42OCw1NC4xOCw0LjcyLDUzLjY2eiAgICAgICAgICBNMTAuMzMsNjIuOTVjLTAuMjksMC43OC0wLjgzLDEuMzItMS41OSwxLjYxYy0wLjQxLDAuMTYtMC44MywwLjI0LTEuMjgsMC4yMmMtMC41My0wLjAxLTEuMDcsMC0xLjYtMC4xICAgICAgICAgYy0wLjczLTAuMTUtMS4wNi0wLjg1LTEuMTEtMS4zNWMtMC4wOS0wLjg4LTAuMDMtMS43OC0wLjA1LTIuNDNjMC0wLjkyLDAtMS41OSwwLTIuMjhjMC0wLjI4LDAuMDMtMC4zNywwLjMzLTAuMzcgICAgICAgICBjMC41My0wLjAxLDEuMDctMC4wMywxLjYyLDAuMDJjMC4zOCwwLjA0LDAuNzQsMC4wNywxLjExLDAuMTRjMC43NywwLjE3LDEuNDgsMC40NywyLjA0LDEuMDdjMC40NCwwLjQ4LDAuNjksMS4wNywwLjc0LDEuNzEgICAgICAgICBDMTAuNTksNjEuOCwxMC41Niw2Mi4zOCwxMC4zMyw2Mi45NUMxMC4zMyw2Mi45NSwxMC4zMyw2Mi45NSwxMC4zMyw2Mi45NXoiLz4mI3hhOwkJCQkJCTwvZz4mI3hhOwkJCQkJCTxnIGlkPSJzaGFwZTM5NTItMjEiIHRyYW5zZm9ybT0idHJhbnNsYXRlKDI1LjU4NTIpIj4mI3hhOwkJCQkJCQk8dGl0bGUgaWQ9InRpdGxlMTAxMjY3Ij5wYXRoMTY8L3RpdGxlPiYjeGE7CQkJCQkJCTxwYXRoIGlkPSJwYXRoMTAxMjY5IiBpbmtzY2FwZTpjb25uZWN0b3ItY3VydmF0dXJlPSIwIiBzdHlsZT0iZmlsbDojNDc0NzRBOyIgZD0iTTguNzQsNTEuNzJjMC4xNiwwLjAyLDAuMzEsMC4wNiwwLjQ1LDAuMDcgICAgICAgICBjMC40OCwwLjAyLDEuMDUtMC4xNSwxLjIzLTAuODNjMC4wOC0wLjMyLDAuMS0wLjY0LDAtMC45OGMtMC4xMSwwLTAuMTYsMC4wOS0wLjIxLDAuMTJjLTAuMjYsMC4yMS0wLjU1LDAuMzMtMC44NiwwLjM2ICAgICAgICAgQzguNzIsNTAuNTMsOC4xLDUwLjUsNy41LDUwLjI3Yy0wLjI4LTAuMS0wLjU2LTAuMi0wLjg1LTAuMjljLTAuNTktMC4xOS0xLjIxLTAuMjgtMS44My0wLjI0ICAgICAgICAgYy0wLjg4LDAuMDctMS43MSwwLjM2LTIuNDksMC43N2MtMC44MywwLjQ1LTEuNDEsMS4xMy0xLjY5LDIuMDRjLTAuMTYsMC41NC0wLjE3LDEuMDktMC4xLDEuNjRjMC4xNywxLjI3LDAuODIsMi4xNSwyLDIuNjEgICAgICAgICBjMC4wNywwLjAyLDAuMTIsMC4wNSwwLjE5LDAuMDdjMC4xNiwwLjA5LDAuMTcsMC4xNywwLjAzLDAuM2MtMC4xMywwLjEtMC4yNywwLjItMC40MywwLjI5Yy0wLjM0LDAuMjEtMC42OSwwLjQxLTEuMDMsMC42NCAgICAgICAgIGMtMC4yNiwwLjE1LTAuMywwLjI4LTAuMjEsMC41NWMwLjEsMC4zMywwLjI5LDAuNjEsMC41NSwwLjgzYzAuMjQsMC4yMSwwLjUsMC4zNiwwLjgsMC40OGMwLjE5LDAuMDksMC4xOSwwLjE0LDAuMDEsMC4yOCAgICAgICAgIGMtMC4zMywwLjI0LTAuNjUsMC40Ny0wLjk4LDAuNzFjLTAuMzMsMC4yNC0wLjY2LDAuNTItMC45MywwLjgzYy0wLjQsMC40NS0wLjU0LDAuOTctMC40MiwxLjU1ICAgICAgICAgYzAuMTQsMC42MywwLjQzLDEuMTMsMC45LDEuNTZDMS40Nyw2NS4zLDIsNjUuNiwyLjYxLDY1Ljc1YzAuOTcsMC4yOCwxLjk3LDAuMywyLjk1LDAuMTFjMS40Mi0wLjI2LDIuNjUtMC45LDMuNjMtMS45NiAgICAgICAgIGMwLjY3LTAuNywxLjA3LTEuNTMsMS4xMS0yLjU0YzAuMDUtMS4yMS0wLjY5LTIuMjItMS44Ny0yLjUyYy0wLjMxLTAuMDctMC42Mi0wLjEyLTAuOTMtMC4xN2MtMC45NS0wLjEyLTEuOS0wLjE3LTIuODUtMC4yNCAgICAgICAgIGMtMC4zMS0wLjAyLTAuNjItMC4wNy0wLjg4LTAuMjNjLTAuMzMtMC4yLTAuNDItMC42LTAuMjEtMC44NmMwLjE1LTAuMTksMC4zNC0wLjMxLDAuNTktMC4zM2MwLjE5LTAuMDIsMC4zNi0wLjAzLDAuNTUtMC4wNSAgICAgICAgIGMxLjEyLTAuMTIsMi4wOS0wLjU3LDIuOTItMS4zM2MwLjQzLTAuNCwwLjcyLTAuOSwwLjg4LTEuNDdjMC4yMS0wLjc0LDAuMjEtMS41LDAuMDMtMi4yNkM4LjQ4LDUxLjcxLDguNSw1MS42OSw4Ljc0LDUxLjcyeiAgICAgICAgICBNNC41MSw2MC4zM2MwLjEsMC4wMSwwLjIxLDAsMC4zMSwwQzUuNTUsNjAuMzYsNi4yOSw2MC40MSw3LDYwLjZjMC4yNCwwLjA3LDAuNDUsMC4xNiwwLjY3LDAuMjYgICAgICAgICBjMC42OSwwLjM4LDAuOTUsMS4wNCwwLjg2LDEuNzVDOC40Myw2My4zOSw4LDYzLjk0LDcuMzIsNjQuM2MtMC40NCwwLjI0LTAuOTUsMC4zNi0xLjQ2LDAuNDJjLTAuMTksMC4wMS0wLjM3LDAtMC41NiwwICAgICAgICAgYy0wLjYsMC4wMS0xLjE5LTAuMDYtMS43Ni0wLjNjLTAuNC0wLjE1LTAuNzItMC4zOC0xLjAyLTAuNjljLTAuNi0wLjYtMC45LTEuNzEsMC4wMi0yLjYxQzMuMDksNjAuNiwzLjcxLDYwLjI2LDQuNTEsNjAuMzN6ICAgICAgICAgIE02LjQ4LDU0Ljk0Yy0wLjM2LDAuOTEtMS4xNiwxLjE5LTEuOTUsMS4wN2MtMC43My0wLjExLTEuMjYtMC41LTEuNjEtMS4xNmMtMC40NS0wLjg4LTAuNTctMS44LTAuMzEtMi43NSAgICAgICAgIGMwLjE5LTAuNywwLjYyLTEuMjQsMS4zOC0xLjM2YzAuOTctMC4xNywxLjg4LDAuMTcsMi4zOCwxLjE0YzAuMjUsMC40NywwLjM3LDEuMDQsMC4zNywxLjg1ICAgICAgICAgQzYuNzIsNTQuMDYsNi42NSw1NC41MSw2LjQ4LDU0Ljk0eiIvPiYjeGE7CQkJCQkJPC9nPiYjeGE7CQkJCQkJPGcgaWQ9InNoYXBlMzk1My0yMyIgdHJhbnNmb3JtPSJ0cmFuc2xhdGUoMCwtNS43NTI3NykiPiYjeGE7CQkJCQkJCTx0aXRsZSBpZD0idGl0bGUxMDEyNzIiPnBhdGgxODwvdGl0bGU+JiN4YTsJCQkJCQkJPHBhdGggaWQ9InBhdGgxMDEyNzQiIGlua3NjYXBlOmNvbm5lY3Rvci1jdXJ2YXR1cmU9IjAiIHN0eWxlPSJmaWxsOiM0NzQ3NEE7IiBkPSJNMTAuMyw1OS41MmMtMC4xNi0wLjk0LTAuNS0xLjc4LTEuMTQtMi40OSAgICAgICAgIEM4LjIxLDU1Ljk3LDcsNTUuNTIsNS42Myw1NS41MWMtMS4xOS0wLjAyLTIuMzEsMC4zMy0zLjMyLDAuOTVjLTEsMC42Mi0xLjY5LDEuNS0yLjAyLDIuNjRjLTAuMjksMS0wLjI3LDIuMDItMC4wNSwzLjA0ICAgICAgICAgYzAuNjEsMi43MywyLjcxLDMuOTEsNS4yNCwzLjczYzAuNzQtMC4wNSwxLjQ1LTAuMjksMi4xMi0wLjYyYzEtMC40NywxLjczLTEuMjEsMi4yMy0yLjE5YzAuNC0wLjgyLDAuNTctMS42OCwwLjU1LTIuNjYgICAgICAgICBDMTAuMzcsNjAuMTUsMTAuMzUsNTkuODMsMTAuMyw1OS41MnogTTcuODQsNjMuMzVjLTAuMzEsMC44My0wLjksMS4zMy0xLjc4LDEuNDVjLTAuNzYsMC4xMS0xLjQ2LTAuMDgtMi4xLTAuNTMgICAgICAgICBjLTAuNDctMC4zNS0wLjgzLTAuNzgtMS4wOS0xLjNDMi4xNiw2MS41MiwyLjA0LDYwLDIuNCw1OC40NGMwLjEyLTAuNDgsMC4zNi0wLjkxLDAuNzMtMS4yNmMwLjY0LTAuNTgsMS4zOC0wLjcyLDIuMjEtMC41NSAgICAgICAgIGMwLjc5LDAuMTcsMS40LDAuNiwxLjg4LDEuMjZzMC43MywxLjQyLDAuODYsMi4yMWMwLjA3LDAuNCwwLjA3LDAuODEsMC4wOSwxLjA3QzguMTcsNjIsOC4xLDYyLjY4LDcuODQsNjMuMzV6Ii8+JiN4YTsJCQkJCQk8L2c+JiN4YTsJCQkJCQk8ZyBpZD0ic2hhcGUzOTU0LTI1IiB0cmFuc2Zvcm09InRyYW5zbGF0ZSgzNy42MjYzLC01LjczNTUpIj4mI3hhOwkJCQkJCQk8dGl0bGUgaWQ9InRpdGxlMTAxMjc3Ij5wYXRoMjA8L3RpdGxlPiYjeGE7CQkJCQkJCTxwYXRoIGlkPSJwYXRoMTAxMjc5IiBpbmtzY2FwZTpjb25uZWN0b3ItY3VydmF0dXJlPSIwIiBzdHlsZT0iZmlsbDojNDc0NzRBOyIgZD0iTTEwLjQyLDU5LjY0ICAgICAgICAgYy0wLjE0LTEuMDEtMC41LTEuOTItMS4yMS0yLjY4Yy0wLjkzLTEuMDItMi4xNC0xLjQ1LTMuNDktMS40N2MtMS4xNi0wLjAyLTIuMjMsMC4zMS0zLjIyLDAuODggICAgICAgICBjLTEuMSwwLjY2LTEuODYsMS41OS0yLjE1LDIuODVjLTAuMzUsMS40Mi0wLjIxLDIuOCwwLjQxLDQuMTFjMC41NywxLjIxLDEuNTQsMS45OSwyLjgyLDIuMzRjMS40MSwwLjM4LDIuNzYsMC4yLDQuMDctMC40NCAgICAgICAgIGMxLjE0LTAuNTUsMS45Ni0xLjQxLDIuNDItMi41OWMwLjI4LTAuNjksMC4zOC0xLjQzLDAuNC0yLjNDMTAuNDksNjAuMTksMTAuNDUsNTkuOTEsMTAuNDIsNTkuNjR6IE04LjAzLDYzLjExICAgICAgICAgYy0wLjI3LDAuOTMtMC44NiwxLjU0LTEuODUsMS42N2MtMC43MiwwLjExLTEuNDEtMC4wNi0yLjAzLTAuNDhjLTAuNTQtMC4zNi0wLjkyLTAuODUtMS4yLTEuNDIgICAgICAgICBjLTAuMzEtMC42LTAuNDgtMS4yNC0wLjU1LTEuOWMtMC4xLTAuODEtMC4xLTEuNiwwLjA5LTIuNDFjMC4wMy0wLjE2LDAuMDgtMC4zMiwwLjE1LTAuNDdjMC40OS0xLjIxLDEuNTYtMS43NiwyLjgyLTEuNDkgICAgICAgICBjMC44NSwwLjE5LDEuNDgsMC42NiwxLjk3LDEuMzdjMC40NiwwLjY5LDAuNjksMS40NSwwLjc5LDIuMjZjMC4wNiwwLjMzLDAuMDcsMC42NywwLjA2LDAuOTcgICAgICAgICBDOC4yOCw2MS44OCw4LjIyLDYyLjUsOC4wMyw2My4xMXoiLz4mI3hhOwkJCQkJCTwvZz4mI3hhOwkJCQkJPC9nPiYjeGE7CQkJCTwvZz4mI3hhOwkJCTwvZz4mI3hhOwkJPC9nPiYjeGE7CTwvZz4mI3hhOzwvZz4mI3hhOzwvc3ZnPg==;" vertex="1" parent="1">
          <mxGeometry x="20" y="193.5" width="74.17" height="47" as="geometry" />
        </mxCell>
        <mxCell id="e5oLFLb0LMOiWfZk1AVb-6" value="SNMPPROC05/be10" style="shape=image;verticalLabelPosition=bottom;labelBackgroundColor=#ffffff;verticalAlign=top;aspect=fixed;imageAspect=0;image=data:image/svg+xml,PHN2ZyB4bWxuczpjYz0iaHR0cDovL2NyZWF0aXZlY29tbW9ucy5vcmcvbnMjIiB4bWxuczpkYz0iaHR0cDovL3B1cmwub3JnL2RjL2VsZW1lbnRzLzEuMS8iIHhtbG5zOmlua3NjYXBlPSJodHRwOi8vd3d3Lmlua3NjYXBlLm9yZy9uYW1lc3BhY2VzL2lua3NjYXBlIiB4bWxuczpyZGY9Imh0dHA6Ly93d3cudzMub3JnLzE5OTkvMDIvMjItcmRmLXN5bnRheC1ucyMiIHhtbG5zOnNvZGlwb2RpPSJodHRwOi8vc29kaXBvZGkuc291cmNlZm9yZ2UubmV0L0RURC9zb2RpcG9kaS0wLmR0ZCIgeG1sbnM6c3ZnPSJodHRwOi8vd3d3LnczLm9yZy8yMDAwL3N2ZyIgeG1sbnM9Imh0dHA6Ly93d3cudzMub3JnLzIwMDAvc3ZnIiB4bWxuczp4bGluaz0iaHR0cDovL3d3dy53My5vcmcvMTk5OS94bGluayIgdmVyc2lvbj0iMS4xIiBpZD0ic3ZnMjQ1NjgiIGlua3NjYXBlOnZlcnNpb249IjAuOTIuMyAoMjQwNTU0NiwgMjAxOC0wMy0xMSkiIHNvZGlwb2RpOmRvY25hbWU9InNlcnZlcl9ncmVlbi5zdmciIHg9IjBweCIgeT0iMHB4IiB2aWV3Qm94PSIwIDAgMzQuOTMgNTguOTEiIHN0eWxlPSJlbmFibGUtYmFja2dyb3VuZDpuZXcgMCAwIDM0LjkzIDU4LjkxOyIgeG1sOnNwYWNlPSJwcmVzZXJ2ZSI+JiN4YTs8c29kaXBvZGk6bmFtZWR2aWV3IGJvcmRlcmNvbG9yPSIjNjY2NjY2IiBib3JkZXJvcGFjaXR5PSIxIiBmaXQtbWFyZ2luLWJvdHRvbT0iMCIgZml0LW1hcmdpbi1sZWZ0PSIwIiBmaXQtbWFyZ2luLXJpZ2h0PSIwIiBmaXQtbWFyZ2luLXRvcD0iMCIgZ3JpZHRvbGVyYW5jZT0iMTAiIGd1aWRldG9sZXJhbmNlPSIxMCIgaWQ9Im5hbWVkdmlldzI0NTcwIiBpbmtzY2FwZTpjdXJyZW50LWxheWVyPSJzdmcyNDU2OCIgaW5rc2NhcGU6Y3g9IjIzLjI4OTk4NSIgaW5rc2NhcGU6Y3k9IjM5LjI3NDk3MyIgaW5rc2NhcGU6cGFnZW9wYWNpdHk9IjAiIGlua3NjYXBlOnBhZ2VzaGFkb3c9IjIiIGlua3NjYXBlOndpbmRvdy1oZWlnaHQ9IjEwMTciIGlua3NjYXBlOndpbmRvdy1tYXhpbWl6ZWQ9IjEiIGlua3NjYXBlOndpbmRvdy13aWR0aD0iMTkyMCIgaW5rc2NhcGU6d2luZG93LXg9Ii04IiBpbmtzY2FwZTp3aW5kb3cteT0iLTgiIGlua3NjYXBlOnpvb209IjEwLjc2MzUwOCIgb2JqZWN0dG9sZXJhbmNlPSIxMCIgcGFnZWNvbG9yPSIjZmZmZmZmIiBzaG93Z3JpZD0iZmFsc2UiPiYjeGE7CTwvc29kaXBvZGk6bmFtZWR2aWV3PiYjeGE7PGcgaWQ9ImcyNDU2NiIgdHJhbnNmb3JtPSJ0cmFuc2xhdGUoLTAuNzUwMDIzNTIsLTAuNzUpIj4mI3hhOwk8dGl0bGUgaWQ9InRpdGxlMjQ0OTYiPlBhZ2UtMTwvdGl0bGU+JiN4YTsJPGcgaWQ9Imdyb3VwNzU4MC0xIiB0cmFuc2Zvcm09InRyYW5zbGF0ZSgxLjUsLTEuNSkiPiYjeGE7CQk8dGl0bGUgaWQ9InRpdGxlMjQ0OTgiPlNlcnZlciAoR3JlZW4pPC90aXRsZT4mI3hhOwkJPGcgaWQ9InNoYXBlNzU4MS0yIj4mI3hhOwkJCTx0aXRsZSBpZD0idGl0bGUyNDUwMCI+cmVjdDgwMjA8L3RpdGxlPiYjeGE7CQkJJiN4YTsJCQkJPHJlY3QgaWQ9InJlY3QyNDUwMiIgeD0iMCIgeT0iMyIgc3R5bGU9ImZpbGw6I0ZGRkZGRjtzdHJva2U6IzU1NTU1NTtzdHJva2Utd2lkdGg6MS41O3N0cm9rZS1taXRlcmxpbWl0OjM7IiB3aWR0aD0iMzMuNDQiIGhlaWdodD0iNTcuNDEiLz4mI3hhOwkJPC9nPiYjeGE7CQk8ZyBpZD0ic2hhcGU3NTgyLTQiIHRyYW5zZm9ybT0idHJhbnNsYXRlKDE2LjQwMjUsLTAuNzcyNTAxKSI+JiN4YTsJCQk8dGl0bGUgaWQ9InRpdGxlMjQ1MDUiPnJlY3Q4MDIyPC90aXRsZT4mI3hhOwkJCTxyZWN0IGlkPSJyZWN0MjQ1MDciIHg9IjAiIHk9IjQuNTQiIHN0eWxlPSJmaWxsOiNGMkYyRjI7IiB3aWR0aD0iMTYuNCIgaGVpZ2h0PSI1NS44OCIvPiYjeGE7CQk8L2c+JiN4YTsJCTxnIGlkPSJzaGFwZTc1ODMtNiIgdHJhbnNmb3JtPSJ0cmFuc2xhdGUoMS4yNiwtNDEuMDEpIj4mI3hhOwkJCTx0aXRsZSBpZD0idGl0bGUyNDUxMCI+cmVjdDgwMjQ8L3RpdGxlPiYjeGE7CQkJPHJlY3QgaWQ9InJlY3QyNDUxMiIgeD0iMCIgeT0iNTguNTIiIHN0eWxlPSJmaWxsOiMzMTc1MkY7IiB3aWR0aD0iMTUuMTQiIGhlaWdodD0iMS44OSIvPiYjeGE7CQk8L2c+JiN4YTsJCTxnIGlkPSJzaGFwZTc1ODQtOCIgdHJhbnNmb3JtPSJ0cmFuc2xhdGUoMS4yNiwtNDkuODM3NSkiPiYjeGE7CQkJPHRpdGxlIGlkPSJ0aXRsZTI0NTE1Ij5wb2x5Z29uODAyNjwvdGl0bGU+JiN4YTsJCQk8cmVjdCBpZD0icmVjdDI0NTE3IiB4PSIwIiB5PSI1OC41MSIgc3R5bGU9ImZpbGw6bm9uZTsiIHdpZHRoPSIyMi43MSIgaGVpZ2h0PSIxLjkiLz4mI3hhOwkJPC9nPiYjeGE7CQk8ZyBpZD0ic2hhcGU3NTg1LTEwIiB0cmFuc2Zvcm09InRyYW5zbGF0ZSgxLjI2LC00OS44Mzc1KSI+JiN4YTsJCQk8dGl0bGUgaWQ9InRpdGxlMjQ1MjAiPnBvbHlsaW5lODAyODwvdGl0bGU+JiN4YTsJCQk8cmVjdCBpZD0icmVjdDI0NTIyIiB4PSIwIiB5PSI1OC41MSIgc3R5bGU9ImZpbGw6bm9uZTsiIHdpZHRoPSIyMi43MSIgaGVpZ2h0PSIxLjkiLz4mI3hhOwkJPC9nPiYjeGE7CQk8ZyBpZD0ic2hhcGU3NTg2LTEyIiB0cmFuc2Zvcm09InRyYW5zbGF0ZSgxLjI2LC00NS40Mjc1KSI+JiN4YTsJCQk8dGl0bGUgaWQ9InRpdGxlMjQ1MjUiPnJlY3Q4MDMwPC90aXRsZT4mI3hhOwkJCTxyZWN0IGlkPSJyZWN0MjQ1MjciIHg9IjAiIHk9IjU4LjUyIiBzdHlsZT0iZmlsbDojMzE3NTJGOyIgd2lkdGg9IjE1LjE0IiBoZWlnaHQ9IjEuODkiLz4mI3hhOwkJPC9nPiYjeGE7CQk8ZyBpZD0ic2hhcGU3NTg3LTE0IiB0cmFuc2Zvcm09InRyYW5zbGF0ZSgxLjI2LC00OS44NDUpIj4mI3hhOwkJCTx0aXRsZSBpZD0idGl0bGUyNDUzMCI+cmVjdDgwMzI8L3RpdGxlPiYjeGE7CQkJPHJlY3QgaWQ9InJlY3QyNDUzMiIgeD0iMCIgeT0iNTguNTIiIHN0eWxlPSJmaWxsOiMzMTc1MkY7IiB3aWR0aD0iMTUuMTQiIGhlaWdodD0iMS44OSIvPiYjeGE7CQk8L2c+JiN4YTsJCTxnIGlkPSJzaGFwZTc1ODgtMTYiIHRyYW5zZm9ybT0idHJhbnNsYXRlKDE2LjQwMjUsLTQxLjAxKSI+JiN4YTsJCQk8dGl0bGUgaWQ9InRpdGxlMjQ1MzUiPnJlY3Q4MDM0PC90aXRsZT4mI3hhOwkJCTxyZWN0IGlkPSJyZWN0MjQ1MzciIHg9IjAiIHk9IjU4LjUyIiBzdHlsZT0iZmlsbDojNTU1NTU1OyIgd2lkdGg9IjE2LjQiIGhlaWdodD0iMS44OSIvPiYjeGE7CQk8L2c+JiN4YTsJCTxnIGlkPSJzaGFwZTc1ODktMTgiIHRyYW5zZm9ybT0idHJhbnNsYXRlKDE2LjQwMjUsLTQ1LjQyNzUpIj4mI3hhOwkJCTx0aXRsZSBpZD0idGl0bGUyNDU0MCI+cmVjdDgwMzY8L3RpdGxlPiYjeGE7CQkJPHJlY3QgaWQ9InJlY3QyNDU0MiIgeD0iMCIgeT0iNTguNTIiIHN0eWxlPSJmaWxsOiM1NTU1NTU7IiB3aWR0aD0iMTYuNCIgaGVpZ2h0PSIxLjg5Ii8+JiN4YTsJCTwvZz4mI3hhOwkJPGcgaWQ9InNoYXBlNzU5MC0yMCIgdHJhbnNmb3JtPSJ0cmFuc2xhdGUoMTYuNDAyNSwtNDkuODQ1KSI+JiN4YTsJCQk8dGl0bGUgaWQ9InRpdGxlMjQ1NDUiPnJlY3Q4MDM4PC90aXRsZT4mI3hhOwkJCTxyZWN0IGlkPSJyZWN0MjQ1NDciIHg9IjAiIHk9IjU4LjUyIiBzdHlsZT0iZmlsbDojNTU1NTU1OyIgd2lkdGg9IjE2LjQiIGhlaWdodD0iMS44OSIvPiYjeGE7CQk8L2c+JiN4YTsJCTxnIGlkPSJzaGFwZTc1OTEtMjIiIHRyYW5zZm9ybT0idHJhbnNsYXRlKDAuNjMsLTQ5Ljg0NSkiPiYjeGE7CQkJPHRpdGxlIGlkPSJ0aXRsZTI0NTUwIj5yZWN0ODA0MDwvdGl0bGU+JiN4YTsJCQk8cmVjdCBpZD0icmVjdDI0NTUyIiB4PSIwIiB5PSI1OC41MiIgc3R5bGU9ImZpbGw6IzU1NTU1NTsiIHdpZHRoPSIxLjg5IiBoZWlnaHQ9IjEuODkiLz4mI3hhOwkJPC9nPiYjeGE7CQk8ZyBpZD0ic2hhcGU3NTkyLTI0IiB0cmFuc2Zvcm09InRyYW5zbGF0ZSgwLjYzLC00NS40Mjc1KSI+JiN4YTsJCQk8dGl0bGUgaWQ9InRpdGxlMjQ1NTUiPnJlY3Q4MDQyPC90aXRsZT4mI3hhOwkJCTxyZWN0IGlkPSJyZWN0MjQ1NTciIHg9IjAiIHk9IjU4LjUyIiBzdHlsZT0iZmlsbDojNTU1NTU1OyIgd2lkdGg9IjEuODkiIGhlaWdodD0iMS44OSIvPiYjeGE7CQk8L2c+JiN4YTsJCTxnIGlkPSJzaGFwZTc1OTMtMjYiIHRyYW5zZm9ybT0idHJhbnNsYXRlKDAuNjMsLTQxLjAxKSI+JiN4YTsJCQk8dGl0bGUgaWQ9InRpdGxlMjQ1NjAiPnJlY3Q4MDQ0PC90aXRsZT4mI3hhOwkJCTxyZWN0IGlkPSJyZWN0MjQ1NjIiIHg9IjAiIHk9IjU4LjUyIiBzdHlsZT0iZmlsbDojNTU1NTU1OyIgd2lkdGg9IjEuODkiIGhlaWdodD0iMS44OSIvPiYjeGE7CQk8L2c+JiN4YTsJPC9nPiYjeGE7PC9nPiYjeGE7PC9zdmc+;" vertex="1" parent="1">
          <mxGeometry x="1140" y="80" width="160.17" height="270" as="geometry" />
        </mxCell>
        <mxCell id="e5oLFLb0LMOiWfZk1AVb-12" value="" style="rounded=1;whiteSpace=wrap;html=1;fillColor=#e1d5e7;dashed=1;strokeColor=#9673a6;opacity=50;" vertex="1" parent="1">
          <mxGeometry x="10" y="274" width="920" height="60" as="geometry" />
        </mxCell>
        <mxCell id="e5oLFLb0LMOiWfZk1AVb-11" value="" style="points=[[0,0,0],[0.25,0,0],[0.5,0,0],[0.75,0,0],[1,0,0],[0,1,0],[0.25,1,0],[0.5,1,0],[0.75,1,0],[1,1,0],[0,0.25,0],[0,0.5,0],[0,0.75,0],[1,0.25,0],[1,0.5,0],[1,0.75,0]];outlineConnect=0;fontColor=#232F3E;gradientColor=#945DF2;gradientDirection=north;fillColor=#5A30B5;strokeColor=#ffffff;dashed=0;verticalLabelPosition=bottom;verticalAlign=top;align=center;html=1;fontSize=12;fontStyle=0;aspect=fixed;shape=mxgraph.aws4.resourceIcon;resIcon=mxgraph.aws4.managed_streaming_for_kafka;" vertex="1" parent="1">
          <mxGeometry x="30" y="280" width="48" height="48" as="geometry" />
        </mxCell>
        <mxCell id="e5oLFLb0LMOiWfZk1AVb-17" value="" style="rounded=1;whiteSpace=wrap;html=1;fillColor=#fff2cc;dashed=1;strokeColor=#d6b656;opacity=50;" vertex="1" parent="1">
          <mxGeometry x="10" y="94" width="1300" height="60" as="geometry" />
        </mxCell>
        <mxCell id="e5oLFLb0LMOiWfZk1AVb-3" value="" style="shape=image;verticalLabelPosition=bottom;labelBackgroundColor=#ffffff;verticalAlign=top;aspect=fixed;imageAspect=0;image=data:image/svg+xml,PHN2ZyB4bWxuczpjYz0iaHR0cDovL2NyZWF0aXZlY29tbW9ucy5vcmcvbnMjIiB4bWxuczpkYz0iaHR0cDovL3B1cmwub3JnL2RjL2VsZW1lbnRzLzEuMS8iIHhtbG5zOmlua3NjYXBlPSJodHRwOi8vd3d3Lmlua3NjYXBlLm9yZy9uYW1lc3BhY2VzL2lua3NjYXBlIiB4bWxuczpyZGY9Imh0dHA6Ly93d3cudzMub3JnLzE5OTkvMDIvMjItcmRmLXN5bnRheC1ucyMiIHhtbG5zOnNvZGlwb2RpPSJodHRwOi8vc29kaXBvZGkuc291cmNlZm9yZ2UubmV0L0RURC9zb2RpcG9kaS0wLmR0ZCIgeG1sbnM6c3ZnPSJodHRwOi8vd3d3LnczLm9yZy8yMDAwL3N2ZyIgeG1sbnM9Imh0dHA6Ly93d3cudzMub3JnLzIwMDAvc3ZnIiB4bWxuczp4bGluaz0iaHR0cDovL3d3dy53My5vcmcvMTk5OS94bGluayIgdmVyc2lvbj0iMS4xIiBpZD0ic3ZnMTk2OTUxIiBpbmtzY2FwZTp2ZXJzaW9uPSIwLjkyLjMgKDI0MDU1NDYsIDIwMTgtMDMtMTEpIiBzb2RpcG9kaTpkb2NuYW1lPSJweXRob25fdG9vbHNfYW5kX3Nkay5zdmciIHg9IjBweCIgeT0iMHB4IiB2aWV3Qm94PSIwIDAgNDggNDgiIHN0eWxlPSJlbmFibGUtYmFja2dyb3VuZDpuZXcgMCAwIDQ4IDQ4OyIgeG1sOnNwYWNlPSJwcmVzZXJ2ZSI+JiN4YTs8c29kaXBvZGk6bmFtZWR2aWV3IGJvcmRlcmNvbG9yPSIjNjY2NjY2IiBib3JkZXJvcGFjaXR5PSIxIiBmaXQtbWFyZ2luLWJvdHRvbT0iMCIgZml0LW1hcmdpbi1sZWZ0PSIwIiBmaXQtbWFyZ2luLXJpZ2h0PSIwIiBmaXQtbWFyZ2luLXRvcD0iMCIgZ3JpZHRvbGVyYW5jZT0iMTAiIGd1aWRldG9sZXJhbmNlPSIxMCIgaWQ9Im5hbWVkdmlldzE5Njk1MyIgaW5rc2NhcGU6Y3VycmVudC1sYXllcj0ic3ZnMTk2OTUxIiBpbmtzY2FwZTpjeD0iMzIuMDAwMDE1IiBpbmtzY2FwZTpjeT0iMzIuMDAwNTg2IiBpbmtzY2FwZTpwYWdlb3BhY2l0eT0iMCIgaW5rc2NhcGU6cGFnZXNoYWRvdz0iMiIgaW5rc2NhcGU6d2luZG93LWhlaWdodD0iMTAxNyIgaW5rc2NhcGU6d2luZG93LW1heGltaXplZD0iMSIgaW5rc2NhcGU6d2luZG93LXdpZHRoPSIxOTIwIiBpbmtzY2FwZTp3aW5kb3cteD0iLTgiIGlua3NjYXBlOndpbmRvdy15PSItOCIgaW5rc2NhcGU6em9vbT0iMTAuMjcyOTE3IiBvYmplY3R0b2xlcmFuY2U9IjEwIiBwYWdlY29sb3I9IiNmZmZmZmYiIHNob3dncmlkPSJmYWxzZSI+JiN4YTsJPC9zb2RpcG9kaTpuYW1lZHZpZXc+JiN4YTs8ZyBpZD0iZzE5Njk0OSIgdHJhbnNmb3JtPSJ0cmFuc2xhdGUoLTcuNjUsLTcuNjQ5MjgwNikiPiYjeGE7CTx0aXRsZSBpZD0idGl0bGUxOTY5MDUiPlBhZ2UtMTwvdGl0bGU+JiN4YTsJPGcgaWQ9Imdyb3VwMTE3Ny0xIiB0cmFuc2Zvcm09InRyYW5zbGF0ZSg3LjY1LC03LjYxMzQyKSI+JiN4YTsJCTx0aXRsZSBpZD0idGl0bGUxOTY5MDciPlB5dGhvbiBUb29scyBhbmQgU0RLPC90aXRsZT4mI3hhOwkJPGcgaWQ9Imdyb3VwMTE3OC0yIj4mI3hhOwkJCTx0aXRsZSBpZD0idGl0bGUxOTY5MDkiPlNoZWV0LjExNzg8L3RpdGxlPiYjeGE7CQkJPGcgaWQ9Imdyb3VwMTE3OS0zIiB0cmFuc2Zvcm09InRyYW5zbGF0ZSgwLC0xMi4zMTQ3KSI+JiN4YTsJCQkJPHRpdGxlIGlkPSJ0aXRsZTE5NjkxMSI+U2hlZXQuMTE3OTwvdGl0bGU+JiN4YTsJCQkJPGcgaWQ9InNoYXBlMTE4MC00Ij4mI3hhOwkJCQkJPHRpdGxlIGlkPSJ0aXRsZTE5NjkxMyI+U2hlZXQuMTE4MDwvdGl0bGU+JiN4YTsJCQkJCTxwYXRoIGlkPSJwYXRoMTk2OTE1IiBpbmtzY2FwZTpjb25uZWN0b3ItY3VydmF0dXJlPSIwIiBzdHlsZT0iZmlsbDojMzc3MkE0OyIgZD0iTTAsNTEuMTdjMC4wMi0wLjA2LDAuMDQtMC4xMywwLjA1LTAuMiAgICAgICBjMC4wNC0wLjcsMC4wNC0xLjQsMC4xMS0yLjFjMC4yNC0yLjI2LDAuNzYtNC40NCwyLjE4LTYuMjhjMS4xLTEuNDQsMi41NC0yLjMsNC4zMy0yLjU0YzAuMjUtMC4wMywwLjUxLTAuMDQsMC43Ni0wLjA0ICAgICAgIGM1LjM5LDAsMTAuNzksMCwxNi4xOCwwYzAuMzEsMCwwLjMxLDAsMC4zMi0wLjMyYzAtMC4zNy0wLjAyLTAuNzUsMC0xLjEyYzAuMDEtMC4yMy0wLjA3LTAuMjktMC4yOS0wLjI5ICAgICAgIGMtMi45OCwwLjAxLTUuOTUsMC4wMS04LjkzLDAuMDFjLTAuNywwLTEuMzktMC4wMS0yLjA5LDBjLTAuMTksMC0wLjI2LTAuMDUtMC4yNS0wLjI1YzAtMS44My0wLjAxLTMuNjcsMC01LjUgICAgICAgYzAuMDEtMC44MiwwLjQtMS41MSwwLjkzLTIuMTFjMC43NC0wLjg0LDEuNjktMS4zNiwyLjcxLTEuNzVjMS4yNi0wLjQ4LDIuNTctMC43MywzLjg5LTAuODljMS44My0wLjIzLDMuNjYtMC4yNSw1LjQ5LTAuMTcgICAgICAgYzEuOTcsMC4wOCwzLjkyLDAuMzUsNS43OCwxLjA3YzEuMjYsMC40OSwyLjQsMS4xNiwzLjIzLDIuMjZjMC42OSwwLjkxLDEuMDEsMS45MiwwLjk1LDMuMDhjLTAuMDUsMC45My0wLjAyLDEuODctMC4wMSwyLjgxICAgICAgIGMwLDEuNzMsMC4wMSwzLjQ2LDAuMDEsNS4xOWMwLDEuMDIsMC4wMiwyLjA0LTAuMDUsMy4wNmMtMC4xNCwyLjQtMS4yOSw0LjExLTMuNTEsNS4wNGMtMS4wMSwwLjQyLTIuMDYsMC42MS0zLjE0LDAuNjEgICAgICAgYy0zLjgyLDAtNy42NS0wLjAxLTExLjQ3LDBjLTEuMjIsMC0yLjM5LDAuMjctMy40NSwwLjkxYy0xLjQsMC44NS0yLjIsMi4xNS0yLjY1LDMuN2MtMC4yMiwwLjc3LTAuMzEsMS41Ny0wLjMyLDIuMzcgICAgICAgYzAsMS43MywwLDMuNDYsMCw1LjE5YzAsMC4zNSwwLDAuMzUtMC4zNCwwLjM1Yy0xLjI1LDAtMi40OSwwLjA0LTMuNzQsMC4wMWMtMS4yNy0wLjA0LTIuMzctMC41NC0zLjMyLTEuMzcgICAgICAgYy0xLjEyLTAuOTYtMS44Mi0yLjE5LTIuMzEtMy41NmMtMC40Ni0xLjI1LTAuNzMtMi41NC0wLjg0LTMuODZjLTAuMDgtMC44NC0wLjExLTEuNjgtMC4xNi0yLjUyICAgICAgIEMwLjA0LDUxLjg3LDAuMDIsNTEuNzgsMCw1MS42OUMwLDUxLjUyLDAsNTEuMzUsMCw1MS4xN3oiLz4mI3hhOwkJCQk8L2c+JiN4YTsJCQkJPGcgaWQ9InNoYXBlMTE4MS02IiB0cmFuc2Zvcm09InRyYW5zbGF0ZSgxNS4yMDMzLC0yNy44MzIpIj4mI3hhOwkJCQkJPHRpdGxlIGlkPSJ0aXRsZTE5NjkxOCI+U2hlZXQuMTE4MTwvdGl0bGU+JiN4YTsJCQkJCTxwYXRoIGlkPSJwYXRoMTk2OTIwIiBpbmtzY2FwZTpjb25uZWN0b3ItY3VydmF0dXJlPSIwIiBkPSJNMCw2MS4xNWMwLDEuMTksMC45NCwyLjE1LDIuMTEsMi4xNWMxLjE1LDAsMi4xMS0wLjk3LDIuMTEtMi4xMyAgICAgICBjMC0xLjE5LTAuOTUtMi4xNi0yLjExLTIuMTVDMC45Myw1OS4wMywwLDU5Ljk3LDAsNjEuMTV6Ii8+JiN4YTsJCQkJPC9nPiYjeGE7CQkJCTxnIGlkPSJzaGFwZTExODItOCIgdHJhbnNmb3JtPSJ0cmFuc2xhdGUoMTUuMjAzMywtMjcuODMyKSI+JiN4YTsJCQkJCTx0aXRsZSBpZD0idGl0bGUxOTY5MjMiPlNoZWV0LjExODI8L3RpdGxlPiYjeGE7CQkJCQk8cGF0aCBpZD0icGF0aDE5NjkyNSIgaW5rc2NhcGU6Y29ubmVjdG9yLWN1cnZhdHVyZT0iMCIgc3R5bGU9ImZpbGw6I0ZGRkZGRjsiIGQ9Ik0wLDYxLjE1YzAtMS4xOCwwLjkzLTIuMTIsMi4xMS0yLjEzICAgICAgIGMxLjE2LTAuMDEsMi4xMSwwLjk2LDIuMTEsMi4xNWMwLDEuMTYtMC45NiwyLjEzLTIuMTEsMi4xM0MwLjk0LDYzLjMsMCw2Mi4zNCwwLDYxLjE1eiIvPiYjeGE7CQkJCTwvZz4mI3hhOwkJCTwvZz4mI3hhOwkJCTxnIGlkPSJncm91cDExODMtMTAiIHRyYW5zZm9ybT0idHJhbnNsYXRlKDEyLjU5NCkiPiYjeGE7CQkJCTx0aXRsZSBpZD0idGl0bGUxOTY5MjkiPlNoZWV0LjExODM8L3RpdGxlPiYjeGE7CQkJCTxnIGlkPSJzaGFwZTExODQtMTEiPiYjeGE7CQkJCQk8dGl0bGUgaWQ9InRpdGxlMTk2OTMxIj5TaGVldC4xMTg0PC90aXRsZT4mI3hhOwkJCQkJPHBhdGggaWQ9InBhdGgxOTY5MzMiIGlua3NjYXBlOmNvbm5lY3Rvci1jdXJ2YXR1cmU9IjAiIHN0eWxlPSJmaWxsOiNGRkRBNEI7IiBkPSJNMzUuNDEsMzkuNjZjLTAuMDIsMC4wNy0wLjA1LDAuMTQtMC4wNSwwLjIxICAgICAgIGMtMC4wNCwwLjctMC4wNSwxLjQtMC4xMiwyLjA5Yy0wLjIzLDIuMjctMC43NSw0LjQ1LTIuMTcsNi4yOWMtMS4xLDEuNDQtMi41NCwyLjMtNC4zNCwyLjUzYy0wLjI1LDAuMDQtMC41LDAuMDUtMC43NiwwLjA1ICAgICAgIGMtNS4zOSwwLTEwLjc4LDAtMTYuMTcsMGMtMC4zMiwwLTAuMzIsMC0wLjMyLDAuMzJjMCwwLjM3LDAuMDEsMC43NSwwLDEuMTJjLTAuMDIsMC4yMywwLjA3LDAuMjksMC4yOCwwLjI5ICAgICAgIGMyLjk4LTAuMDEsNS45Ni0wLjAxLDguOTQtMC4wMWMwLjY5LDAsMS4zOSwwLjAxLDIuMDksMGMwLjE5LDAsMC4yNSwwLjA1LDAuMjUsMC4yNWMtMC4wMSwxLjgzLDAuMDEsMy42Ny0wLjAxLDUuNSAgICAgICBjLTAuMDEsMC44Mi0wLjM5LDEuNTEtMC45MywyLjExYy0wLjc0LDAuODMtMS42OCwxLjM2LTIuNywxLjc1Yy0xLjI2LDAuNDgtMi41NywwLjcyLTMuOSwwLjg5Yy0xLjgyLDAuMjMtMy42NSwwLjI1LTUuNDgsMC4xNyAgICAgICBjLTEuOTctMC4wOS0zLjkyLTAuMzUtNS43OC0xLjA3Yy0xLjI2LTAuNDktMi40LTEuMTYtMy4yNC0yLjI3Yy0wLjY4LTAuOS0xLTEuOTItMC45NC0zLjA3YzAuMDUtMC45MywwLjAxLTEuODcsMC4wMS0yLjgxICAgICAgIGMwLTEuNzMtMC4wMS0zLjQ2LTAuMDEtNS4xOWMwLTEuMDItMC4wMi0yLjA0LDAuMDQtMy4wNmMwLjE0LTIuNCwxLjI5LTQuMTEsMy41Mi01LjA0YzEtMC40MywyLjA2LTAuNjEsMy4xNC0wLjYxICAgICAgIGMzLjgyLDAsNy42NCwwLjAxLDExLjQ2LDBjMS4yMywwLDIuNC0wLjI3LDMuNDYtMC45MWMxLjQtMC44NSwyLjItMi4xNSwyLjY0LTMuN2MwLjIyLTAuNzcsMC4zMi0xLjU3LDAuMzItMi4zNyAgICAgICBjMC4wMS0xLjczLDAtMy40NiwwLTUuMmMwLTAuMzQsMC0wLjM0LDAuMzUtMC4zNGMxLjI0LDAsMi40OS0wLjA0LDMuNzMtMC4wMWMxLjI3LDAuMDQsMi4zNywwLjU0LDMuMzMsMS4zNyAgICAgICBjMS4xMSwwLjk2LDEuODEsMi4xOSwyLjMxLDMuNTZjMC40NSwxLjI1LDAuNzIsMi41NCwwLjg0LDMuODZjMC4wNywwLjg0LDAuMTEsMS42OCwwLjE2LDIuNTFjMCwwLjEsMC4wMywwLjE5LDAuMDUsMC4yOCAgICAgICBDMzUuNDEsMzkuMzIsMzUuNDEsMzkuNDksMzUuNDEsMzkuNjZ6Ii8+JiN4YTsJCQkJPC9nPiYjeGE7CQkJCTxnIGlkPSJzaGFwZTExODUtMTMiIHRyYW5zZm9ybT0idHJhbnNsYXRlKDE1Ljk4MTMsLTMuOTEyKSI+JiN4YTsJCQkJCTx0aXRsZSBpZD0idGl0bGUxOTY5MzYiPlNoZWV0LjExODU8L3RpdGxlPiYjeGE7CQkJCQk8cGF0aCBpZD0icGF0aDE5NjkzOCIgaW5rc2NhcGU6Y29ubmVjdG9yLWN1cnZhdHVyZT0iMCIgZD0iTTQuMjIsNjEuMTZjMC0xLjE5LTAuOTQtMi4xNS0yLjExLTIuMTVDMC45Niw1OS4wMiwwLDU5Ljk4LDAsNjEuMTQgICAgICAgYzAsMS4xOSwwLjk1LDIuMTYsMi4xMiwyLjE1UzQuMjIsNjIuMzQsNC4yMiw2MS4xNnoiLz4mI3hhOwkJCQk8L2c+JiN4YTsJCQkJPGcgaWQ9InNoYXBlMTE4Ni0xNSIgdHJhbnNmb3JtPSJ0cmFuc2xhdGUoMTUuOTgwNywtMy45MTIpIj4mI3hhOwkJCQkJPHRpdGxlIGlkPSJ0aXRsZTE5Njk0MSI+U2hlZXQuMTE4NjwvdGl0bGU+JiN4YTsJCQkJCTxwYXRoIGlkPSJwYXRoMTk2OTQzIiBpbmtzY2FwZTpjb25uZWN0b3ItY3VydmF0dXJlPSIwIiBzdHlsZT0iZmlsbDojRkZGRkZGOyIgZD0iTTQuMjIsNjEuMTZjMCwxLjE4LTAuOTMsMi4xMi0yLjEsMi4xMyAgICAgICBDMC45NSw2My4zLDAsNjIuMzMsMCw2MS4xNGMwLTEuMTYsMC45Ni0yLjEyLDIuMTEtMi4xM0MzLjI4LDU5LjAxLDQuMjIsNTkuOTcsNC4yMiw2MS4xNnoiLz4mI3hhOwkJCQk8L2c+JiN4YTsJCQk8L2c+JiN4YTsJCTwvZz4mI3hhOwk8L2c+JiN4YTs8L2c+JiN4YTs8L3N2Zz4=;" vertex="1" parent="1">
          <mxGeometry x="30" y="100" width="48" height="48" as="geometry" />
        </mxCell>
        <mxCell id="e5oLFLb0LMOiWfZk1AVb-18" value="AXeventd" style="text;html=1;strokeColor=none;fillColor=none;align=center;verticalAlign=middle;whiteSpace=wrap;rounded=0;dashed=1;opacity=50;" vertex="1" parent="1">
          <mxGeometry x="100" y="114" width="40" height="20" as="geometry" />
        </mxCell>
        <mxCell id="e5oLFLb0LMOiWfZk1AVb-19" value="CMTS/CM Store" style="text;html=1;strokeColor=none;fillColor=none;align=center;verticalAlign=middle;whiteSpace=wrap;rounded=0;dashed=1;opacity=50;" vertex="1" parent="1">
          <mxGeometry x="100" y="205" width="40" height="20" as="geometry" />
        </mxCell>
        <mxCell id="e5oLFLb0LMOiWfZk1AVb-20" value="Kafka Be" style="text;html=1;strokeColor=none;fillColor=none;align=center;verticalAlign=middle;whiteSpace=wrap;rounded=0;dashed=1;opacity=50;" vertex="1" parent="1">
          <mxGeometry x="100" y="294" width="60" height="20" as="geometry" />
        </mxCell>
        <mxCell id="e5oLFLb0LMOiWfZk1AVb-22" value="SNMPPROC02/be6" style="shape=image;verticalLabelPosition=bottom;labelBackgroundColor=#ffffff;verticalAlign=top;aspect=fixed;imageAspect=0;image=data:image/svg+xml,PHN2ZyB4bWxuczpjYz0iaHR0cDovL2NyZWF0aXZlY29tbW9ucy5vcmcvbnMjIiB4bWxuczpkYz0iaHR0cDovL3B1cmwub3JnL2RjL2VsZW1lbnRzLzEuMS8iIHhtbG5zOmlua3NjYXBlPSJodHRwOi8vd3d3Lmlua3NjYXBlLm9yZy9uYW1lc3BhY2VzL2lua3NjYXBlIiB4bWxuczpyZGY9Imh0dHA6Ly93d3cudzMub3JnLzE5OTkvMDIvMjItcmRmLXN5bnRheC1ucyMiIHhtbG5zOnNvZGlwb2RpPSJodHRwOi8vc29kaXBvZGkuc291cmNlZm9yZ2UubmV0L0RURC9zb2RpcG9kaS0wLmR0ZCIgeG1sbnM6c3ZnPSJodHRwOi8vd3d3LnczLm9yZy8yMDAwL3N2ZyIgeG1sbnM9Imh0dHA6Ly93d3cudzMub3JnLzIwMDAvc3ZnIiB4bWxuczp4bGluaz0iaHR0cDovL3d3dy53My5vcmcvMTk5OS94bGluayIgdmVyc2lvbj0iMS4xIiBpZD0ic3ZnMjQ1NjgiIGlua3NjYXBlOnZlcnNpb249IjAuOTIuMyAoMjQwNTU0NiwgMjAxOC0wMy0xMSkiIHNvZGlwb2RpOmRvY25hbWU9InNlcnZlcl9ncmVlbi5zdmciIHg9IjBweCIgeT0iMHB4IiB2aWV3Qm94PSIwIDAgMzQuOTMgNTguOTEiIHN0eWxlPSJlbmFibGUtYmFja2dyb3VuZDpuZXcgMCAwIDM0LjkzIDU4LjkxOyIgeG1sOnNwYWNlPSJwcmVzZXJ2ZSI+JiN4YTs8c29kaXBvZGk6bmFtZWR2aWV3IGJvcmRlcmNvbG9yPSIjNjY2NjY2IiBib3JkZXJvcGFjaXR5PSIxIiBmaXQtbWFyZ2luLWJvdHRvbT0iMCIgZml0LW1hcmdpbi1sZWZ0PSIwIiBmaXQtbWFyZ2luLXJpZ2h0PSIwIiBmaXQtbWFyZ2luLXRvcD0iMCIgZ3JpZHRvbGVyYW5jZT0iMTAiIGd1aWRldG9sZXJhbmNlPSIxMCIgaWQ9Im5hbWVkdmlldzI0NTcwIiBpbmtzY2FwZTpjdXJyZW50LWxheWVyPSJzdmcyNDU2OCIgaW5rc2NhcGU6Y3g9IjIzLjI4OTk4NSIgaW5rc2NhcGU6Y3k9IjM5LjI3NDk3MyIgaW5rc2NhcGU6cGFnZW9wYWNpdHk9IjAiIGlua3NjYXBlOnBhZ2VzaGFkb3c9IjIiIGlua3NjYXBlOndpbmRvdy1oZWlnaHQ9IjEwMTciIGlua3NjYXBlOndpbmRvdy1tYXhpbWl6ZWQ9IjEiIGlua3NjYXBlOndpbmRvdy13aWR0aD0iMTkyMCIgaW5rc2NhcGU6d2luZG93LXg9Ii04IiBpbmtzY2FwZTp3aW5kb3cteT0iLTgiIGlua3NjYXBlOnpvb209IjEwLjc2MzUwOCIgb2JqZWN0dG9sZXJhbmNlPSIxMCIgcGFnZWNvbG9yPSIjZmZmZmZmIiBzaG93Z3JpZD0iZmFsc2UiPiYjeGE7CTwvc29kaXBvZGk6bmFtZWR2aWV3PiYjeGE7PGcgaWQ9ImcyNDU2NiIgdHJhbnNmb3JtPSJ0cmFuc2xhdGUoLTAuNzUwMDIzNTIsLTAuNzUpIj4mI3hhOwk8dGl0bGUgaWQ9InRpdGxlMjQ0OTYiPlBhZ2UtMTwvdGl0bGU+JiN4YTsJPGcgaWQ9Imdyb3VwNzU4MC0xIiB0cmFuc2Zvcm09InRyYW5zbGF0ZSgxLjUsLTEuNSkiPiYjeGE7CQk8dGl0bGUgaWQ9InRpdGxlMjQ0OTgiPlNlcnZlciAoR3JlZW4pPC90aXRsZT4mI3hhOwkJPGcgaWQ9InNoYXBlNzU4MS0yIj4mI3hhOwkJCTx0aXRsZSBpZD0idGl0bGUyNDUwMCI+cmVjdDgwMjA8L3RpdGxlPiYjeGE7CQkJJiN4YTsJCQkJPHJlY3QgaWQ9InJlY3QyNDUwMiIgeD0iMCIgeT0iMyIgc3R5bGU9ImZpbGw6I0ZGRkZGRjtzdHJva2U6IzU1NTU1NTtzdHJva2Utd2lkdGg6MS41O3N0cm9rZS1taXRlcmxpbWl0OjM7IiB3aWR0aD0iMzMuNDQiIGhlaWdodD0iNTcuNDEiLz4mI3hhOwkJPC9nPiYjeGE7CQk8ZyBpZD0ic2hhcGU3NTgyLTQiIHRyYW5zZm9ybT0idHJhbnNsYXRlKDE2LjQwMjUsLTAuNzcyNTAxKSI+JiN4YTsJCQk8dGl0bGUgaWQ9InRpdGxlMjQ1MDUiPnJlY3Q4MDIyPC90aXRsZT4mI3hhOwkJCTxyZWN0IGlkPSJyZWN0MjQ1MDciIHg9IjAiIHk9IjQuNTQiIHN0eWxlPSJmaWxsOiNGMkYyRjI7IiB3aWR0aD0iMTYuNCIgaGVpZ2h0PSI1NS44OCIvPiYjeGE7CQk8L2c+JiN4YTsJCTxnIGlkPSJzaGFwZTc1ODMtNiIgdHJhbnNmb3JtPSJ0cmFuc2xhdGUoMS4yNiwtNDEuMDEpIj4mI3hhOwkJCTx0aXRsZSBpZD0idGl0bGUyNDUxMCI+cmVjdDgwMjQ8L3RpdGxlPiYjeGE7CQkJPHJlY3QgaWQ9InJlY3QyNDUxMiIgeD0iMCIgeT0iNTguNTIiIHN0eWxlPSJmaWxsOiMzMTc1MkY7IiB3aWR0aD0iMTUuMTQiIGhlaWdodD0iMS44OSIvPiYjeGE7CQk8L2c+JiN4YTsJCTxnIGlkPSJzaGFwZTc1ODQtOCIgdHJhbnNmb3JtPSJ0cmFuc2xhdGUoMS4yNiwtNDkuODM3NSkiPiYjeGE7CQkJPHRpdGxlIGlkPSJ0aXRsZTI0NTE1Ij5wb2x5Z29uODAyNjwvdGl0bGU+JiN4YTsJCQk8cmVjdCBpZD0icmVjdDI0NTE3IiB4PSIwIiB5PSI1OC41MSIgc3R5bGU9ImZpbGw6bm9uZTsiIHdpZHRoPSIyMi43MSIgaGVpZ2h0PSIxLjkiLz4mI3hhOwkJPC9nPiYjeGE7CQk8ZyBpZD0ic2hhcGU3NTg1LTEwIiB0cmFuc2Zvcm09InRyYW5zbGF0ZSgxLjI2LC00OS44Mzc1KSI+JiN4YTsJCQk8dGl0bGUgaWQ9InRpdGxlMjQ1MjAiPnBvbHlsaW5lODAyODwvdGl0bGU+JiN4YTsJCQk8cmVjdCBpZD0icmVjdDI0NTIyIiB4PSIwIiB5PSI1OC41MSIgc3R5bGU9ImZpbGw6bm9uZTsiIHdpZHRoPSIyMi43MSIgaGVpZ2h0PSIxLjkiLz4mI3hhOwkJPC9nPiYjeGE7CQk8ZyBpZD0ic2hhcGU3NTg2LTEyIiB0cmFuc2Zvcm09InRyYW5zbGF0ZSgxLjI2LC00NS40Mjc1KSI+JiN4YTsJCQk8dGl0bGUgaWQ9InRpdGxlMjQ1MjUiPnJlY3Q4MDMwPC90aXRsZT4mI3hhOwkJCTxyZWN0IGlkPSJyZWN0MjQ1MjciIHg9IjAiIHk9IjU4LjUyIiBzdHlsZT0iZmlsbDojMzE3NTJGOyIgd2lkdGg9IjE1LjE0IiBoZWlnaHQ9IjEuODkiLz4mI3hhOwkJPC9nPiYjeGE7CQk8ZyBpZD0ic2hhcGU3NTg3LTE0IiB0cmFuc2Zvcm09InRyYW5zbGF0ZSgxLjI2LC00OS44NDUpIj4mI3hhOwkJCTx0aXRsZSBpZD0idGl0bGUyNDUzMCI+cmVjdDgwMzI8L3RpdGxlPiYjeGE7CQkJPHJlY3QgaWQ9InJlY3QyNDUzMiIgeD0iMCIgeT0iNTguNTIiIHN0eWxlPSJmaWxsOiMzMTc1MkY7IiB3aWR0aD0iMTUuMTQiIGhlaWdodD0iMS44OSIvPiYjeGE7CQk8L2c+JiN4YTsJCTxnIGlkPSJzaGFwZTc1ODgtMTYiIHRyYW5zZm9ybT0idHJhbnNsYXRlKDE2LjQwMjUsLTQxLjAxKSI+JiN4YTsJCQk8dGl0bGUgaWQ9InRpdGxlMjQ1MzUiPnJlY3Q4MDM0PC90aXRsZT4mI3hhOwkJCTxyZWN0IGlkPSJyZWN0MjQ1MzciIHg9IjAiIHk9IjU4LjUyIiBzdHlsZT0iZmlsbDojNTU1NTU1OyIgd2lkdGg9IjE2LjQiIGhlaWdodD0iMS44OSIvPiYjeGE7CQk8L2c+JiN4YTsJCTxnIGlkPSJzaGFwZTc1ODktMTgiIHRyYW5zZm9ybT0idHJhbnNsYXRlKDE2LjQwMjUsLTQ1LjQyNzUpIj4mI3hhOwkJCTx0aXRsZSBpZD0idGl0bGUyNDU0MCI+cmVjdDgwMzY8L3RpdGxlPiYjeGE7CQkJPHJlY3QgaWQ9InJlY3QyNDU0MiIgeD0iMCIgeT0iNTguNTIiIHN0eWxlPSJmaWxsOiM1NTU1NTU7IiB3aWR0aD0iMTYuNCIgaGVpZ2h0PSIxLjg5Ii8+JiN4YTsJCTwvZz4mI3hhOwkJPGcgaWQ9InNoYXBlNzU5MC0yMCIgdHJhbnNmb3JtPSJ0cmFuc2xhdGUoMTYuNDAyNSwtNDkuODQ1KSI+JiN4YTsJCQk8dGl0bGUgaWQ9InRpdGxlMjQ1NDUiPnJlY3Q4MDM4PC90aXRsZT4mI3hhOwkJCTxyZWN0IGlkPSJyZWN0MjQ1NDciIHg9IjAiIHk9IjU4LjUyIiBzdHlsZT0iZmlsbDojNTU1NTU1OyIgd2lkdGg9IjE2LjQiIGhlaWdodD0iMS44OSIvPiYjeGE7CQk8L2c+JiN4YTsJCTxnIGlkPSJzaGFwZTc1OTEtMjIiIHRyYW5zZm9ybT0idHJhbnNsYXRlKDAuNjMsLTQ5Ljg0NSkiPiYjeGE7CQkJPHRpdGxlIGlkPSJ0aXRsZTI0NTUwIj5yZWN0ODA0MDwvdGl0bGU+JiN4YTsJCQk8cmVjdCBpZD0icmVjdDI0NTUyIiB4PSIwIiB5PSI1OC41MiIgc3R5bGU9ImZpbGw6IzU1NTU1NTsiIHdpZHRoPSIxLjg5IiBoZWlnaHQ9IjEuODkiLz4mI3hhOwkJPC9nPiYjeGE7CQk8ZyBpZD0ic2hhcGU3NTkyLTI0IiB0cmFuc2Zvcm09InRyYW5zbGF0ZSgwLjYzLC00NS40Mjc1KSI+JiN4YTsJCQk8dGl0bGUgaWQ9InRpdGxlMjQ1NTUiPnJlY3Q4MDQyPC90aXRsZT4mI3hhOwkJCTxyZWN0IGlkPSJyZWN0MjQ1NTciIHg9IjAiIHk9IjU4LjUyIiBzdHlsZT0iZmlsbDojNTU1NTU1OyIgd2lkdGg9IjEuODkiIGhlaWdodD0iMS44OSIvPiYjeGE7CQk8L2c+JiN4YTsJCTxnIGlkPSJzaGFwZTc1OTMtMjYiIHRyYW5zZm9ybT0idHJhbnNsYXRlKDAuNjMsLTQxLjAxKSI+JiN4YTsJCQk8dGl0bGUgaWQ9InRpdGxlMjQ1NjAiPnJlY3Q4MDQ0PC90aXRsZT4mI3hhOwkJCTxyZWN0IGlkPSJyZWN0MjQ1NjIiIHg9IjAiIHk9IjU4LjUyIiBzdHlsZT0iZmlsbDojNTU1NTU1OyIgd2lkdGg9IjEuODkiIGhlaWdodD0iMS44OSIvPiYjeGE7CQk8L2c+JiN4YTsJPC9nPiYjeGE7PC9nPiYjeGE7PC9zdmc+;" vertex="1" parent="1">
          <mxGeometry x="379.99999999999994" y="420" width="160.17" height="270" as="geometry" />
        </mxCell>
        <mxCell id="e5oLFLb0LMOiWfZk1AVb-23" value="SNMPPROC03/be7" style="shape=image;verticalLabelPosition=bottom;labelBackgroundColor=#ffffff;verticalAlign=top;aspect=fixed;imageAspect=0;image=data:image/svg+xml,PHN2ZyB4bWxuczpjYz0iaHR0cDovL2NyZWF0aXZlY29tbW9ucy5vcmcvbnMjIiB4bWxuczpkYz0iaHR0cDovL3B1cmwub3JnL2RjL2VsZW1lbnRzLzEuMS8iIHhtbG5zOmlua3NjYXBlPSJodHRwOi8vd3d3Lmlua3NjYXBlLm9yZy9uYW1lc3BhY2VzL2lua3NjYXBlIiB4bWxuczpyZGY9Imh0dHA6Ly93d3cudzMub3JnLzE5OTkvMDIvMjItcmRmLXN5bnRheC1ucyMiIHhtbG5zOnNvZGlwb2RpPSJodHRwOi8vc29kaXBvZGkuc291cmNlZm9yZ2UubmV0L0RURC9zb2RpcG9kaS0wLmR0ZCIgeG1sbnM6c3ZnPSJodHRwOi8vd3d3LnczLm9yZy8yMDAwL3N2ZyIgeG1sbnM9Imh0dHA6Ly93d3cudzMub3JnLzIwMDAvc3ZnIiB4bWxuczp4bGluaz0iaHR0cDovL3d3dy53My5vcmcvMTk5OS94bGluayIgdmVyc2lvbj0iMS4xIiBpZD0ic3ZnMjQ1NjgiIGlua3NjYXBlOnZlcnNpb249IjAuOTIuMyAoMjQwNTU0NiwgMjAxOC0wMy0xMSkiIHNvZGlwb2RpOmRvY25hbWU9InNlcnZlcl9ncmVlbi5zdmciIHg9IjBweCIgeT0iMHB4IiB2aWV3Qm94PSIwIDAgMzQuOTMgNTguOTEiIHN0eWxlPSJlbmFibGUtYmFja2dyb3VuZDpuZXcgMCAwIDM0LjkzIDU4LjkxOyIgeG1sOnNwYWNlPSJwcmVzZXJ2ZSI+JiN4YTs8c29kaXBvZGk6bmFtZWR2aWV3IGJvcmRlcmNvbG9yPSIjNjY2NjY2IiBib3JkZXJvcGFjaXR5PSIxIiBmaXQtbWFyZ2luLWJvdHRvbT0iMCIgZml0LW1hcmdpbi1sZWZ0PSIwIiBmaXQtbWFyZ2luLXJpZ2h0PSIwIiBmaXQtbWFyZ2luLXRvcD0iMCIgZ3JpZHRvbGVyYW5jZT0iMTAiIGd1aWRldG9sZXJhbmNlPSIxMCIgaWQ9Im5hbWVkdmlldzI0NTcwIiBpbmtzY2FwZTpjdXJyZW50LWxheWVyPSJzdmcyNDU2OCIgaW5rc2NhcGU6Y3g9IjIzLjI4OTk4NSIgaW5rc2NhcGU6Y3k9IjM5LjI3NDk3MyIgaW5rc2NhcGU6cGFnZW9wYWNpdHk9IjAiIGlua3NjYXBlOnBhZ2VzaGFkb3c9IjIiIGlua3NjYXBlOndpbmRvdy1oZWlnaHQ9IjEwMTciIGlua3NjYXBlOndpbmRvdy1tYXhpbWl6ZWQ9IjEiIGlua3NjYXBlOndpbmRvdy13aWR0aD0iMTkyMCIgaW5rc2NhcGU6d2luZG93LXg9Ii04IiBpbmtzY2FwZTp3aW5kb3cteT0iLTgiIGlua3NjYXBlOnpvb209IjEwLjc2MzUwOCIgb2JqZWN0dG9sZXJhbmNlPSIxMCIgcGFnZWNvbG9yPSIjZmZmZmZmIiBzaG93Z3JpZD0iZmFsc2UiPiYjeGE7CTwvc29kaXBvZGk6bmFtZWR2aWV3PiYjeGE7PGcgaWQ9ImcyNDU2NiIgdHJhbnNmb3JtPSJ0cmFuc2xhdGUoLTAuNzUwMDIzNTIsLTAuNzUpIj4mI3hhOwk8dGl0bGUgaWQ9InRpdGxlMjQ0OTYiPlBhZ2UtMTwvdGl0bGU+JiN4YTsJPGcgaWQ9Imdyb3VwNzU4MC0xIiB0cmFuc2Zvcm09InRyYW5zbGF0ZSgxLjUsLTEuNSkiPiYjeGE7CQk8dGl0bGUgaWQ9InRpdGxlMjQ0OTgiPlNlcnZlciAoR3JlZW4pPC90aXRsZT4mI3hhOwkJPGcgaWQ9InNoYXBlNzU4MS0yIj4mI3hhOwkJCTx0aXRsZSBpZD0idGl0bGUyNDUwMCI+cmVjdDgwMjA8L3RpdGxlPiYjeGE7CQkJJiN4YTsJCQkJPHJlY3QgaWQ9InJlY3QyNDUwMiIgeD0iMCIgeT0iMyIgc3R5bGU9ImZpbGw6I0ZGRkZGRjtzdHJva2U6IzU1NTU1NTtzdHJva2Utd2lkdGg6MS41O3N0cm9rZS1taXRlcmxpbWl0OjM7IiB3aWR0aD0iMzMuNDQiIGhlaWdodD0iNTcuNDEiLz4mI3hhOwkJPC9nPiYjeGE7CQk8ZyBpZD0ic2hhcGU3NTgyLTQiIHRyYW5zZm9ybT0idHJhbnNsYXRlKDE2LjQwMjUsLTAuNzcyNTAxKSI+JiN4YTsJCQk8dGl0bGUgaWQ9InRpdGxlMjQ1MDUiPnJlY3Q4MDIyPC90aXRsZT4mI3hhOwkJCTxyZWN0IGlkPSJyZWN0MjQ1MDciIHg9IjAiIHk9IjQuNTQiIHN0eWxlPSJmaWxsOiNGMkYyRjI7IiB3aWR0aD0iMTYuNCIgaGVpZ2h0PSI1NS44OCIvPiYjeGE7CQk8L2c+JiN4YTsJCTxnIGlkPSJzaGFwZTc1ODMtNiIgdHJhbnNmb3JtPSJ0cmFuc2xhdGUoMS4yNiwtNDEuMDEpIj4mI3hhOwkJCTx0aXRsZSBpZD0idGl0bGUyNDUxMCI+cmVjdDgwMjQ8L3RpdGxlPiYjeGE7CQkJPHJlY3QgaWQ9InJlY3QyNDUxMiIgeD0iMCIgeT0iNTguNTIiIHN0eWxlPSJmaWxsOiMzMTc1MkY7IiB3aWR0aD0iMTUuMTQiIGhlaWdodD0iMS44OSIvPiYjeGE7CQk8L2c+JiN4YTsJCTxnIGlkPSJzaGFwZTc1ODQtOCIgdHJhbnNmb3JtPSJ0cmFuc2xhdGUoMS4yNiwtNDkuODM3NSkiPiYjeGE7CQkJPHRpdGxlIGlkPSJ0aXRsZTI0NTE1Ij5wb2x5Z29uODAyNjwvdGl0bGU+JiN4YTsJCQk8cmVjdCBpZD0icmVjdDI0NTE3IiB4PSIwIiB5PSI1OC41MSIgc3R5bGU9ImZpbGw6bm9uZTsiIHdpZHRoPSIyMi43MSIgaGVpZ2h0PSIxLjkiLz4mI3hhOwkJPC9nPiYjeGE7CQk8ZyBpZD0ic2hhcGU3NTg1LTEwIiB0cmFuc2Zvcm09InRyYW5zbGF0ZSgxLjI2LC00OS44Mzc1KSI+JiN4YTsJCQk8dGl0bGUgaWQ9InRpdGxlMjQ1MjAiPnBvbHlsaW5lODAyODwvdGl0bGU+JiN4YTsJCQk8cmVjdCBpZD0icmVjdDI0NTIyIiB4PSIwIiB5PSI1OC41MSIgc3R5bGU9ImZpbGw6bm9uZTsiIHdpZHRoPSIyMi43MSIgaGVpZ2h0PSIxLjkiLz4mI3hhOwkJPC9nPiYjeGE7CQk8ZyBpZD0ic2hhcGU3NTg2LTEyIiB0cmFuc2Zvcm09InRyYW5zbGF0ZSgxLjI2LC00NS40Mjc1KSI+JiN4YTsJCQk8dGl0bGUgaWQ9InRpdGxlMjQ1MjUiPnJlY3Q4MDMwPC90aXRsZT4mI3hhOwkJCTxyZWN0IGlkPSJyZWN0MjQ1MjciIHg9IjAiIHk9IjU4LjUyIiBzdHlsZT0iZmlsbDojMzE3NTJGOyIgd2lkdGg9IjE1LjE0IiBoZWlnaHQ9IjEuODkiLz4mI3hhOwkJPC9nPiYjeGE7CQk8ZyBpZD0ic2hhcGU3NTg3LTE0IiB0cmFuc2Zvcm09InRyYW5zbGF0ZSgxLjI2LC00OS44NDUpIj4mI3hhOwkJCTx0aXRsZSBpZD0idGl0bGUyNDUzMCI+cmVjdDgwMzI8L3RpdGxlPiYjeGE7CQkJPHJlY3QgaWQ9InJlY3QyNDUzMiIgeD0iMCIgeT0iNTguNTIiIHN0eWxlPSJmaWxsOiMzMTc1MkY7IiB3aWR0aD0iMTUuMTQiIGhlaWdodD0iMS44OSIvPiYjeGE7CQk8L2c+JiN4YTsJCTxnIGlkPSJzaGFwZTc1ODgtMTYiIHRyYW5zZm9ybT0idHJhbnNsYXRlKDE2LjQwMjUsLTQxLjAxKSI+JiN4YTsJCQk8dGl0bGUgaWQ9InRpdGxlMjQ1MzUiPnJlY3Q4MDM0PC90aXRsZT4mI3hhOwkJCTxyZWN0IGlkPSJyZWN0MjQ1MzciIHg9IjAiIHk9IjU4LjUyIiBzdHlsZT0iZmlsbDojNTU1NTU1OyIgd2lkdGg9IjE2LjQiIGhlaWdodD0iMS44OSIvPiYjeGE7CQk8L2c+JiN4YTsJCTxnIGlkPSJzaGFwZTc1ODktMTgiIHRyYW5zZm9ybT0idHJhbnNsYXRlKDE2LjQwMjUsLTQ1LjQyNzUpIj4mI3hhOwkJCTx0aXRsZSBpZD0idGl0bGUyNDU0MCI+cmVjdDgwMzY8L3RpdGxlPiYjeGE7CQkJPHJlY3QgaWQ9InJlY3QyNDU0MiIgeD0iMCIgeT0iNTguNTIiIHN0eWxlPSJmaWxsOiM1NTU1NTU7IiB3aWR0aD0iMTYuNCIgaGVpZ2h0PSIxLjg5Ii8+JiN4YTsJCTwvZz4mI3hhOwkJPGcgaWQ9InNoYXBlNzU5MC0yMCIgdHJhbnNmb3JtPSJ0cmFuc2xhdGUoMTYuNDAyNSwtNDkuODQ1KSI+JiN4YTsJCQk8dGl0bGUgaWQ9InRpdGxlMjQ1NDUiPnJlY3Q4MDM4PC90aXRsZT4mI3hhOwkJCTxyZWN0IGlkPSJyZWN0MjQ1NDciIHg9IjAiIHk9IjU4LjUyIiBzdHlsZT0iZmlsbDojNTU1NTU1OyIgd2lkdGg9IjE2LjQiIGhlaWdodD0iMS44OSIvPiYjeGE7CQk8L2c+JiN4YTsJCTxnIGlkPSJzaGFwZTc1OTEtMjIiIHRyYW5zZm9ybT0idHJhbnNsYXRlKDAuNjMsLTQ5Ljg0NSkiPiYjeGE7CQkJPHRpdGxlIGlkPSJ0aXRsZTI0NTUwIj5yZWN0ODA0MDwvdGl0bGU+JiN4YTsJCQk8cmVjdCBpZD0icmVjdDI0NTUyIiB4PSIwIiB5PSI1OC41MiIgc3R5bGU9ImZpbGw6IzU1NTU1NTsiIHdpZHRoPSIxLjg5IiBoZWlnaHQ9IjEuODkiLz4mI3hhOwkJPC9nPiYjeGE7CQk8ZyBpZD0ic2hhcGU3NTkyLTI0IiB0cmFuc2Zvcm09InRyYW5zbGF0ZSgwLjYzLC00NS40Mjc1KSI+JiN4YTsJCQk8dGl0bGUgaWQ9InRpdGxlMjQ1NTUiPnJlY3Q4MDQyPC90aXRsZT4mI3hhOwkJCTxyZWN0IGlkPSJyZWN0MjQ1NTciIHg9IjAiIHk9IjU4LjUyIiBzdHlsZT0iZmlsbDojNTU1NTU1OyIgd2lkdGg9IjEuODkiIGhlaWdodD0iMS44OSIvPiYjeGE7CQk8L2c+JiN4YTsJCTxnIGlkPSJzaGFwZTc1OTMtMjYiIHRyYW5zZm9ybT0idHJhbnNsYXRlKDAuNjMsLTQxLjAxKSI+JiN4YTsJCQk8dGl0bGUgaWQ9InRpdGxlMjQ1NjAiPnJlY3Q4MDQ0PC90aXRsZT4mI3hhOwkJCTxyZWN0IGlkPSJyZWN0MjQ1NjIiIHg9IjAiIHk9IjU4LjUyIiBzdHlsZT0iZmlsbDojNTU1NTU1OyIgd2lkdGg9IjEuODkiIGhlaWdodD0iMS44OSIvPiYjeGE7CQk8L2c+JiN4YTsJPC9nPiYjeGE7PC9nPiYjeGE7PC9zdmc+;" vertex="1" parent="1">
          <mxGeometry x="570" y="420" width="160.17" height="270" as="geometry" />
        </mxCell>
        <mxCell id="e5oLFLb0LMOiWfZk1AVb-24" value="SNMPPROC04/be8" style="shape=image;verticalLabelPosition=bottom;labelBackgroundColor=#ffffff;verticalAlign=top;aspect=fixed;imageAspect=0;image=data:image/svg+xml,PHN2ZyB4bWxuczpjYz0iaHR0cDovL2NyZWF0aXZlY29tbW9ucy5vcmcvbnMjIiB4bWxuczpkYz0iaHR0cDovL3B1cmwub3JnL2RjL2VsZW1lbnRzLzEuMS8iIHhtbG5zOmlua3NjYXBlPSJodHRwOi8vd3d3Lmlua3NjYXBlLm9yZy9uYW1lc3BhY2VzL2lua3NjYXBlIiB4bWxuczpyZGY9Imh0dHA6Ly93d3cudzMub3JnLzE5OTkvMDIvMjItcmRmLXN5bnRheC1ucyMiIHhtbG5zOnNvZGlwb2RpPSJodHRwOi8vc29kaXBvZGkuc291cmNlZm9yZ2UubmV0L0RURC9zb2RpcG9kaS0wLmR0ZCIgeG1sbnM6c3ZnPSJodHRwOi8vd3d3LnczLm9yZy8yMDAwL3N2ZyIgeG1sbnM9Imh0dHA6Ly93d3cudzMub3JnLzIwMDAvc3ZnIiB4bWxuczp4bGluaz0iaHR0cDovL3d3dy53My5vcmcvMTk5OS94bGluayIgdmVyc2lvbj0iMS4xIiBpZD0ic3ZnMjQ1NjgiIGlua3NjYXBlOnZlcnNpb249IjAuOTIuMyAoMjQwNTU0NiwgMjAxOC0wMy0xMSkiIHNvZGlwb2RpOmRvY25hbWU9InNlcnZlcl9ncmVlbi5zdmciIHg9IjBweCIgeT0iMHB4IiB2aWV3Qm94PSIwIDAgMzQuOTMgNTguOTEiIHN0eWxlPSJlbmFibGUtYmFja2dyb3VuZDpuZXcgMCAwIDM0LjkzIDU4LjkxOyIgeG1sOnNwYWNlPSJwcmVzZXJ2ZSI+JiN4YTs8c29kaXBvZGk6bmFtZWR2aWV3IGJvcmRlcmNvbG9yPSIjNjY2NjY2IiBib3JkZXJvcGFjaXR5PSIxIiBmaXQtbWFyZ2luLWJvdHRvbT0iMCIgZml0LW1hcmdpbi1sZWZ0PSIwIiBmaXQtbWFyZ2luLXJpZ2h0PSIwIiBmaXQtbWFyZ2luLXRvcD0iMCIgZ3JpZHRvbGVyYW5jZT0iMTAiIGd1aWRldG9sZXJhbmNlPSIxMCIgaWQ9Im5hbWVkdmlldzI0NTcwIiBpbmtzY2FwZTpjdXJyZW50LWxheWVyPSJzdmcyNDU2OCIgaW5rc2NhcGU6Y3g9IjIzLjI4OTk4NSIgaW5rc2NhcGU6Y3k9IjM5LjI3NDk3MyIgaW5rc2NhcGU6cGFnZW9wYWNpdHk9IjAiIGlua3NjYXBlOnBhZ2VzaGFkb3c9IjIiIGlua3NjYXBlOndpbmRvdy1oZWlnaHQ9IjEwMTciIGlua3NjYXBlOndpbmRvdy1tYXhpbWl6ZWQ9IjEiIGlua3NjYXBlOndpbmRvdy13aWR0aD0iMTkyMCIgaW5rc2NhcGU6d2luZG93LXg9Ii04IiBpbmtzY2FwZTp3aW5kb3cteT0iLTgiIGlua3NjYXBlOnpvb209IjEwLjc2MzUwOCIgb2JqZWN0dG9sZXJhbmNlPSIxMCIgcGFnZWNvbG9yPSIjZmZmZmZmIiBzaG93Z3JpZD0iZmFsc2UiPiYjeGE7CTwvc29kaXBvZGk6bmFtZWR2aWV3PiYjeGE7PGcgaWQ9ImcyNDU2NiIgdHJhbnNmb3JtPSJ0cmFuc2xhdGUoLTAuNzUwMDIzNTIsLTAuNzUpIj4mI3hhOwk8dGl0bGUgaWQ9InRpdGxlMjQ0OTYiPlBhZ2UtMTwvdGl0bGU+JiN4YTsJPGcgaWQ9Imdyb3VwNzU4MC0xIiB0cmFuc2Zvcm09InRyYW5zbGF0ZSgxLjUsLTEuNSkiPiYjeGE7CQk8dGl0bGUgaWQ9InRpdGxlMjQ0OTgiPlNlcnZlciAoR3JlZW4pPC90aXRsZT4mI3hhOwkJPGcgaWQ9InNoYXBlNzU4MS0yIj4mI3hhOwkJCTx0aXRsZSBpZD0idGl0bGUyNDUwMCI+cmVjdDgwMjA8L3RpdGxlPiYjeGE7CQkJJiN4YTsJCQkJPHJlY3QgaWQ9InJlY3QyNDUwMiIgeD0iMCIgeT0iMyIgc3R5bGU9ImZpbGw6I0ZGRkZGRjtzdHJva2U6IzU1NTU1NTtzdHJva2Utd2lkdGg6MS41O3N0cm9rZS1taXRlcmxpbWl0OjM7IiB3aWR0aD0iMzMuNDQiIGhlaWdodD0iNTcuNDEiLz4mI3hhOwkJPC9nPiYjeGE7CQk8ZyBpZD0ic2hhcGU3NTgyLTQiIHRyYW5zZm9ybT0idHJhbnNsYXRlKDE2LjQwMjUsLTAuNzcyNTAxKSI+JiN4YTsJCQk8dGl0bGUgaWQ9InRpdGxlMjQ1MDUiPnJlY3Q4MDIyPC90aXRsZT4mI3hhOwkJCTxyZWN0IGlkPSJyZWN0MjQ1MDciIHg9IjAiIHk9IjQuNTQiIHN0eWxlPSJmaWxsOiNGMkYyRjI7IiB3aWR0aD0iMTYuNCIgaGVpZ2h0PSI1NS44OCIvPiYjeGE7CQk8L2c+JiN4YTsJCTxnIGlkPSJzaGFwZTc1ODMtNiIgdHJhbnNmb3JtPSJ0cmFuc2xhdGUoMS4yNiwtNDEuMDEpIj4mI3hhOwkJCTx0aXRsZSBpZD0idGl0bGUyNDUxMCI+cmVjdDgwMjQ8L3RpdGxlPiYjeGE7CQkJPHJlY3QgaWQ9InJlY3QyNDUxMiIgeD0iMCIgeT0iNTguNTIiIHN0eWxlPSJmaWxsOiMzMTc1MkY7IiB3aWR0aD0iMTUuMTQiIGhlaWdodD0iMS44OSIvPiYjeGE7CQk8L2c+JiN4YTsJCTxnIGlkPSJzaGFwZTc1ODQtOCIgdHJhbnNmb3JtPSJ0cmFuc2xhdGUoMS4yNiwtNDkuODM3NSkiPiYjeGE7CQkJPHRpdGxlIGlkPSJ0aXRsZTI0NTE1Ij5wb2x5Z29uODAyNjwvdGl0bGU+JiN4YTsJCQk8cmVjdCBpZD0icmVjdDI0NTE3IiB4PSIwIiB5PSI1OC41MSIgc3R5bGU9ImZpbGw6bm9uZTsiIHdpZHRoPSIyMi43MSIgaGVpZ2h0PSIxLjkiLz4mI3hhOwkJPC9nPiYjeGE7CQk8ZyBpZD0ic2hhcGU3NTg1LTEwIiB0cmFuc2Zvcm09InRyYW5zbGF0ZSgxLjI2LC00OS44Mzc1KSI+JiN4YTsJCQk8dGl0bGUgaWQ9InRpdGxlMjQ1MjAiPnBvbHlsaW5lODAyODwvdGl0bGU+JiN4YTsJCQk8cmVjdCBpZD0icmVjdDI0NTIyIiB4PSIwIiB5PSI1OC41MSIgc3R5bGU9ImZpbGw6bm9uZTsiIHdpZHRoPSIyMi43MSIgaGVpZ2h0PSIxLjkiLz4mI3hhOwkJPC9nPiYjeGE7CQk8ZyBpZD0ic2hhcGU3NTg2LTEyIiB0cmFuc2Zvcm09InRyYW5zbGF0ZSgxLjI2LC00NS40Mjc1KSI+JiN4YTsJCQk8dGl0bGUgaWQ9InRpdGxlMjQ1MjUiPnJlY3Q4MDMwPC90aXRsZT4mI3hhOwkJCTxyZWN0IGlkPSJyZWN0MjQ1MjciIHg9IjAiIHk9IjU4LjUyIiBzdHlsZT0iZmlsbDojMzE3NTJGOyIgd2lkdGg9IjE1LjE0IiBoZWlnaHQ9IjEuODkiLz4mI3hhOwkJPC9nPiYjeGE7CQk8ZyBpZD0ic2hhcGU3NTg3LTE0IiB0cmFuc2Zvcm09InRyYW5zbGF0ZSgxLjI2LC00OS44NDUpIj4mI3hhOwkJCTx0aXRsZSBpZD0idGl0bGUyNDUzMCI+cmVjdDgwMzI8L3RpdGxlPiYjeGE7CQkJPHJlY3QgaWQ9InJlY3QyNDUzMiIgeD0iMCIgeT0iNTguNTIiIHN0eWxlPSJmaWxsOiMzMTc1MkY7IiB3aWR0aD0iMTUuMTQiIGhlaWdodD0iMS44OSIvPiYjeGE7CQk8L2c+JiN4YTsJCTxnIGlkPSJzaGFwZTc1ODgtMTYiIHRyYW5zZm9ybT0idHJhbnNsYXRlKDE2LjQwMjUsLTQxLjAxKSI+JiN4YTsJCQk8dGl0bGUgaWQ9InRpdGxlMjQ1MzUiPnJlY3Q4MDM0PC90aXRsZT4mI3hhOwkJCTxyZWN0IGlkPSJyZWN0MjQ1MzciIHg9IjAiIHk9IjU4LjUyIiBzdHlsZT0iZmlsbDojNTU1NTU1OyIgd2lkdGg9IjE2LjQiIGhlaWdodD0iMS44OSIvPiYjeGE7CQk8L2c+JiN4YTsJCTxnIGlkPSJzaGFwZTc1ODktMTgiIHRyYW5zZm9ybT0idHJhbnNsYXRlKDE2LjQwMjUsLTQ1LjQyNzUpIj4mI3hhOwkJCTx0aXRsZSBpZD0idGl0bGUyNDU0MCI+cmVjdDgwMzY8L3RpdGxlPiYjeGE7CQkJPHJlY3QgaWQ9InJlY3QyNDU0MiIgeD0iMCIgeT0iNTguNTIiIHN0eWxlPSJmaWxsOiM1NTU1NTU7IiB3aWR0aD0iMTYuNCIgaGVpZ2h0PSIxLjg5Ii8+JiN4YTsJCTwvZz4mI3hhOwkJPGcgaWQ9InNoYXBlNzU5MC0yMCIgdHJhbnNmb3JtPSJ0cmFuc2xhdGUoMTYuNDAyNSwtNDkuODQ1KSI+JiN4YTsJCQk8dGl0bGUgaWQ9InRpdGxlMjQ1NDUiPnJlY3Q4MDM4PC90aXRsZT4mI3hhOwkJCTxyZWN0IGlkPSJyZWN0MjQ1NDciIHg9IjAiIHk9IjU4LjUyIiBzdHlsZT0iZmlsbDojNTU1NTU1OyIgd2lkdGg9IjE2LjQiIGhlaWdodD0iMS44OSIvPiYjeGE7CQk8L2c+JiN4YTsJCTxnIGlkPSJzaGFwZTc1OTEtMjIiIHRyYW5zZm9ybT0idHJhbnNsYXRlKDAuNjMsLTQ5Ljg0NSkiPiYjeGE7CQkJPHRpdGxlIGlkPSJ0aXRsZTI0NTUwIj5yZWN0ODA0MDwvdGl0bGU+JiN4YTsJCQk8cmVjdCBpZD0icmVjdDI0NTUyIiB4PSIwIiB5PSI1OC41MiIgc3R5bGU9ImZpbGw6IzU1NTU1NTsiIHdpZHRoPSIxLjg5IiBoZWlnaHQ9IjEuODkiLz4mI3hhOwkJPC9nPiYjeGE7CQk8ZyBpZD0ic2hhcGU3NTkyLTI0IiB0cmFuc2Zvcm09InRyYW5zbGF0ZSgwLjYzLC00NS40Mjc1KSI+JiN4YTsJCQk8dGl0bGUgaWQ9InRpdGxlMjQ1NTUiPnJlY3Q4MDQyPC90aXRsZT4mI3hhOwkJCTxyZWN0IGlkPSJyZWN0MjQ1NTciIHg9IjAiIHk9IjU4LjUyIiBzdHlsZT0iZmlsbDojNTU1NTU1OyIgd2lkdGg9IjEuODkiIGhlaWdodD0iMS44OSIvPiYjeGE7CQk8L2c+JiN4YTsJCTxnIGlkPSJzaGFwZTc1OTMtMjYiIHRyYW5zZm9ybT0idHJhbnNsYXRlKDAuNjMsLTQxLjAxKSI+JiN4YTsJCQk8dGl0bGUgaWQ9InRpdGxlMjQ1NjAiPnJlY3Q4MDQ0PC90aXRsZT4mI3hhOwkJCTxyZWN0IGlkPSJyZWN0MjQ1NjIiIHg9IjAiIHk9IjU4LjUyIiBzdHlsZT0iZmlsbDojNTU1NTU1OyIgd2lkdGg9IjEuODkiIGhlaWdodD0iMS44OSIvPiYjeGE7CQk8L2c+JiN4YTsJPC9nPiYjeGE7PC9nPiYjeGE7PC9zdmc+;" vertex="1" parent="1">
          <mxGeometry x="760" y="420" width="160.17" height="270" as="geometry" />
        </mxCell>
        <mxCell id="e5oLFLb0LMOiWfZk1AVb-26" value="SNMCOL01/fe4" style="shape=image;verticalLabelPosition=bottom;labelBackgroundColor=#ffffff;verticalAlign=top;aspect=fixed;imageAspect=0;image=data:image/svg+xml,PHN2ZyB4bWxuczpjYz0iaHR0cDovL2NyZWF0aXZlY29tbW9ucy5vcmcvbnMjIiB4bWxuczpkYz0iaHR0cDovL3B1cmwub3JnL2RjL2VsZW1lbnRzLzEuMS8iIHhtbG5zOmlua3NjYXBlPSJodHRwOi8vd3d3Lmlua3NjYXBlLm9yZy9uYW1lc3BhY2VzL2lua3NjYXBlIiB4bWxuczpyZGY9Imh0dHA6Ly93d3cudzMub3JnLzE5OTkvMDIvMjItcmRmLXN5bnRheC1ucyMiIHhtbG5zOnNvZGlwb2RpPSJodHRwOi8vc29kaXBvZGkuc291cmNlZm9yZ2UubmV0L0RURC9zb2RpcG9kaS0wLmR0ZCIgeG1sbnM6c3ZnPSJodHRwOi8vd3d3LnczLm9yZy8yMDAwL3N2ZyIgeG1sbnM9Imh0dHA6Ly93d3cudzMub3JnLzIwMDAvc3ZnIiB4bWxuczp4bGluaz0iaHR0cDovL3d3dy53My5vcmcvMTk5OS94bGluayIgdmVyc2lvbj0iMS4xIiBpZD0ic3ZnMjQ1NjgiIGlua3NjYXBlOnZlcnNpb249IjAuOTIuMyAoMjQwNTU0NiwgMjAxOC0wMy0xMSkiIHNvZGlwb2RpOmRvY25hbWU9InNlcnZlcl9ncmVlbi5zdmciIHg9IjBweCIgeT0iMHB4IiB2aWV3Qm94PSIwIDAgMzQuOTMgNTguOTEiIHN0eWxlPSJlbmFibGUtYmFja2dyb3VuZDpuZXcgMCAwIDM0LjkzIDU4LjkxOyIgeG1sOnNwYWNlPSJwcmVzZXJ2ZSI+JiN4YTs8c29kaXBvZGk6bmFtZWR2aWV3IGJvcmRlcmNvbG9yPSIjNjY2NjY2IiBib3JkZXJvcGFjaXR5PSIxIiBmaXQtbWFyZ2luLWJvdHRvbT0iMCIgZml0LW1hcmdpbi1sZWZ0PSIwIiBmaXQtbWFyZ2luLXJpZ2h0PSIwIiBmaXQtbWFyZ2luLXRvcD0iMCIgZ3JpZHRvbGVyYW5jZT0iMTAiIGd1aWRldG9sZXJhbmNlPSIxMCIgaWQ9Im5hbWVkdmlldzI0NTcwIiBpbmtzY2FwZTpjdXJyZW50LWxheWVyPSJzdmcyNDU2OCIgaW5rc2NhcGU6Y3g9IjIzLjI4OTk4NSIgaW5rc2NhcGU6Y3k9IjM5LjI3NDk3MyIgaW5rc2NhcGU6cGFnZW9wYWNpdHk9IjAiIGlua3NjYXBlOnBhZ2VzaGFkb3c9IjIiIGlua3NjYXBlOndpbmRvdy1oZWlnaHQ9IjEwMTciIGlua3NjYXBlOndpbmRvdy1tYXhpbWl6ZWQ9IjEiIGlua3NjYXBlOndpbmRvdy13aWR0aD0iMTkyMCIgaW5rc2NhcGU6d2luZG93LXg9Ii04IiBpbmtzY2FwZTp3aW5kb3cteT0iLTgiIGlua3NjYXBlOnpvb209IjEwLjc2MzUwOCIgb2JqZWN0dG9sZXJhbmNlPSIxMCIgcGFnZWNvbG9yPSIjZmZmZmZmIiBzaG93Z3JpZD0iZmFsc2UiPiYjeGE7CTwvc29kaXBvZGk6bmFtZWR2aWV3PiYjeGE7PGcgaWQ9ImcyNDU2NiIgdHJhbnNmb3JtPSJ0cmFuc2xhdGUoLTAuNzUwMDIzNTIsLTAuNzUpIj4mI3hhOwk8dGl0bGUgaWQ9InRpdGxlMjQ0OTYiPlBhZ2UtMTwvdGl0bGU+JiN4YTsJPGcgaWQ9Imdyb3VwNzU4MC0xIiB0cmFuc2Zvcm09InRyYW5zbGF0ZSgxLjUsLTEuNSkiPiYjeGE7CQk8dGl0bGUgaWQ9InRpdGxlMjQ0OTgiPlNlcnZlciAoR3JlZW4pPC90aXRsZT4mI3hhOwkJPGcgaWQ9InNoYXBlNzU4MS0yIj4mI3hhOwkJCTx0aXRsZSBpZD0idGl0bGUyNDUwMCI+cmVjdDgwMjA8L3RpdGxlPiYjeGE7CQkJJiN4YTsJCQkJPHJlY3QgaWQ9InJlY3QyNDUwMiIgeD0iMCIgeT0iMyIgc3R5bGU9ImZpbGw6I0ZGRkZGRjtzdHJva2U6IzU1NTU1NTtzdHJva2Utd2lkdGg6MS41O3N0cm9rZS1taXRlcmxpbWl0OjM7IiB3aWR0aD0iMzMuNDQiIGhlaWdodD0iNTcuNDEiLz4mI3hhOwkJPC9nPiYjeGE7CQk8ZyBpZD0ic2hhcGU3NTgyLTQiIHRyYW5zZm9ybT0idHJhbnNsYXRlKDE2LjQwMjUsLTAuNzcyNTAxKSI+JiN4YTsJCQk8dGl0bGUgaWQ9InRpdGxlMjQ1MDUiPnJlY3Q4MDIyPC90aXRsZT4mI3hhOwkJCTxyZWN0IGlkPSJyZWN0MjQ1MDciIHg9IjAiIHk9IjQuNTQiIHN0eWxlPSJmaWxsOiNGMkYyRjI7IiB3aWR0aD0iMTYuNCIgaGVpZ2h0PSI1NS44OCIvPiYjeGE7CQk8L2c+JiN4YTsJCTxnIGlkPSJzaGFwZTc1ODMtNiIgdHJhbnNmb3JtPSJ0cmFuc2xhdGUoMS4yNiwtNDEuMDEpIj4mI3hhOwkJCTx0aXRsZSBpZD0idGl0bGUyNDUxMCI+cmVjdDgwMjQ8L3RpdGxlPiYjeGE7CQkJPHJlY3QgaWQ9InJlY3QyNDUxMiIgeD0iMCIgeT0iNTguNTIiIHN0eWxlPSJmaWxsOiMzMTc1MkY7IiB3aWR0aD0iMTUuMTQiIGhlaWdodD0iMS44OSIvPiYjeGE7CQk8L2c+JiN4YTsJCTxnIGlkPSJzaGFwZTc1ODQtOCIgdHJhbnNmb3JtPSJ0cmFuc2xhdGUoMS4yNiwtNDkuODM3NSkiPiYjeGE7CQkJPHRpdGxlIGlkPSJ0aXRsZTI0NTE1Ij5wb2x5Z29uODAyNjwvdGl0bGU+JiN4YTsJCQk8cmVjdCBpZD0icmVjdDI0NTE3IiB4PSIwIiB5PSI1OC41MSIgc3R5bGU9ImZpbGw6bm9uZTsiIHdpZHRoPSIyMi43MSIgaGVpZ2h0PSIxLjkiLz4mI3hhOwkJPC9nPiYjeGE7CQk8ZyBpZD0ic2hhcGU3NTg1LTEwIiB0cmFuc2Zvcm09InRyYW5zbGF0ZSgxLjI2LC00OS44Mzc1KSI+JiN4YTsJCQk8dGl0bGUgaWQ9InRpdGxlMjQ1MjAiPnBvbHlsaW5lODAyODwvdGl0bGU+JiN4YTsJCQk8cmVjdCBpZD0icmVjdDI0NTIyIiB4PSIwIiB5PSI1OC41MSIgc3R5bGU9ImZpbGw6bm9uZTsiIHdpZHRoPSIyMi43MSIgaGVpZ2h0PSIxLjkiLz4mI3hhOwkJPC9nPiYjeGE7CQk8ZyBpZD0ic2hhcGU3NTg2LTEyIiB0cmFuc2Zvcm09InRyYW5zbGF0ZSgxLjI2LC00NS40Mjc1KSI+JiN4YTsJCQk8dGl0bGUgaWQ9InRpdGxlMjQ1MjUiPnJlY3Q4MDMwPC90aXRsZT4mI3hhOwkJCTxyZWN0IGlkPSJyZWN0MjQ1MjciIHg9IjAiIHk9IjU4LjUyIiBzdHlsZT0iZmlsbDojMzE3NTJGOyIgd2lkdGg9IjE1LjE0IiBoZWlnaHQ9IjEuODkiLz4mI3hhOwkJPC9nPiYjeGE7CQk8ZyBpZD0ic2hhcGU3NTg3LTE0IiB0cmFuc2Zvcm09InRyYW5zbGF0ZSgxLjI2LC00OS44NDUpIj4mI3hhOwkJCTx0aXRsZSBpZD0idGl0bGUyNDUzMCI+cmVjdDgwMzI8L3RpdGxlPiYjeGE7CQkJPHJlY3QgaWQ9InJlY3QyNDUzMiIgeD0iMCIgeT0iNTguNTIiIHN0eWxlPSJmaWxsOiMzMTc1MkY7IiB3aWR0aD0iMTUuMTQiIGhlaWdodD0iMS44OSIvPiYjeGE7CQk8L2c+JiN4YTsJCTxnIGlkPSJzaGFwZTc1ODgtMTYiIHRyYW5zZm9ybT0idHJhbnNsYXRlKDE2LjQwMjUsLTQxLjAxKSI+JiN4YTsJCQk8dGl0bGUgaWQ9InRpdGxlMjQ1MzUiPnJlY3Q4MDM0PC90aXRsZT4mI3hhOwkJCTxyZWN0IGlkPSJyZWN0MjQ1MzciIHg9IjAiIHk9IjU4LjUyIiBzdHlsZT0iZmlsbDojNTU1NTU1OyIgd2lkdGg9IjE2LjQiIGhlaWdodD0iMS44OSIvPiYjeGE7CQk8L2c+JiN4YTsJCTxnIGlkPSJzaGFwZTc1ODktMTgiIHRyYW5zZm9ybT0idHJhbnNsYXRlKDE2LjQwMjUsLTQ1LjQyNzUpIj4mI3hhOwkJCTx0aXRsZSBpZD0idGl0bGUyNDU0MCI+cmVjdDgwMzY8L3RpdGxlPiYjeGE7CQkJPHJlY3QgaWQ9InJlY3QyNDU0MiIgeD0iMCIgeT0iNTguNTIiIHN0eWxlPSJmaWxsOiM1NTU1NTU7IiB3aWR0aD0iMTYuNCIgaGVpZ2h0PSIxLjg5Ii8+JiN4YTsJCTwvZz4mI3hhOwkJPGcgaWQ9InNoYXBlNzU5MC0yMCIgdHJhbnNmb3JtPSJ0cmFuc2xhdGUoMTYuNDAyNSwtNDkuODQ1KSI+JiN4YTsJCQk8dGl0bGUgaWQ9InRpdGxlMjQ1NDUiPnJlY3Q4MDM4PC90aXRsZT4mI3hhOwkJCTxyZWN0IGlkPSJyZWN0MjQ1NDciIHg9IjAiIHk9IjU4LjUyIiBzdHlsZT0iZmlsbDojNTU1NTU1OyIgd2lkdGg9IjE2LjQiIGhlaWdodD0iMS44OSIvPiYjeGE7CQk8L2c+JiN4YTsJCTxnIGlkPSJzaGFwZTc1OTEtMjIiIHRyYW5zZm9ybT0idHJhbnNsYXRlKDAuNjMsLTQ5Ljg0NSkiPiYjeGE7CQkJPHRpdGxlIGlkPSJ0aXRsZTI0NTUwIj5yZWN0ODA0MDwvdGl0bGU+JiN4YTsJCQk8cmVjdCBpZD0icmVjdDI0NTUyIiB4PSIwIiB5PSI1OC41MiIgc3R5bGU9ImZpbGw6IzU1NTU1NTsiIHdpZHRoPSIxLjg5IiBoZWlnaHQ9IjEuODkiLz4mI3hhOwkJPC9nPiYjeGE7CQk8ZyBpZD0ic2hhcGU3NTkyLTI0IiB0cmFuc2Zvcm09InRyYW5zbGF0ZSgwLjYzLC00NS40Mjc1KSI+JiN4YTsJCQk8dGl0bGUgaWQ9InRpdGxlMjQ1NTUiPnJlY3Q4MDQyPC90aXRsZT4mI3hhOwkJCTxyZWN0IGlkPSJyZWN0MjQ1NTciIHg9IjAiIHk9IjU4LjUyIiBzdHlsZT0iZmlsbDojNTU1NTU1OyIgd2lkdGg9IjEuODkiIGhlaWdodD0iMS44OSIvPiYjeGE7CQk8L2c+JiN4YTsJCTxnIGlkPSJzaGFwZTc1OTMtMjYiIHRyYW5zZm9ybT0idHJhbnNsYXRlKDAuNjMsLTQxLjAxKSI+JiN4YTsJCQk8dGl0bGUgaWQ9InRpdGxlMjQ1NjAiPnJlY3Q4MDQ0PC90aXRsZT4mI3hhOwkJCTxyZWN0IGlkPSJyZWN0MjQ1NjIiIHg9IjAiIHk9IjU4LjUyIiBzdHlsZT0iZmlsbDojNTU1NTU1OyIgd2lkdGg9IjEuODkiIGhlaWdodD0iMS44OSIvPiYjeGE7CQk8L2c+JiN4YTsJPC9nPiYjeGE7PC9nPiYjeGE7PC9zdmc+;" vertex="1" parent="1">
          <mxGeometry x="190" y="420" width="160.17" height="270" as="geometry" />
        </mxCell>
        <mxCell id="e5oLFLb0LMOiWfZk1AVb-27" value="SNMPPROC02/be6" style="shape=image;verticalLabelPosition=bottom;labelBackgroundColor=#ffffff;verticalAlign=top;aspect=fixed;imageAspect=0;image=data:image/svg+xml,PHN2ZyB4bWxuczpjYz0iaHR0cDovL2NyZWF0aXZlY29tbW9ucy5vcmcvbnMjIiB4bWxuczpkYz0iaHR0cDovL3B1cmwub3JnL2RjL2VsZW1lbnRzLzEuMS8iIHhtbG5zOmlua3NjYXBlPSJodHRwOi8vd3d3Lmlua3NjYXBlLm9yZy9uYW1lc3BhY2VzL2lua3NjYXBlIiB4bWxuczpyZGY9Imh0dHA6Ly93d3cudzMub3JnLzE5OTkvMDIvMjItcmRmLXN5bnRheC1ucyMiIHhtbG5zOnNvZGlwb2RpPSJodHRwOi8vc29kaXBvZGkuc291cmNlZm9yZ2UubmV0L0RURC9zb2RpcG9kaS0wLmR0ZCIgeG1sbnM6c3ZnPSJodHRwOi8vd3d3LnczLm9yZy8yMDAwL3N2ZyIgeG1sbnM9Imh0dHA6Ly93d3cudzMub3JnLzIwMDAvc3ZnIiB4bWxuczp4bGluaz0iaHR0cDovL3d3dy53My5vcmcvMTk5OS94bGluayIgdmVyc2lvbj0iMS4xIiBpZD0ic3ZnMjQ1NjgiIGlua3NjYXBlOnZlcnNpb249IjAuOTIuMyAoMjQwNTU0NiwgMjAxOC0wMy0xMSkiIHNvZGlwb2RpOmRvY25hbWU9InNlcnZlcl9ncmVlbi5zdmciIHg9IjBweCIgeT0iMHB4IiB2aWV3Qm94PSIwIDAgMzQuOTMgNTguOTEiIHN0eWxlPSJlbmFibGUtYmFja2dyb3VuZDpuZXcgMCAwIDM0LjkzIDU4LjkxOyIgeG1sOnNwYWNlPSJwcmVzZXJ2ZSI+JiN4YTs8c29kaXBvZGk6bmFtZWR2aWV3IGJvcmRlcmNvbG9yPSIjNjY2NjY2IiBib3JkZXJvcGFjaXR5PSIxIiBmaXQtbWFyZ2luLWJvdHRvbT0iMCIgZml0LW1hcmdpbi1sZWZ0PSIwIiBmaXQtbWFyZ2luLXJpZ2h0PSIwIiBmaXQtbWFyZ2luLXRvcD0iMCIgZ3JpZHRvbGVyYW5jZT0iMTAiIGd1aWRldG9sZXJhbmNlPSIxMCIgaWQ9Im5hbWVkdmlldzI0NTcwIiBpbmtzY2FwZTpjdXJyZW50LWxheWVyPSJzdmcyNDU2OCIgaW5rc2NhcGU6Y3g9IjIzLjI4OTk4NSIgaW5rc2NhcGU6Y3k9IjM5LjI3NDk3MyIgaW5rc2NhcGU6cGFnZW9wYWNpdHk9IjAiIGlua3NjYXBlOnBhZ2VzaGFkb3c9IjIiIGlua3NjYXBlOndpbmRvdy1oZWlnaHQ9IjEwMTciIGlua3NjYXBlOndpbmRvdy1tYXhpbWl6ZWQ9IjEiIGlua3NjYXBlOndpbmRvdy13aWR0aD0iMTkyMCIgaW5rc2NhcGU6d2luZG93LXg9Ii04IiBpbmtzY2FwZTp3aW5kb3cteT0iLTgiIGlua3NjYXBlOnpvb209IjEwLjc2MzUwOCIgb2JqZWN0dG9sZXJhbmNlPSIxMCIgcGFnZWNvbG9yPSIjZmZmZmZmIiBzaG93Z3JpZD0iZmFsc2UiPiYjeGE7CTwvc29kaXBvZGk6bmFtZWR2aWV3PiYjeGE7PGcgaWQ9ImcyNDU2NiIgdHJhbnNmb3JtPSJ0cmFuc2xhdGUoLTAuNzUwMDIzNTIsLTAuNzUpIj4mI3hhOwk8dGl0bGUgaWQ9InRpdGxlMjQ0OTYiPlBhZ2UtMTwvdGl0bGU+JiN4YTsJPGcgaWQ9Imdyb3VwNzU4MC0xIiB0cmFuc2Zvcm09InRyYW5zbGF0ZSgxLjUsLTEuNSkiPiYjeGE7CQk8dGl0bGUgaWQ9InRpdGxlMjQ0OTgiPlNlcnZlciAoR3JlZW4pPC90aXRsZT4mI3hhOwkJPGcgaWQ9InNoYXBlNzU4MS0yIj4mI3hhOwkJCTx0aXRsZSBpZD0idGl0bGUyNDUwMCI+cmVjdDgwMjA8L3RpdGxlPiYjeGE7CQkJJiN4YTsJCQkJPHJlY3QgaWQ9InJlY3QyNDUwMiIgeD0iMCIgeT0iMyIgc3R5bGU9ImZpbGw6I0ZGRkZGRjtzdHJva2U6IzU1NTU1NTtzdHJva2Utd2lkdGg6MS41O3N0cm9rZS1taXRlcmxpbWl0OjM7IiB3aWR0aD0iMzMuNDQiIGhlaWdodD0iNTcuNDEiLz4mI3hhOwkJPC9nPiYjeGE7CQk8ZyBpZD0ic2hhcGU3NTgyLTQiIHRyYW5zZm9ybT0idHJhbnNsYXRlKDE2LjQwMjUsLTAuNzcyNTAxKSI+JiN4YTsJCQk8dGl0bGUgaWQ9InRpdGxlMjQ1MDUiPnJlY3Q4MDIyPC90aXRsZT4mI3hhOwkJCTxyZWN0IGlkPSJyZWN0MjQ1MDciIHg9IjAiIHk9IjQuNTQiIHN0eWxlPSJmaWxsOiNGMkYyRjI7IiB3aWR0aD0iMTYuNCIgaGVpZ2h0PSI1NS44OCIvPiYjeGE7CQk8L2c+JiN4YTsJCTxnIGlkPSJzaGFwZTc1ODMtNiIgdHJhbnNmb3JtPSJ0cmFuc2xhdGUoMS4yNiwtNDEuMDEpIj4mI3hhOwkJCTx0aXRsZSBpZD0idGl0bGUyNDUxMCI+cmVjdDgwMjQ8L3RpdGxlPiYjeGE7CQkJPHJlY3QgaWQ9InJlY3QyNDUxMiIgeD0iMCIgeT0iNTguNTIiIHN0eWxlPSJmaWxsOiMzMTc1MkY7IiB3aWR0aD0iMTUuMTQiIGhlaWdodD0iMS44OSIvPiYjeGE7CQk8L2c+JiN4YTsJCTxnIGlkPSJzaGFwZTc1ODQtOCIgdHJhbnNmb3JtPSJ0cmFuc2xhdGUoMS4yNiwtNDkuODM3NSkiPiYjeGE7CQkJPHRpdGxlIGlkPSJ0aXRsZTI0NTE1Ij5wb2x5Z29uODAyNjwvdGl0bGU+JiN4YTsJCQk8cmVjdCBpZD0icmVjdDI0NTE3IiB4PSIwIiB5PSI1OC41MSIgc3R5bGU9ImZpbGw6bm9uZTsiIHdpZHRoPSIyMi43MSIgaGVpZ2h0PSIxLjkiLz4mI3hhOwkJPC9nPiYjeGE7CQk8ZyBpZD0ic2hhcGU3NTg1LTEwIiB0cmFuc2Zvcm09InRyYW5zbGF0ZSgxLjI2LC00OS44Mzc1KSI+JiN4YTsJCQk8dGl0bGUgaWQ9InRpdGxlMjQ1MjAiPnBvbHlsaW5lODAyODwvdGl0bGU+JiN4YTsJCQk8cmVjdCBpZD0icmVjdDI0NTIyIiB4PSIwIiB5PSI1OC41MSIgc3R5bGU9ImZpbGw6bm9uZTsiIHdpZHRoPSIyMi43MSIgaGVpZ2h0PSIxLjkiLz4mI3hhOwkJPC9nPiYjeGE7CQk8ZyBpZD0ic2hhcGU3NTg2LTEyIiB0cmFuc2Zvcm09InRyYW5zbGF0ZSgxLjI2LC00NS40Mjc1KSI+JiN4YTsJCQk8dGl0bGUgaWQ9InRpdGxlMjQ1MjUiPnJlY3Q4MDMwPC90aXRsZT4mI3hhOwkJCTxyZWN0IGlkPSJyZWN0MjQ1MjciIHg9IjAiIHk9IjU4LjUyIiBzdHlsZT0iZmlsbDojMzE3NTJGOyIgd2lkdGg9IjE1LjE0IiBoZWlnaHQ9IjEuODkiLz4mI3hhOwkJPC9nPiYjeGE7CQk8ZyBpZD0ic2hhcGU3NTg3LTE0IiB0cmFuc2Zvcm09InRyYW5zbGF0ZSgxLjI2LC00OS44NDUpIj4mI3hhOwkJCTx0aXRsZSBpZD0idGl0bGUyNDUzMCI+cmVjdDgwMzI8L3RpdGxlPiYjeGE7CQkJPHJlY3QgaWQ9InJlY3QyNDUzMiIgeD0iMCIgeT0iNTguNTIiIHN0eWxlPSJmaWxsOiMzMTc1MkY7IiB3aWR0aD0iMTUuMTQiIGhlaWdodD0iMS44OSIvPiYjeGE7CQk8L2c+JiN4YTsJCTxnIGlkPSJzaGFwZTc1ODgtMTYiIHRyYW5zZm9ybT0idHJhbnNsYXRlKDE2LjQwMjUsLTQxLjAxKSI+JiN4YTsJCQk8dGl0bGUgaWQ9InRpdGxlMjQ1MzUiPnJlY3Q4MDM0PC90aXRsZT4mI3hhOwkJCTxyZWN0IGlkPSJyZWN0MjQ1MzciIHg9IjAiIHk9IjU4LjUyIiBzdHlsZT0iZmlsbDojNTU1NTU1OyIgd2lkdGg9IjE2LjQiIGhlaWdodD0iMS44OSIvPiYjeGE7CQk8L2c+JiN4YTsJCTxnIGlkPSJzaGFwZTc1ODktMTgiIHRyYW5zZm9ybT0idHJhbnNsYXRlKDE2LjQwMjUsLTQ1LjQyNzUpIj4mI3hhOwkJCTx0aXRsZSBpZD0idGl0bGUyNDU0MCI+cmVjdDgwMzY8L3RpdGxlPiYjeGE7CQkJPHJlY3QgaWQ9InJlY3QyNDU0MiIgeD0iMCIgeT0iNTguNTIiIHN0eWxlPSJmaWxsOiM1NTU1NTU7IiB3aWR0aD0iMTYuNCIgaGVpZ2h0PSIxLjg5Ii8+JiN4YTsJCTwvZz4mI3hhOwkJPGcgaWQ9InNoYXBlNzU5MC0yMCIgdHJhbnNmb3JtPSJ0cmFuc2xhdGUoMTYuNDAyNSwtNDkuODQ1KSI+JiN4YTsJCQk8dGl0bGUgaWQ9InRpdGxlMjQ1NDUiPnJlY3Q4MDM4PC90aXRsZT4mI3hhOwkJCTxyZWN0IGlkPSJyZWN0MjQ1NDciIHg9IjAiIHk9IjU4LjUyIiBzdHlsZT0iZmlsbDojNTU1NTU1OyIgd2lkdGg9IjE2LjQiIGhlaWdodD0iMS44OSIvPiYjeGE7CQk8L2c+JiN4YTsJCTxnIGlkPSJzaGFwZTc1OTEtMjIiIHRyYW5zZm9ybT0idHJhbnNsYXRlKDAuNjMsLTQ5Ljg0NSkiPiYjeGE7CQkJPHRpdGxlIGlkPSJ0aXRsZTI0NTUwIj5yZWN0ODA0MDwvdGl0bGU+JiN4YTsJCQk8cmVjdCBpZD0icmVjdDI0NTUyIiB4PSIwIiB5PSI1OC41MiIgc3R5bGU9ImZpbGw6IzU1NTU1NTsiIHdpZHRoPSIxLjg5IiBoZWlnaHQ9IjEuODkiLz4mI3hhOwkJPC9nPiYjeGE7CQk8ZyBpZD0ic2hhcGU3NTkyLTI0IiB0cmFuc2Zvcm09InRyYW5zbGF0ZSgwLjYzLC00NS40Mjc1KSI+JiN4YTsJCQk8dGl0bGUgaWQ9InRpdGxlMjQ1NTUiPnJlY3Q4MDQyPC90aXRsZT4mI3hhOwkJCTxyZWN0IGlkPSJyZWN0MjQ1NTciIHg9IjAiIHk9IjU4LjUyIiBzdHlsZT0iZmlsbDojNTU1NTU1OyIgd2lkdGg9IjEuODkiIGhlaWdodD0iMS44OSIvPiYjeGE7CQk8L2c+JiN4YTsJCTxnIGlkPSJzaGFwZTc1OTMtMjYiIHRyYW5zZm9ybT0idHJhbnNsYXRlKDAuNjMsLTQxLjAxKSI+JiN4YTsJCQk8dGl0bGUgaWQ9InRpdGxlMjQ1NjAiPnJlY3Q4MDQ0PC90aXRsZT4mI3hhOwkJCTxyZWN0IGlkPSJyZWN0MjQ1NjIiIHg9IjAiIHk9IjU4LjUyIiBzdHlsZT0iZmlsbDojNTU1NTU1OyIgd2lkdGg9IjEuODkiIGhlaWdodD0iMS44OSIvPiYjeGE7CQk8L2c+JiN4YTsJPC9nPiYjeGE7PC9nPiYjeGE7PC9zdmc+;" vertex="1" parent="1">
          <mxGeometry x="379.99999999999994" y="420" width="160.17" height="270" as="geometry" />
        </mxCell>
        <mxCell id="e5oLFLb0LMOiWfZk1AVb-32" value="" style="rounded=1;whiteSpace=wrap;html=1;fillColor=#e1d5e7;dashed=1;strokeColor=#9673a6;opacity=50;" vertex="1" parent="1">
          <mxGeometry x="10" y="580" width="920" height="60" as="geometry" />
        </mxCell>
        <mxCell id="e5oLFLb0LMOiWfZk1AVb-33" value="" style="points=[[0,0,0],[0.25,0,0],[0.5,0,0],[0.75,0,0],[1,0,0],[0,1,0],[0.25,1,0],[0.5,1,0],[0.75,1,0],[1,1,0],[0,0.25,0],[0,0.5,0],[0,0.75,0],[1,0.25,0],[1,0.5,0],[1,0.75,0]];outlineConnect=0;fontColor=#232F3E;gradientColor=#945DF2;gradientDirection=north;fillColor=#5A30B5;strokeColor=#ffffff;dashed=0;verticalLabelPosition=bottom;verticalAlign=top;align=center;html=1;fontSize=12;fontStyle=0;aspect=fixed;shape=mxgraph.aws4.resourceIcon;resIcon=mxgraph.aws4.managed_streaming_for_kafka;" vertex="1" parent="1">
          <mxGeometry x="20" y="586" width="48" height="48" as="geometry" />
        </mxCell>
        <mxCell id="e5oLFLb0LMOiWfZk1AVb-34" value="" style="rounded=1;whiteSpace=wrap;html=1;fillColor=#fff2cc;dashed=1;strokeColor=#d6b656;opacity=50;" vertex="1" parent="1">
          <mxGeometry x="10" y="500" width="920" height="60" as="geometry" />
        </mxCell>
        <mxCell id="e5oLFLb0LMOiWfZk1AVb-35" value="" style="shape=image;verticalLabelPosition=bottom;labelBackgroundColor=#ffffff;verticalAlign=top;aspect=fixed;imageAspect=0;image=data:image/svg+xml,PHN2ZyB4bWxuczpjYz0iaHR0cDovL2NyZWF0aXZlY29tbW9ucy5vcmcvbnMjIiB4bWxuczpkYz0iaHR0cDovL3B1cmwub3JnL2RjL2VsZW1lbnRzLzEuMS8iIHhtbG5zOmlua3NjYXBlPSJodHRwOi8vd3d3Lmlua3NjYXBlLm9yZy9uYW1lc3BhY2VzL2lua3NjYXBlIiB4bWxuczpyZGY9Imh0dHA6Ly93d3cudzMub3JnLzE5OTkvMDIvMjItcmRmLXN5bnRheC1ucyMiIHhtbG5zOnNvZGlwb2RpPSJodHRwOi8vc29kaXBvZGkuc291cmNlZm9yZ2UubmV0L0RURC9zb2RpcG9kaS0wLmR0ZCIgeG1sbnM6c3ZnPSJodHRwOi8vd3d3LnczLm9yZy8yMDAwL3N2ZyIgeG1sbnM9Imh0dHA6Ly93d3cudzMub3JnLzIwMDAvc3ZnIiB4bWxuczp4bGluaz0iaHR0cDovL3d3dy53My5vcmcvMTk5OS94bGluayIgdmVyc2lvbj0iMS4xIiBpZD0ic3ZnMTk2OTUxIiBpbmtzY2FwZTp2ZXJzaW9uPSIwLjkyLjMgKDI0MDU1NDYsIDIwMTgtMDMtMTEpIiBzb2RpcG9kaTpkb2NuYW1lPSJweXRob25fdG9vbHNfYW5kX3Nkay5zdmciIHg9IjBweCIgeT0iMHB4IiB2aWV3Qm94PSIwIDAgNDggNDgiIHN0eWxlPSJlbmFibGUtYmFja2dyb3VuZDpuZXcgMCAwIDQ4IDQ4OyIgeG1sOnNwYWNlPSJwcmVzZXJ2ZSI+JiN4YTs8c29kaXBvZGk6bmFtZWR2aWV3IGJvcmRlcmNvbG9yPSIjNjY2NjY2IiBib3JkZXJvcGFjaXR5PSIxIiBmaXQtbWFyZ2luLWJvdHRvbT0iMCIgZml0LW1hcmdpbi1sZWZ0PSIwIiBmaXQtbWFyZ2luLXJpZ2h0PSIwIiBmaXQtbWFyZ2luLXRvcD0iMCIgZ3JpZHRvbGVyYW5jZT0iMTAiIGd1aWRldG9sZXJhbmNlPSIxMCIgaWQ9Im5hbWVkdmlldzE5Njk1MyIgaW5rc2NhcGU6Y3VycmVudC1sYXllcj0ic3ZnMTk2OTUxIiBpbmtzY2FwZTpjeD0iMzIuMDAwMDE1IiBpbmtzY2FwZTpjeT0iMzIuMDAwNTg2IiBpbmtzY2FwZTpwYWdlb3BhY2l0eT0iMCIgaW5rc2NhcGU6cGFnZXNoYWRvdz0iMiIgaW5rc2NhcGU6d2luZG93LWhlaWdodD0iMTAxNyIgaW5rc2NhcGU6d2luZG93LW1heGltaXplZD0iMSIgaW5rc2NhcGU6d2luZG93LXdpZHRoPSIxOTIwIiBpbmtzY2FwZTp3aW5kb3cteD0iLTgiIGlua3NjYXBlOndpbmRvdy15PSItOCIgaW5rc2NhcGU6em9vbT0iMTAuMjcyOTE3IiBvYmplY3R0b2xlcmFuY2U9IjEwIiBwYWdlY29sb3I9IiNmZmZmZmYiIHNob3dncmlkPSJmYWxzZSI+JiN4YTsJPC9zb2RpcG9kaTpuYW1lZHZpZXc+JiN4YTs8ZyBpZD0iZzE5Njk0OSIgdHJhbnNmb3JtPSJ0cmFuc2xhdGUoLTcuNjUsLTcuNjQ5MjgwNikiPiYjeGE7CTx0aXRsZSBpZD0idGl0bGUxOTY5MDUiPlBhZ2UtMTwvdGl0bGU+JiN4YTsJPGcgaWQ9Imdyb3VwMTE3Ny0xIiB0cmFuc2Zvcm09InRyYW5zbGF0ZSg3LjY1LC03LjYxMzQyKSI+JiN4YTsJCTx0aXRsZSBpZD0idGl0bGUxOTY5MDciPlB5dGhvbiBUb29scyBhbmQgU0RLPC90aXRsZT4mI3hhOwkJPGcgaWQ9Imdyb3VwMTE3OC0yIj4mI3hhOwkJCTx0aXRsZSBpZD0idGl0bGUxOTY5MDkiPlNoZWV0LjExNzg8L3RpdGxlPiYjeGE7CQkJPGcgaWQ9Imdyb3VwMTE3OS0zIiB0cmFuc2Zvcm09InRyYW5zbGF0ZSgwLC0xMi4zMTQ3KSI+JiN4YTsJCQkJPHRpdGxlIGlkPSJ0aXRsZTE5NjkxMSI+U2hlZXQuMTE3OTwvdGl0bGU+JiN4YTsJCQkJPGcgaWQ9InNoYXBlMTE4MC00Ij4mI3hhOwkJCQkJPHRpdGxlIGlkPSJ0aXRsZTE5NjkxMyI+U2hlZXQuMTE4MDwvdGl0bGU+JiN4YTsJCQkJCTxwYXRoIGlkPSJwYXRoMTk2OTE1IiBpbmtzY2FwZTpjb25uZWN0b3ItY3VydmF0dXJlPSIwIiBzdHlsZT0iZmlsbDojMzc3MkE0OyIgZD0iTTAsNTEuMTdjMC4wMi0wLjA2LDAuMDQtMC4xMywwLjA1LTAuMiAgICAgICBjMC4wNC0wLjcsMC4wNC0xLjQsMC4xMS0yLjFjMC4yNC0yLjI2LDAuNzYtNC40NCwyLjE4LTYuMjhjMS4xLTEuNDQsMi41NC0yLjMsNC4zMy0yLjU0YzAuMjUtMC4wMywwLjUxLTAuMDQsMC43Ni0wLjA0ICAgICAgIGM1LjM5LDAsMTAuNzksMCwxNi4xOCwwYzAuMzEsMCwwLjMxLDAsMC4zMi0wLjMyYzAtMC4zNy0wLjAyLTAuNzUsMC0xLjEyYzAuMDEtMC4yMy0wLjA3LTAuMjktMC4yOS0wLjI5ICAgICAgIGMtMi45OCwwLjAxLTUuOTUsMC4wMS04LjkzLDAuMDFjLTAuNywwLTEuMzktMC4wMS0yLjA5LDBjLTAuMTksMC0wLjI2LTAuMDUtMC4yNS0wLjI1YzAtMS44My0wLjAxLTMuNjcsMC01LjUgICAgICAgYzAuMDEtMC44MiwwLjQtMS41MSwwLjkzLTIuMTFjMC43NC0wLjg0LDEuNjktMS4zNiwyLjcxLTEuNzVjMS4yNi0wLjQ4LDIuNTctMC43MywzLjg5LTAuODljMS44My0wLjIzLDMuNjYtMC4yNSw1LjQ5LTAuMTcgICAgICAgYzEuOTcsMC4wOCwzLjkyLDAuMzUsNS43OCwxLjA3YzEuMjYsMC40OSwyLjQsMS4xNiwzLjIzLDIuMjZjMC42OSwwLjkxLDEuMDEsMS45MiwwLjk1LDMuMDhjLTAuMDUsMC45My0wLjAyLDEuODctMC4wMSwyLjgxICAgICAgIGMwLDEuNzMsMC4wMSwzLjQ2LDAuMDEsNS4xOWMwLDEuMDIsMC4wMiwyLjA0LTAuMDUsMy4wNmMtMC4xNCwyLjQtMS4yOSw0LjExLTMuNTEsNS4wNGMtMS4wMSwwLjQyLTIuMDYsMC42MS0zLjE0LDAuNjEgICAgICAgYy0zLjgyLDAtNy42NS0wLjAxLTExLjQ3LDBjLTEuMjIsMC0yLjM5LDAuMjctMy40NSwwLjkxYy0xLjQsMC44NS0yLjIsMi4xNS0yLjY1LDMuN2MtMC4yMiwwLjc3LTAuMzEsMS41Ny0wLjMyLDIuMzcgICAgICAgYzAsMS43MywwLDMuNDYsMCw1LjE5YzAsMC4zNSwwLDAuMzUtMC4zNCwwLjM1Yy0xLjI1LDAtMi40OSwwLjA0LTMuNzQsMC4wMWMtMS4yNy0wLjA0LTIuMzctMC41NC0zLjMyLTEuMzcgICAgICAgYy0xLjEyLTAuOTYtMS44Mi0yLjE5LTIuMzEtMy41NmMtMC40Ni0xLjI1LTAuNzMtMi41NC0wLjg0LTMuODZjLTAuMDgtMC44NC0wLjExLTEuNjgtMC4xNi0yLjUyICAgICAgIEMwLjA0LDUxLjg3LDAuMDIsNTEuNzgsMCw1MS42OUMwLDUxLjUyLDAsNTEuMzUsMCw1MS4xN3oiLz4mI3hhOwkJCQk8L2c+JiN4YTsJCQkJPGcgaWQ9InNoYXBlMTE4MS02IiB0cmFuc2Zvcm09InRyYW5zbGF0ZSgxNS4yMDMzLC0yNy44MzIpIj4mI3hhOwkJCQkJPHRpdGxlIGlkPSJ0aXRsZTE5NjkxOCI+U2hlZXQuMTE4MTwvdGl0bGU+JiN4YTsJCQkJCTxwYXRoIGlkPSJwYXRoMTk2OTIwIiBpbmtzY2FwZTpjb25uZWN0b3ItY3VydmF0dXJlPSIwIiBkPSJNMCw2MS4xNWMwLDEuMTksMC45NCwyLjE1LDIuMTEsMi4xNWMxLjE1LDAsMi4xMS0wLjk3LDIuMTEtMi4xMyAgICAgICBjMC0xLjE5LTAuOTUtMi4xNi0yLjExLTIuMTVDMC45Myw1OS4wMywwLDU5Ljk3LDAsNjEuMTV6Ii8+JiN4YTsJCQkJPC9nPiYjeGE7CQkJCTxnIGlkPSJzaGFwZTExODItOCIgdHJhbnNmb3JtPSJ0cmFuc2xhdGUoMTUuMjAzMywtMjcuODMyKSI+JiN4YTsJCQkJCTx0aXRsZSBpZD0idGl0bGUxOTY5MjMiPlNoZWV0LjExODI8L3RpdGxlPiYjeGE7CQkJCQk8cGF0aCBpZD0icGF0aDE5NjkyNSIgaW5rc2NhcGU6Y29ubmVjdG9yLWN1cnZhdHVyZT0iMCIgc3R5bGU9ImZpbGw6I0ZGRkZGRjsiIGQ9Ik0wLDYxLjE1YzAtMS4xOCwwLjkzLTIuMTIsMi4xMS0yLjEzICAgICAgIGMxLjE2LTAuMDEsMi4xMSwwLjk2LDIuMTEsMi4xNWMwLDEuMTYtMC45NiwyLjEzLTIuMTEsMi4xM0MwLjk0LDYzLjMsMCw2Mi4zNCwwLDYxLjE1eiIvPiYjeGE7CQkJCTwvZz4mI3hhOwkJCTwvZz4mI3hhOwkJCTxnIGlkPSJncm91cDExODMtMTAiIHRyYW5zZm9ybT0idHJhbnNsYXRlKDEyLjU5NCkiPiYjeGE7CQkJCTx0aXRsZSBpZD0idGl0bGUxOTY5MjkiPlNoZWV0LjExODM8L3RpdGxlPiYjeGE7CQkJCTxnIGlkPSJzaGFwZTExODQtMTEiPiYjeGE7CQkJCQk8dGl0bGUgaWQ9InRpdGxlMTk2OTMxIj5TaGVldC4xMTg0PC90aXRsZT4mI3hhOwkJCQkJPHBhdGggaWQ9InBhdGgxOTY5MzMiIGlua3NjYXBlOmNvbm5lY3Rvci1jdXJ2YXR1cmU9IjAiIHN0eWxlPSJmaWxsOiNGRkRBNEI7IiBkPSJNMzUuNDEsMzkuNjZjLTAuMDIsMC4wNy0wLjA1LDAuMTQtMC4wNSwwLjIxICAgICAgIGMtMC4wNCwwLjctMC4wNSwxLjQtMC4xMiwyLjA5Yy0wLjIzLDIuMjctMC43NSw0LjQ1LTIuMTcsNi4yOWMtMS4xLDEuNDQtMi41NCwyLjMtNC4zNCwyLjUzYy0wLjI1LDAuMDQtMC41LDAuMDUtMC43NiwwLjA1ICAgICAgIGMtNS4zOSwwLTEwLjc4LDAtMTYuMTcsMGMtMC4zMiwwLTAuMzIsMC0wLjMyLDAuMzJjMCwwLjM3LDAuMDEsMC43NSwwLDEuMTJjLTAuMDIsMC4yMywwLjA3LDAuMjksMC4yOCwwLjI5ICAgICAgIGMyLjk4LTAuMDEsNS45Ni0wLjAxLDguOTQtMC4wMWMwLjY5LDAsMS4zOSwwLjAxLDIuMDksMGMwLjE5LDAsMC4yNSwwLjA1LDAuMjUsMC4yNWMtMC4wMSwxLjgzLDAuMDEsMy42Ny0wLjAxLDUuNSAgICAgICBjLTAuMDEsMC44Mi0wLjM5LDEuNTEtMC45MywyLjExYy0wLjc0LDAuODMtMS42OCwxLjM2LTIuNywxLjc1Yy0xLjI2LDAuNDgtMi41NywwLjcyLTMuOSwwLjg5Yy0xLjgyLDAuMjMtMy42NSwwLjI1LTUuNDgsMC4xNyAgICAgICBjLTEuOTctMC4wOS0zLjkyLTAuMzUtNS43OC0xLjA3Yy0xLjI2LTAuNDktMi40LTEuMTYtMy4yNC0yLjI3Yy0wLjY4LTAuOS0xLTEuOTItMC45NC0zLjA3YzAuMDUtMC45MywwLjAxLTEuODcsMC4wMS0yLjgxICAgICAgIGMwLTEuNzMtMC4wMS0zLjQ2LTAuMDEtNS4xOWMwLTEuMDItMC4wMi0yLjA0LDAuMDQtMy4wNmMwLjE0LTIuNCwxLjI5LTQuMTEsMy41Mi01LjA0YzEtMC40MywyLjA2LTAuNjEsMy4xNC0wLjYxICAgICAgIGMzLjgyLDAsNy42NCwwLjAxLDExLjQ2LDBjMS4yMywwLDIuNC0wLjI3LDMuNDYtMC45MWMxLjQtMC44NSwyLjItMi4xNSwyLjY0LTMuN2MwLjIyLTAuNzcsMC4zMi0xLjU3LDAuMzItMi4zNyAgICAgICBjMC4wMS0xLjczLDAtMy40NiwwLTUuMmMwLTAuMzQsMC0wLjM0LDAuMzUtMC4zNGMxLjI0LDAsMi40OS0wLjA0LDMuNzMtMC4wMWMxLjI3LDAuMDQsMi4zNywwLjU0LDMuMzMsMS4zNyAgICAgICBjMS4xMSwwLjk2LDEuODEsMi4xOSwyLjMxLDMuNTZjMC40NSwxLjI1LDAuNzIsMi41NCwwLjg0LDMuODZjMC4wNywwLjg0LDAuMTEsMS42OCwwLjE2LDIuNTFjMCwwLjEsMC4wMywwLjE5LDAuMDUsMC4yOCAgICAgICBDMzUuNDEsMzkuMzIsMzUuNDEsMzkuNDksMzUuNDEsMzkuNjZ6Ii8+JiN4YTsJCQkJPC9nPiYjeGE7CQkJCTxnIGlkPSJzaGFwZTExODUtMTMiIHRyYW5zZm9ybT0idHJhbnNsYXRlKDE1Ljk4MTMsLTMuOTEyKSI+JiN4YTsJCQkJCTx0aXRsZSBpZD0idGl0bGUxOTY5MzYiPlNoZWV0LjExODU8L3RpdGxlPiYjeGE7CQkJCQk8cGF0aCBpZD0icGF0aDE5NjkzOCIgaW5rc2NhcGU6Y29ubmVjdG9yLWN1cnZhdHVyZT0iMCIgZD0iTTQuMjIsNjEuMTZjMC0xLjE5LTAuOTQtMi4xNS0yLjExLTIuMTVDMC45Niw1OS4wMiwwLDU5Ljk4LDAsNjEuMTQgICAgICAgYzAsMS4xOSwwLjk1LDIuMTYsMi4xMiwyLjE1UzQuMjIsNjIuMzQsNC4yMiw2MS4xNnoiLz4mI3hhOwkJCQk8L2c+JiN4YTsJCQkJPGcgaWQ9InNoYXBlMTE4Ni0xNSIgdHJhbnNmb3JtPSJ0cmFuc2xhdGUoMTUuOTgwNywtMy45MTIpIj4mI3hhOwkJCQkJPHRpdGxlIGlkPSJ0aXRsZTE5Njk0MSI+U2hlZXQuMTE4NjwvdGl0bGU+JiN4YTsJCQkJCTxwYXRoIGlkPSJwYXRoMTk2OTQzIiBpbmtzY2FwZTpjb25uZWN0b3ItY3VydmF0dXJlPSIwIiBzdHlsZT0iZmlsbDojRkZGRkZGOyIgZD0iTTQuMjIsNjEuMTZjMCwxLjE4LTAuOTMsMi4xMi0yLjEsMi4xMyAgICAgICBDMC45NSw2My4zLDAsNjIuMzMsMCw2MS4xNGMwLTEuMTYsMC45Ni0yLjEyLDIuMTEtMi4xM0MzLjI4LDU5LjAxLDQuMjIsNTkuOTcsNC4yMiw2MS4xNnoiLz4mI3hhOwkJCQk8L2c+JiN4YTsJCQk8L2c+JiN4YTsJCTwvZz4mI3hhOwk8L2c+JiN4YTs8L2c+JiN4YTs8L3N2Zz4=;" vertex="1" parent="1">
          <mxGeometry x="20" y="512" width="48" height="48" as="geometry" />
        </mxCell>
        <mxCell id="e5oLFLb0LMOiWfZk1AVb-36" value="AXeventd" style="text;html=1;strokeColor=none;fillColor=none;align=center;verticalAlign=middle;whiteSpace=wrap;rounded=0;dashed=1;opacity=50;" vertex="1" parent="1">
          <mxGeometry x="94.17" y="520" width="40" height="20" as="geometry" />
        </mxCell>
        <mxCell id="e5oLFLb0LMOiWfZk1AVb-38" value="Kafka Fe" style="text;html=1;strokeColor=none;fillColor=none;align=center;verticalAlign=middle;whiteSpace=wrap;rounded=0;dashed=1;opacity=50;" vertex="1" parent="1">
          <mxGeometry x="100" y="600" width="60" height="20" as="geometry" />
        </mxCell>
      </root>
    </mxGraphModel>
  </diagram>
</mxfile>
